<?xml version="1.0" encoding="utf-8"?>
<!-- Generator: Adobe Illustrator 27.8.1, SVG Export Plug-In . SVG Version: 6.00 Build 0)  -->
<svg version="1.1" id="Layer_1" xmlns="http://www.w3.org/2000/svg" xmlns:xlink="http://www.w3.org/1999/xlink" x="0px" y="0px"
	 viewBox="0 0 37 27" style="enable-background:new 0 0 37 27;" xml:space="preserve">
<style type="text/css">
	.st0{fill:#4E4E4E;}
</style>
<g>
	<path class="st0" d="M36,2H1C0.4,2,0,1.6,0,1v0c0-0.6,0.4-1,1-1h35c0.6,0,1,0.4,1,1v0C37,1.6,36.6,2,36,2z"/>
</g>
<g>
	<path class="st0" d="M36,14.5H1c-0.6,0-1-0.4-1-1v0c0-0.6,0.4-1,1-1h35c0.6,0,1,0.4,1,1v0C37,14.1,36.6,14.5,36,14.5z"/>
</g>
<g>
	<path class="st0" d="M36,27H13c-0.6,0-1-0.4-1-1v0c0-0.6,0.4-1,1-1h23c0.6,0,1,0.4,1,1v0C37,26.6,36.6,27,36,27z"/>
</g>
</svg>
