<?xml version="1.0" encoding="utf-8"?>
<!-- Generator: Adobe Illustrator 27.8.1, SVG Export Plug-In . SVG Version: 6.00 Build 0)  -->
<svg version="1.1" id="Layer_1" xmlns="http://www.w3.org/2000/svg" xmlns:xlink="http://www.w3.org/1999/xlink" x="0px" y="0px"
	 viewBox="0 0 202 56" style="enable-background:new 0 0 202 56;" xml:space="preserve">
<style type="text/css">
	.st0{fill:#D63527;}
	.st1{fill:#FFFFFF;}
</style>
<path class="st0" d="M28,54.9c14.9,0,26.9-12.1,26.9-26.9S42.9,1.1,28,1.1S1.1,13.1,1.1,28S13.1,54.9,28,54.9z"/>
<path class="st1" d="M4.5,20.2v-4.1h15.3v30.1h-4.3v-26L4.5,20.2z"/>
<path class="st1" d="M22.3,46.2h4.3V9.9c-6.2,0-12.4,0-18.6,0C6.9,11.1,5.9,12.5,5,14c5.8,0,11.6,0,17.4-0.1L22.3,46.2z"/>
<path class="st1" d="M51.5,35.9V40H36.2V9.9h4.3v26L51.5,35.9z"/>
<path class="st1" d="M33.7,9.9h-4.3v36.3c6.2,0,12.4,0,18.6,0c1.1-1.2,2.1-2.6,3.1-4.1c-5.8,0-11.6,0-17.4,0.1L33.7,9.9z"/>
<path class="st1" d="M182.6,14.2h6v21.6H202v5.3h-19.4V14.2z"/>
<path class="st1" d="M153.5,29.2v-15h6v15c0,4.3,2.4,7.2,6.3,7.2s6.3-2.9,6.3-7.2v-15h6v15c0,7.6-4.9,12.6-12.3,12.6
	S153.5,36.8,153.5,29.2z"/>
<path class="st1" d="M129.5,41.1V14.2h20v5.2h-14v5.5h12.8v5.2h-12.8v5.8h14.3v5.2H129.5z"/>
<path class="st1" d="M120.1,41.1l-1.9-5.2h-10.4l-1.9,5.2h-6.2l10.4-26.9h6.2l10.4,26.9H120.1z M109.7,30.7h6.7l-3.4-9.4L109.7,30.7
	z"/>
<path class="st1" d="M91.1,41.1l-7.5-10.3l-3.7,4.2v6h-6V14.2h6v12.7l10.8-12.7H98L87.5,26.4l11.1,14.7H91.1z"/>
</svg>
