<?xml version="1.0" encoding="utf-8"?>
<!-- Generator: Adobe Illustrator 27.8.1, SVG Export Plug-In . SVG Version: 6.00 Build 0)  -->
<svg version="1.1" id="Layer_1" xmlns="http://www.w3.org/2000/svg" xmlns:xlink="http://www.w3.org/1999/xlink" x="0px" y="0px"
	 viewBox="0 0 128 128" style="enable-background:new 0 0 128 128;" xml:space="preserve">
<style type="text/css">
	.st0{fill:#D63527;}
	.st1{fill:#FFFFFF;}
</style>
<g>
	<path class="st0" d="M64,128c35.3,0,64-28.7,64-64S99.3,0,64,0S0,28.7,0,64S28.7,128,64,128z"/>
	<g>
		<path class="st1" d="M8.2,45.4v-9.6h36.3v71.4H34.2V45.4L8.2,45.4z"/>
		<path class="st1" d="M50.5,107.2h10.3V21c-14.7,0-29.4,0-44.1,0c-2.7,3-5.1,6.2-7.3,9.7c13.8-0.1,27.5-0.1,41.3-0.2L50.5,107.2z"
			/>
		<path class="st1" d="M119.8,82.8v9.6H83.5V21h10.3v61.7L119.8,82.8z"/>
		<path class="st1" d="M77.5,21H67.3v86.2c14.7,0,29.4,0,44.1,0c2.7-3,5.1-6.2,7.3-9.7c-13.8,0.1-27.5,0.1-41.3,0.2L77.5,21z"/>
	</g>
</g>
</svg>
