<?xml version="1.0" encoding="utf-8"?>
<!-- Generator: Adobe Illustrator 27.8.1, SVG Export Plug-In . SVG Version: 6.00 Build 0)  -->
<svg version="1.1" id="Layer_1" xmlns="http://www.w3.org/2000/svg" xmlns:xlink="http://www.w3.org/1999/xlink" x="0px" y="0px"
	 viewBox="0 0 239 184.6" style="enable-background:new 0 0 239 184.6;" xml:space="preserve">
<style type="text/css">
	.st0{fill:#FFFFFF;}
</style>
<g>
	<path class="st0" d="M0,52.4V31.5h77.8v153.1H55.9V52.4H0z"/>
	<path class="st0" d="M90.5,184.6h21.9V0C80.9,0,49.3,0,17.8,0C12.2,6.1,7.1,13.2,2.5,20.8c29.5,0,59,0,88.5-0.5L90.5,184.6z"/>
	<path class="st0" d="M239,132.2v20.8h-77.8V0h21.9v132.2H239z"/>
	<path class="st0" d="M148.5,0h-21.9v184.6c31.5,0,63.1,0,94.6,0c5.6-6.1,10.7-13.2,15.8-20.8c-29.5,0-59,0-88.5,0.5L148.5,0z"/>
</g>
</svg>
