<svg width="202" height="56" viewBox="0 0 202 56" fill="none" xmlns="http://www.w3.org/2000/svg">
<path d="M28 54.9371C42.8769 54.9371 54.9371 42.8769 54.9371 28C54.9371 13.1231 42.8769 1.06299 28 1.06299C13.1231 1.06299 1.06299 13.1231 1.06299 28C1.06299 42.8769 13.1231 54.9371 28 54.9371Z" fill="#D63527"/>
<path d="M4.52148 20.16V16.1H19.797V46.1689H15.4778V20.1808L4.52148 20.16Z" fill="white"/>
<path d="M22.3119 46.1689H26.6312V9.89337C20.4401 9.89337 14.249 9.89337 8.06304 9.89337C6.93267 11.1378 5.92156 12.5119 4.99341 13.9845C10.7853 13.9586 16.5823 13.9378 22.3742 13.9119L22.3119 46.1689Z" fill="white"/>
<path d="M51.4836 35.9023V39.9623H36.2029V9.89337H40.5273V35.8815L51.4836 35.9023Z" fill="white"/>
<path d="M33.6933 9.89337H29.374V46.1741C35.5651 46.1741 41.7562 46.1741 47.9422 46.1741C49.0725 44.9297 50.0837 43.5556 51.0118 42.083C45.2199 42.1089 39.4229 42.1297 33.6311 42.1556L33.6933 9.89337Z" fill="white"/>
<path d="M182.563 14.2225H188.569V35.8045H202V41.1175H182.563V14.2225Z" fill="#222222"/>
<path d="M153.519 29.2045V14.2225H159.525V29.2045C159.525 33.4945 161.901 36.3655 165.828 36.3655C169.755 36.3655 172.131 33.4945 172.131 29.2045V14.2225H178.137V29.2045C178.137 36.8275 173.22 41.7775 165.828 41.7775C158.436 41.7775 153.519 36.8275 153.519 29.2045Z" fill="#222222"/>
<path d="M129.518 41.1175V14.2225H149.516V19.4365H135.524V24.9145H148.361V30.1285H135.524V35.9035H149.813V41.1175H129.518Z" fill="#222222"/>
<path d="M120.119 41.1175L118.238 35.9035H107.81L105.929 41.1175H99.7251L110.153 14.2225H116.39L126.818 41.1175H120.119ZM109.658 30.6895H116.39L113.024 21.3175L109.658 30.6895Z" fill="#222222"/>
<path d="M91.088 41.1175L83.564 30.8545L79.901 35.0785V41.1175H73.895V14.2225H79.901V26.8945L90.659 14.2225H98.018L87.458 26.3995L98.579 41.1175H91.088Z" fill="#222222"/>
</svg>
