<svg width="81" height="80" viewBox="0 0 81 80" fill="none" xmlns="http://www.w3.org/2000/svg">
<path d="M25.9843 3.90624C11.375 5.74999 1.56247 19.8594 4.9531 34.1406C5.3281 35.75 6.04685 37.8281 6.56247 38.8594L6.87497 39.4531L5.53122 45.7656C4.28122 51.5938 4.2031 52.0937 4.42185 52.4687C4.85935 53.2656 4.99997 53.2656 11.6718 51.8437L17.8906 50.5312L19.2812 51.125C21 51.8594 23.4218 52.5469 25.1875 52.7969C27.7812 53.1562 27.4687 52.9688 27.5781 54.2969C27.875 57.7344 29.3125 61.7969 31.3281 64.875C36.5781 72.9375 45.8437 77.2656 55.1875 76.0312C57.7656 75.6875 60.6093 74.875 62.375 73.9844L63.0937 73.625L69.25 74.9375C72.625 75.6562 75.5312 76.25 75.6875 76.25C76.1406 76.25 76.75 75.5469 76.75 75.0469C76.75 74.7969 76.1562 71.9062 75.4531 68.6094L74.1406 62.625L74.75 61.2187C76.125 58.0156 76.6562 55.3438 76.6718 51.5625C76.6718 48.375 76.4218 46.7031 75.5 43.9062C73.0937 36.5312 67.2656 30.625 59.9687 28.2031C58.2031 27.6094 55.5312 27.0312 54.5937 27.0312C54.25 27.0312 53.8593 26.9375 53.7343 26.8125C53.6093 26.6875 53.4687 26.0937 53.4062 25.4219C53.1875 23.0625 52.25 19.9062 51.0468 17.5C47.5781 10.5938 41.2031 5.71875 33.6562 4.20312C31.875 3.84375 27.7343 3.68749 25.9843 3.90624ZM33.3281 6.70312C42.0937 8.53125 48.7812 15.2344 50.6875 24.1094C51.1718 26.3906 51.1718 30.4844 50.6875 32.7656C49.2187 39.5469 45.0156 45.0938 38.9843 48.1719C33.25 51.0938 26.4843 51.3906 20.7031 48.9844C17.8281 47.7812 18.7812 47.7656 12.7187 49.0625C9.78122 49.6875 7.3281 50.1562 7.2656 50.1094C7.21872 50.0469 7.68747 47.5938 8.31247 44.6562C9.60935 38.5938 9.59372 39.5469 8.3906 36.6719C5.12497 28.8281 6.87497 19.5781 12.7968 13.2812C16.3906 9.46874 21.5156 6.90625 26.6718 6.34375C28.0937 6.1875 31.8593 6.39062 33.3281 6.70312ZM56.9062 29.9375C64.2031 31.5469 70.4531 37.1094 72.9843 44.2656C74.75 49.2656 74.6093 54.9844 72.6093 59.7969C71.4062 62.6719 71.3906 61.7187 72.6875 67.7812C73.3125 70.7188 73.7812 73.1719 73.7343 73.2187C73.6875 73.2812 71.2343 72.8125 68.2812 72.1875C62.2187 70.8906 63.1875 70.9062 60.2968 72.1094C55.4843 74.1094 49.7656 74.25 44.7656 72.4844C37.4531 69.9062 31.9062 63.5469 30.3593 56C29.8906 53.6562 29.8593 53.125 30.1562 53.125C30.8906 53.1094 33.875 52.6406 34.9843 52.3594C36.4375 51.9844 38.4531 51.2656 39.4218 50.7812L40.0625 50.4375L39.8125 50.7969C39.4531 51.3281 39.5 51.9844 39.9531 52.4219L40.3281 52.8125H52.0625H63.7968L64.1718 52.4219C64.4218 52.1875 64.5625 51.8594 64.5625 51.5625C64.5625 51.2656 64.4218 50.9375 64.1718 50.7031L63.7968 50.3125H52.125H40.4531L41.8437 49.4375C42.6093 48.9531 43.625 48.2812 44.0937 47.9219C45.25 47.0312 47.4843 44.8125 48.2968 43.7031L48.9687 42.8125H56.4375H63.9218L64.2343 42.4062C64.6718 41.8594 64.6406 41.3594 64.1875 40.8281L63.8125 40.3906L57.2343 40.3438C53.6093 40.3281 50.6562 40.2656 50.6562 40.2188C50.6562 40.1875 50.9062 39.6562 51.2187 39.0469C52.3125 36.875 53.2968 33.2656 53.5468 30.4531L53.6406 29.4375L54.6875 29.5625C55.2656 29.625 56.2656 29.7969 56.9062 29.9375Z" fill="#8D8D8D"/>
<path d="M26.3593 16.5781C23.3437 17.0156 20.75 19.5469 20.0937 22.7188C19.7187 24.5156 20.0625 25.3125 21.2343 25.3125C21.9375 25.3125 22.3125 24.8438 22.4218 23.8594C22.6093 22.3438 22.9843 21.5625 24 20.5469C25.1562 19.4062 26.1562 19 27.7187 19.0156C29.5625 19.0469 31.2343 20.0781 32.1406 21.75C32.5156 22.4375 32.6093 22.8125 32.6562 23.9219C32.7187 25.0469 32.6718 25.375 32.375 26.0625C31.9531 27.0625 30.9687 27.9844 29.1875 29.0469C27.9375 29.8125 26.9531 30.6875 26.6093 31.3594C26.3125 31.9375 26.2187 33.5312 26.4375 34.0625C26.6718 34.625 27.0156 34.8438 27.6718 34.8438C28.4062 34.8438 28.7812 34.375 28.7812 33.4531C28.7812 33.0312 28.8281 32.5625 28.8906 32.4219C28.9375 32.2656 29.5937 31.7656 30.3281 31.2969C33.2812 29.4062 34.2968 28.3125 34.875 26.4375C35.2656 25.2031 35.2812 23.2188 34.9375 22.0156C34.0937 19.1406 31.5468 16.9531 28.6093 16.5625C27.9687 16.4844 27.4218 16.4219 27.375 16.4375C27.3281 16.4375 26.875 16.5 26.3593 16.5781Z" fill="#DA251C"/>
<path d="M26.9844 36.9062C26.3437 37.25 26.1094 37.9531 26.375 38.6719C26.5 38.9688 27.2344 39.375 27.6875 39.375C28.1719 39.375 28.9375 38.5469 28.9375 38.0469C28.9375 37.5312 28.1562 36.7188 27.6562 36.7188C27.4531 36.7188 27.1562 36.8125 26.9844 36.9062Z" fill="#DA251C"/>
<path d="M39.9531 60.7031C39.4375 61.2188 39.4531 61.7969 40.0156 62.3594L40.4687 62.8125H52.0625H63.6562L64.1094 62.3594C64.6719 61.7969 64.6875 61.2188 64.1719 60.7031L63.7969 60.3125H52.0625H40.3281L39.9531 60.7031Z" fill="#DA251C"/>
</svg>
