<svg width="81" height="80" viewBox="0 0 81 80" fill="none" xmlns="http://www.w3.org/2000/svg">
<path d="M37.9511 7.93577C31.8478 8.85951 27.3941 11.0534 23.3527 15.0948C21.3403 17.0907 19.8722 19.0866 18.701 21.4125C18.0412 22.7321 16.7546 26.3116 16.7546 26.8395C16.7546 27.1034 16.5731 27.1364 15.3195 27.1364C10.9977 27.1529 8.58936 28.3075 7.22025 31.0458C6.41198 32.6458 6.3295 33.4046 6.39548 39.8378C6.44497 45.5122 6.46146 45.7266 6.82436 46.6504C7.56665 48.4484 9.11721 50.0154 10.9812 50.7577C11.7895 51.0876 12.2513 51.1206 15.2205 51.1866L18.5691 51.2526L18.602 43.7307L18.6515 36.2088L20.2516 35.483C24.7548 33.4541 29.291 29.8746 32.0293 26.1631L32.986 24.86L33.9592 25.7013C39.8481 30.8973 47.3205 34.2459 55.3537 35.2851C56.3929 35.417 58.4713 35.582 59.9394 35.648L62.6446 35.7634L62.5622 41.3059C62.4797 47.2112 62.3642 48.2009 61.457 50.8897C59.7085 56.0857 55.7166 60.8034 50.9824 63.2777L49.5968 64.0035L48.8875 63.3107C47.8153 62.2715 46.7926 61.8591 45.209 61.8591C44.2193 61.8591 43.708 61.9581 43.1306 62.222C42.0419 62.7168 41.0852 63.6406 40.5574 64.7128C40.178 65.4881 40.0955 65.8675 40.0955 66.8902C40.0955 68.3747 40.4749 69.2985 41.4811 70.4037C43.4111 72.4986 46.6936 72.5316 48.7391 70.5027C49.5803 69.6449 50.1247 68.5397 50.2071 67.4345L50.2896 66.5438L51.6092 65.884C57.1352 63.0962 61.5395 58.0816 63.6344 52.1928L64.0138 51.1371L66.7355 51.0546C69.4407 50.9721 69.4572 50.9722 70.6944 50.3783C72.3109 49.6195 73.3831 48.5473 74.1419 46.9308L74.7357 45.6936V39.013V32.3324L74.2079 31.2272C72.8553 28.357 70.4469 27.1529 66.0427 27.1364C64.7725 27.1364 64.5911 27.1034 64.5911 26.8395C64.5911 26.3116 63.3045 22.7321 62.6446 21.4125C60.3188 16.7938 56.2609 12.7524 51.5598 10.3936C48.1782 8.69456 45.308 8.00175 41.2502 7.91927C39.7161 7.88628 38.2315 7.90278 37.9511 7.93577ZM45.0441 10.8719C49.1679 11.7957 52.7969 13.7256 55.7331 16.5628C59.9394 20.6042 62.1993 25.5363 62.5622 31.4087L62.6611 33.1242L59.9889 33.0252C58.5208 32.9592 56.5743 32.7943 55.6341 32.6788C46.7926 31.4252 38.6274 27.3178 33.7283 21.6599C32.7716 20.5547 32.7551 20.5382 32.5406 20.9176C29.7034 25.4868 27.2456 28.1756 23.5177 30.6829C22.0991 31.6231 19.1464 33.2396 18.8165 33.2396C18.602 33.2396 18.866 29.7261 19.2289 27.9611C21.0599 18.9877 28.3508 12.0926 37.5222 10.641C38.9078 10.4266 43.6915 10.575 45.0441 10.8719ZM16.1937 30.5344C16.1442 30.9633 16.0947 35.1696 16.0947 39.8708V48.4484L14.1648 48.3824C12.6967 48.3329 12.0699 48.2504 11.641 48.0195C10.8492 47.6071 10.0245 46.7988 9.61207 46.0235C9.26567 45.3802 9.24918 45.1493 9.19969 39.3429C9.1502 34.0149 9.18319 33.2396 9.43063 32.5963C9.81002 31.6066 10.7338 30.6334 11.7235 30.1715C12.4328 29.8251 12.8122 29.7756 14.4287 29.7756H16.3092L16.1937 30.5344ZM69.8366 30.5179C70.3315 30.7818 70.9418 31.2767 71.2057 31.6066C72.1295 32.7778 72.1625 33.0252 72.1954 39.4914L72.2284 45.4297L71.7336 46.304C71.2057 47.2607 70.1005 48.1185 69.0778 48.4154C68.7479 48.4978 67.6427 48.5803 66.6365 48.5803H64.8055L64.987 47.6236C65.1024 47.0298 65.1684 43.5822 65.1684 38.2872V29.9076L67.0654 29.9736C68.7809 30.0395 69.0448 30.089 69.8366 30.5179ZM46.7266 65.0427C47.7328 65.752 48.0627 67.3026 47.4359 68.3418C46.4627 69.9253 44.1369 69.9253 43.1306 68.3418C42.4378 67.2201 42.9657 65.4551 44.1698 64.8447C44.8791 64.4818 46.0833 64.5808 46.7266 65.0427Z" fill="#8D8D8D"/>
<path d="M32.6396 48.6463C32.1777 48.7453 31.7488 48.8773 31.6829 48.9267C31.5179 49.1082 32.3427 51.1041 32.986 52.0938C34.1902 53.9083 36.2191 55.3599 38.3635 55.9208C39.5512 56.2342 41.778 56.2342 43.0317 55.9043C45.5555 55.261 47.8648 53.364 48.97 51.0546C49.2999 50.3783 49.5803 49.6031 49.6133 49.3391C49.6628 48.8608 49.6298 48.8443 48.6731 48.6463C47.1555 48.3164 47.1885 48.3164 46.7926 49.4051C46.2978 50.7742 44.9616 52.1928 43.51 52.9021C42.4873 53.4135 42.3059 53.4465 40.6728 53.4465C39.0398 53.4465 38.8583 53.4135 37.8356 52.9021C36.384 52.1928 35.0479 50.7742 34.5531 49.4051C34.1572 48.2999 34.1572 48.2999 32.6396 48.6463Z" fill="#DA251C"/>
</svg>
