<svg width="66" height="78" viewBox="0 0 66 78" fill="none" xmlns="http://www.w3.org/2000/svg">
<path d="M47.292 0.672035C47.0911 0.764801 46.7818 1.22861 46.5345 1.86248C46.0088 3.13022 45.947 3.20752 45.4213 3.34666C45.1894 3.39304 44.602 3.62495 44.1072 3.84139L43.2105 4.24336L42.2056 3.84139C40.7678 3.23844 40.5668 3.26936 39.4537 4.35158L38.4797 5.2792H19.9892H1.49871L1.1895 5.68117L0.864838 6.09859V36.2925V66.4864L1.23588 66.9193L1.60693 67.3522L5.25556 67.3986L8.88872 67.445L8.9351 72.083L8.98148 76.7366L9.41437 77.1076C9.87818 77.5096 10.5739 77.5869 11.0995 77.3086C11.2851 77.2158 12.5837 76.2882 14.0061 75.2369L16.5725 73.3508L19.4017 75.4225C22.5865 77.7415 22.9112 77.8652 23.7615 77.0303L24.2099 76.582V72.0057V67.4295L36.4389 67.3986L48.668 67.3522L49.039 66.9193L49.4101 66.4864V49.4028V32.3347H50.7242C52.4867 32.3347 52.7031 32.211 53.2597 30.8814C53.5071 30.2785 53.8163 29.7374 53.9245 29.6755C54.0327 29.6137 54.682 29.3354 55.3623 29.0571L56.6146 28.5314L57.5267 28.9643C59.0573 29.66 59.1191 29.6446 61.1135 27.6502C63.0924 25.6713 63.1234 25.6095 62.4431 24.1098C62.0721 23.275 62.0566 23.1358 62.2267 22.6875C62.3349 22.4246 62.5822 21.8062 62.7678 21.327C62.9533 20.8322 63.1697 20.3684 63.247 20.3066C63.3398 20.2293 63.8655 19.9819 64.422 19.75C65.1332 19.4563 65.5042 19.2089 65.6279 18.9461C65.8598 18.4359 65.8598 14.3853 65.6279 13.8751C65.5042 13.6123 65.1332 13.3649 64.422 13.0712C63.8655 12.8393 63.3398 12.5919 63.247 12.5146C63.1697 12.4528 62.9533 11.989 62.7678 11.4942C62.5822 11.015 62.3349 10.3965 62.2267 10.1337C62.0566 9.68538 62.0721 9.54623 62.4431 8.71138C63.1234 7.21173 63.0924 7.14989 61.1135 5.17097C59.1346 3.19206 59.0728 3.16114 57.5731 3.84139C56.7383 4.21244 56.5991 4.2279 56.1508 4.05784C55.888 3.94962 55.285 3.70225 54.8212 3.51672C53.6617 3.06838 53.6771 3.08384 53.337 2.09438C53.1824 1.61511 52.8732 1.05854 52.6722 0.857559C52.3166 0.501976 52.2393 0.486511 49.9667 0.501976C48.668 0.501976 47.4776 0.579277 47.292 0.672035ZM51.389 3.96507C51.8219 5.06275 51.9301 5.17097 53.2442 5.5884C53.8008 5.77393 54.7284 6.16043 55.3314 6.46964L56.4136 7.01075L57.4804 6.57786L58.5471 6.14497L59.3356 6.94891L60.1395 7.73738L59.7066 8.80414L59.2738 9.8709L59.8149 10.9531C60.1241 11.5561 60.5106 12.4837 60.6961 13.0403C61.1135 14.3544 61.2217 14.4626 62.3194 14.8955L63.247 15.2665V16.4106V17.5547L62.3194 17.9257C61.2217 18.3586 61.1135 18.4668 60.6806 19.7964C60.4951 20.353 60.1086 21.296 59.7994 21.8681L59.2583 22.9194L59.7066 24.0016L60.1395 25.0838L59.3511 25.8723L58.5626 26.6608L57.4804 26.2279L56.3827 25.795L55.3314 26.3361C54.7593 26.6453 53.8163 27.0318 53.2597 27.2173C51.9301 27.6502 51.8219 27.7584 51.389 28.8561L51.018 29.7837L49.9048 29.8301L48.7762 29.8765L48.5598 29.289C47.9723 27.7584 47.8641 27.6657 46.5499 27.2328C45.8697 27.0009 44.8802 26.5835 44.3391 26.3052L43.3651 25.795L42.2674 26.2279L41.1852 26.6608L40.4122 25.8723L39.6237 25.0993L40.0566 24.017L40.4895 22.9194L39.9793 21.9454C39.701 21.4043 39.2836 20.4148 39.0517 19.7346C38.6188 18.4204 38.5879 18.3895 37.1501 17.802L36.408 17.4928L36.4544 16.3797L36.5008 15.2665L37.4284 14.8955C38.5261 14.4626 38.6343 14.3544 39.0672 13.0248C39.2527 12.4682 39.6392 11.5251 39.9484 10.9531L40.4895 9.90182L40.0566 8.80414L39.6237 7.72192L40.4122 6.93345L41.2007 6.14497L42.2829 6.57786L43.3651 7.02621L44.4164 6.4851C44.9885 6.1759 45.8542 5.8203 46.318 5.6657C47.5549 5.26374 47.9878 5.01637 48.1114 4.62987C48.1733 4.42889 48.3433 3.98054 48.4979 3.60949L48.7917 2.94469L49.9048 2.99108L51.018 3.03746L51.389 3.96507ZM37.3202 8.71138L37.753 9.66991L37.2274 10.9222C36.9491 11.6024 36.6708 12.2518 36.609 12.36C36.5471 12.4682 36.006 12.7774 35.4031 13.0248C34.6301 13.3495 34.2436 13.5968 34.1199 13.8751C34.0271 14.107 33.9498 15.1429 33.9498 16.4879C33.9498 19.1007 34.0271 19.2707 35.5577 19.8582C36.5781 20.2447 36.5162 20.1674 37.2429 21.9145C37.5984 22.7957 37.7221 23.2595 37.6294 23.4296C37.5057 23.646 36.2379 23.6769 24.2717 23.6769H11.0532L10.6821 24.0634C10.1719 24.5582 10.1719 25.2693 10.6821 25.7641L11.0532 26.1506H24.0707H37.1037L38.7425 27.7739C40.6132 29.5982 40.675 29.6291 42.0819 29.0107C42.5612 28.7943 43.0405 28.6242 43.1332 28.6242C43.3806 28.6242 45.8542 29.6446 46.0088 29.8147C46.0707 29.8765 46.318 30.4021 46.5345 30.9587L46.9365 31.9791L46.9055 48.4288L46.8591 64.8785L35.5422 64.9249L24.2099 64.9558V63.4407C24.2099 61.9875 24.2253 61.8947 24.6118 61.5391C25.0756 61.1217 26.297 59.3128 26.5289 58.7099L26.668 58.3234L33.0377 58.277L39.3918 58.2306L39.6856 57.8596C40.0876 57.3649 40.0566 56.6691 39.5928 56.2208L39.2218 55.8343H33.3314H27.4565V54.381C27.4565 53.0824 27.2091 51.3044 26.9154 50.5314C26.8072 50.284 27.1628 50.2686 33.0067 50.2686H39.2218L39.5928 49.8821C40.103 49.3874 40.103 48.6762 39.5928 48.1815L39.2218 47.7949H32.3574H25.4776L24.751 46.9446C23.9625 46.017 22.5865 44.9812 21.3033 44.3318C18.5514 42.9559 14.5163 42.9713 11.7334 44.3628C7.23447 46.6354 4.85359 51.5827 5.88943 56.53C6.18317 57.906 7.29631 60.1632 8.19301 61.199L8.90418 61.9875V63.4717V64.9558L6.16771 64.9249L3.41578 64.8785L3.3694 36.308L3.33848 7.75284H20.1129H36.8873L37.3202 8.71138ZM18.7215 46.017C20.1129 46.3881 21.4115 47.1456 22.5092 48.2588C23.6378 49.3874 24.3645 50.6396 24.751 52.1238C25.0911 53.4379 24.9983 55.6797 24.5345 56.9938C23.2049 60.7352 19.2316 63.1161 15.3357 62.5131C8.50221 61.4464 5.71936 53.1133 10.5893 48.2742C11.687 47.1765 13.0012 46.3881 14.3307 46.0325C15.4439 45.7387 17.5929 45.7233 18.7215 46.017ZM12.3518 64.2447C13.4495 64.7394 15.2738 65.1104 16.557 65.1104C17.8557 65.1104 19.7264 64.7239 20.7931 64.2447C21.2415 64.0437 21.6434 63.8736 21.6744 63.8736C21.7053 63.8736 21.7362 66.1308 21.7362 68.8982C21.7362 71.6656 21.6898 73.9228 21.6434 73.9228C21.5971 73.9228 20.5458 73.1807 19.3089 72.2686C17.5774 71.0008 16.9435 70.6143 16.5725 70.6143C16.2014 70.6143 15.5521 71.0163 13.836 72.2686C12.5837 73.1807 11.5324 73.9228 11.4706 73.9228C11.4242 73.9228 11.3778 71.6656 11.3778 68.8982C11.3778 66.1308 11.4087 63.8736 11.4397 63.8736C11.4706 63.8736 11.8726 64.0437 12.3518 64.2447Z" fill="#8D8D8D"/>
<path d="M48.2505 8.40216C47.8331 8.47946 46.9828 8.78867 46.3798 9.06695C41.2934 11.5097 40.1493 18.1576 44.1381 22.1463C48.1268 26.1351 54.7593 24.991 57.2175 19.9046C58.7171 16.7662 58.0987 13.1485 55.6405 10.7212C53.5843 8.68045 51.0179 7.87651 48.2505 8.40216ZM52.2547 11.2778C53.4761 11.8498 54.4346 12.8238 55.0376 14.0915C55.455 14.9728 55.5169 15.2665 55.5169 16.4106C55.5014 17.5237 55.4396 17.8793 55.0685 18.6832C54.5892 19.75 53.4297 20.9559 52.4093 21.4816C50.3531 22.5174 47.8486 22.1618 46.0861 20.5694C43.6434 18.3277 43.5815 14.6481 45.9624 12.3755C47.7249 10.6748 50.0903 10.2574 52.2547 11.2778Z" fill="#8D8D8D"/>
<path d="M10.6822 16.0239C10.4348 16.2559 10.2957 16.5805 10.2957 16.8743C10.2957 17.168 10.4348 17.4927 10.6822 17.7246L11.0532 18.1111H21.2415C31.3216 18.1111 31.4453 18.1111 31.8473 17.7864C32.4193 17.3381 32.4193 16.4105 31.8473 15.9621C31.4453 15.6374 31.3216 15.6374 21.2415 15.6374H11.0532L10.6822 16.0239Z" fill="#8D8D8D"/>
<path d="M10.6822 32.1029C10.4348 32.3348 10.2957 32.6595 10.2957 32.9532C10.2957 33.247 10.4348 33.5717 10.6822 33.8036L11.0532 34.1901H25.1375H39.2218L39.5929 33.8036C39.8403 33.5717 39.9794 33.247 39.9794 32.9532C39.9794 32.6595 39.8403 32.3348 39.5929 32.1029L39.2218 31.7164H25.1375H11.0532L10.6822 32.1029Z" fill="#DA251C"/>
<path d="M10.6822 40.1421C10.4348 40.374 10.2957 40.6987 10.2957 40.9924C10.2957 41.2862 10.4348 41.6108 10.6822 41.8427L11.0532 42.2292H25.1375H39.2218L39.5929 41.8427C39.8403 41.6108 39.9794 41.2862 39.9794 40.9924C39.9794 40.6987 39.8403 40.374 39.5929 40.1421L39.2218 39.7556H25.1375H11.0532L10.6822 40.1421Z" fill="#DA251C"/>
</svg>
