<svg width="81" height="80" viewBox="0 0 81 80" fill="none" xmlns="http://www.w3.org/2000/svg">
<path d="M40.5 26.25C37.7805 26.25 35.122 27.0564 32.8609 28.5673C30.5997 30.0782 28.8373 32.2256 27.7966 34.7381C26.7559 37.2506 26.4836 40.0153 27.0142 42.6825C27.5447 45.3498 28.8543 47.7998 30.7772 49.7227C32.7002 51.6457 35.1502 52.9553 37.8175 53.4858C40.4847 54.0164 43.2494 53.7441 45.7619 52.7034C48.2743 51.6627 50.4218 49.9003 51.9327 47.6391C53.4435 45.3779 54.25 42.7195 54.25 40C54.2458 36.3546 52.7958 32.8596 50.2181 30.2819C47.6404 27.7041 44.1454 26.2542 40.5 26.25ZM40.5 51.25C38.2749 51.25 36.0999 50.5902 34.2498 49.3541C32.3997 48.1179 30.9578 46.3609 30.1063 44.3052C29.2548 42.2495 29.032 39.9875 29.4661 37.8053C29.9002 35.623 30.9717 33.6184 32.545 32.0451C34.1184 30.4717 36.1229 29.4003 38.3052 28.9662C40.4875 28.5321 42.7495 28.7549 44.8051 29.6064C46.8608 30.4579 48.6178 31.8998 49.854 33.7499C51.0902 35.5999 51.75 37.775 51.75 40C51.75 42.9837 50.5647 45.8452 48.4549 47.955C46.3451 50.0648 43.4837 51.25 40.5 51.25ZM66.7281 41.0969C66.7552 40.3656 66.7552 39.6365 66.7281 38.9094L71.675 32.725C71.7977 32.5724 71.8829 32.393 71.9236 32.2014C71.9643 32.0098 71.9594 31.8113 71.9093 31.6219C71.169 28.8538 70.0645 26.1963 68.625 23.7188C68.5285 23.5485 68.3935 23.4032 68.2306 23.2947C68.0678 23.1861 67.8817 23.1173 67.6875 23.0938L59.8156 22.2188C59.3218 21.6844 58.8031 21.1657 58.2687 20.6719L57.3968 12.8125C57.3733 12.6182 57.3045 12.4322 57.196 12.2694C57.0874 12.1065 56.9421 11.9715 56.7718 11.875C54.2975 10.4387 51.6444 9.33545 48.8812 8.59378C48.6921 8.54324 48.4937 8.53785 48.3021 8.57801C48.1105 8.61818 47.931 8.70279 47.7781 8.82503L41.5968 13.7719C40.8656 13.7427 40.1364 13.7427 39.4093 13.7719L33.2187 8.82503C33.0661 8.70225 32.8867 8.61708 32.6951 8.57637C32.5035 8.53565 32.305 8.54055 32.1156 8.59065C29.3497 9.33154 26.6942 10.436 24.2187 11.875C24.0484 11.9715 23.9032 12.1065 23.7946 12.2694C23.686 12.4322 23.6172 12.6182 23.5937 12.8125L22.7187 20.6844C22.1843 21.1782 21.6656 21.6969 21.1718 22.2313L13.3125 23.1032C13.1182 23.1267 12.9321 23.1955 12.7693 23.304C12.6065 23.4126 12.4714 23.5579 12.375 23.7282C10.9387 26.2025 9.83539 28.8556 9.09371 31.6188C9.04318 31.8079 9.03778 32.0063 9.07795 32.1979C9.11812 32.3895 9.20273 32.569 9.32496 32.7219L14.2718 38.9032C14.2427 39.6344 14.2427 40.3636 14.2718 41.0907L9.32496 47.2813C9.20219 47.4339 9.11702 47.6133 9.0763 47.8049C9.03559 47.9965 9.04049 48.195 9.09059 48.3844C9.83148 51.1503 10.9359 53.8057 12.375 56.2813C12.4714 56.4516 12.6065 56.5968 12.7693 56.7054C12.9321 56.8139 13.1182 56.8828 13.3125 56.9063L21.1843 57.7813C21.6781 58.3156 22.1968 58.8344 22.7312 59.3282L23.6062 67.2032C23.6297 67.3974 23.6985 67.5835 23.8071 67.7463C23.9156 67.9091 24.0609 68.0442 24.2312 68.1407C26.7091 69.5734 29.3654 70.6724 32.1312 71.4094C32.3204 71.4599 32.5187 71.4653 32.7103 71.4252C32.9019 71.385 33.0814 71.3004 33.2343 71.1782L39.4156 66.2313C40.1468 66.2584 40.876 66.2584 41.6031 66.2313L47.7875 71.1782C48.0091 71.3559 48.2846 71.4529 48.5687 71.4531C48.6742 71.4528 48.7792 71.4392 48.8812 71.4125C51.6484 70.6709 54.3049 69.5654 56.7812 68.125C56.9515 68.0286 57.0968 67.8935 57.2053 67.7307C57.3139 67.5679 57.3827 67.3818 57.4062 67.1875L58.2812 59.3156C58.8156 58.8219 59.3343 58.3032 59.8281 57.7688L67.7031 56.8938C67.8974 56.8703 68.0834 56.8015 68.2463 56.6929C68.4091 56.5843 68.5442 56.4391 68.6406 56.2688C70.0733 53.7909 71.1724 51.1346 71.9093 48.3688C71.9599 48.1796 71.9653 47.9813 71.9251 47.7897C71.8849 47.5981 71.8003 47.4186 71.6781 47.2657L66.7281 41.0969ZM66.7812 54.4813L59.0718 55.3375C58.7643 55.3717 58.4804 55.5186 58.275 55.75C57.6412 56.465 56.965 57.1413 56.25 57.775C56.0186 57.9804 55.8716 58.2644 55.8375 58.5719L54.9812 66.2781C53.0366 67.3531 50.978 68.2073 48.8437 68.825L42.7875 63.9781C42.5654 63.8015 42.2899 63.7056 42.0062 63.7063H41.9312C40.978 63.7657 40.022 63.7657 39.0687 63.7063C38.7595 63.6877 38.4543 63.7845 38.2125 63.9781L32.1593 68.8219C30.0241 68.2067 27.9644 67.3545 26.0187 66.2813L25.1625 58.5719C25.1283 58.2644 24.9813 57.9804 24.75 57.775C24.0349 57.1413 23.3587 56.465 22.725 55.75C22.5195 55.5186 22.2356 55.3717 21.9281 55.3375L14.2218 54.4813C13.1469 52.5367 12.2927 50.4781 11.675 48.3438L16.5218 42.2875C16.7154 42.0457 16.8123 41.7405 16.7937 41.4313C16.7375 40.4779 16.7375 39.5221 16.7937 38.5688C16.8123 38.2595 16.7154 37.9544 16.5218 37.7125L11.6781 31.6594C12.2933 29.5242 13.1455 27.4645 14.2187 25.5188L21.9281 24.6625C22.2356 24.6284 22.5195 24.4814 22.725 24.25C23.3587 23.535 24.0349 22.8588 24.75 22.225C24.9813 22.0196 25.1283 21.7357 25.1625 21.4282L26.0187 13.7219C27.9633 12.647 30.0219 11.7927 32.1562 11.175L38.2125 16.0219C38.4543 16.2155 38.7595 16.3124 39.0687 16.2938C40.022 16.2344 40.978 16.2344 41.9312 16.2938C42.2405 16.3124 42.5456 16.2155 42.7875 16.0219L48.8406 11.1782C50.9758 11.7934 53.0355 12.6455 54.9812 13.7188L55.8375 21.4282C55.8716 21.7357 56.0186 22.0196 56.25 22.225C56.965 22.8588 57.6412 23.535 58.275 24.25C58.4804 24.4814 58.7643 24.6284 59.0718 24.6625L66.7781 25.5188C67.853 27.4634 68.7072 29.522 69.325 31.6563L64.4781 37.7125C64.2845 37.9544 64.1876 38.2595 64.2062 38.5688C64.2625 39.5221 64.2625 40.4779 64.2062 41.4313C64.1876 41.7405 64.2845 42.0457 64.4781 42.2875L69.3218 48.3406C68.7066 50.4759 67.8545 52.5356 66.7812 54.4813Z" fill="#8D8D8D"/>
<path d="M52.8667 40C52.8667 46.6977 47.3508 52.1646 40.5 52.1646C33.6493 52.1646 28.1334 46.6977 28.1334 40C28.1334 33.3024 33.6493 27.8354 40.5 27.8354C47.3508 27.8354 52.8667 33.3024 52.8667 40Z" stroke="#DA251C" stroke-width="3"/>
</svg>
