<?xml version="1.0" encoding="utf-8"?>
<!-- Generator: Adobe Illustrator 27.8.1, SVG Export Plug-In . SVG Version: 6.00 Build 0)  -->
<svg version="1.1" id="Layer_1" xmlns="http://www.w3.org/2000/svg" xmlns:xlink="http://www.w3.org/1999/xlink" x="0px" y="0px"
	 viewBox="0 0 406.8 2311.1" style="enable-background:new 0 0 406.8 2311.1;" xml:space="preserve">
<style type="text/css">
	.st0{fill:#DA251C;}
	.st1{fill:#FFFFFF;}
	.st2{fill:none;stroke:#CFCFCF;stroke-width:0.888;}
	.st3{fill:none;stroke:#DA251C;}
	.st4{fill:#FBFBFB;}
	.st5{fill:none;stroke:#CFCFCF;}
	.st6{fill:#626262;}
</style>
<g>
	<circle class="st0" cx="203.4" cy="122.2" r="112.8"/>
	<path class="st1" d="M143.7,115.6v14.3c3.1-0.1,6-0.3,9.2-0.8l0.4,3.9c-4.1,0.8-7.6,0.9-11.9,0.9H139v-22.1h12.4v3.9L143.7,115.6
		L143.7,115.6z M162.2,107.8h4.5v33.6h-4.5v-16.8h-3.1v15.2h-4.5v-31.3h4.5v12.3h3.1V107.8z M183.7,127.5v6.3h5.8v-6.3H183.7z
		 M183.1,114.4v9.4h6.8v-9.4H183.1z M194.3,133.9h7.6v3.9h-30.4v-3.9h7.5v-6.3h-5v-3.8h4.4v-9.4h-4.5v-3.8h25.5v3.8h-4.5v9.4h4.4
		v3.8h-5L194.3,133.9L194.3,133.9z M227.9,107.8h4.8v33.6h-4.8V107.8z M214.7,110.1c5,0,8.8,4.6,8.8,11.9c0,7.4-3.7,12-8.8,12
		c-5,0-8.8-4.7-8.8-12S209.6,110.1,214.7,110.1z M214.7,114.5c-2.5,0-4.2,2.6-4.2,7.6s1.7,7.6,4.2,7.6s4.2-2.6,4.2-7.6
		S217.1,114.5,214.7,114.5z M250.8,110.4v4.9c0,6,2.3,12.1,7.7,14.8l-2.9,3.8c-3.5-1.7-5.9-5-7.2-9c-1.5,4.3-3.9,7.8-7.7,9.6
		l-2.8-3.9c5.7-2.6,8.2-9,8.2-15.3v-4.9L250.8,110.4L250.8,110.4z M269.6,120.7v4h-4.9v16.7h-4.8v-33.6h4.8v12.9H269.6L269.6,120.7z
		"/>
</g>
<path class="st2" d="M203.4,236.1v125.5 M399.8,361.1v1765 M203.4,361.6h195.9 M310.3,505.6h89 M310.3,945.6h89 M310.3,1760.6h89
	 M310.3,2125.6h89"/>
<path class="st3" d="M10.5,471.6h299v69h-299V471.6z"/>
<path class="st0" d="M114.9,497.7h12.8c0,8.1-3.2,14.9-12.5,19.4l-1.7-2.5c7.1-3.4,10.5-8.2,11-14.4h-9.7L114.9,497.7L114.9,497.7z
	 M132.7,494.8h3.1v27.1h-3.1C132.7,521.9,132.7,494.8,132.7,494.8z M171,502l-1.1,2.4c-4.5-0.5-8.2-2.4-9.9-5.1
	c-1.7,2.7-5.4,4.6-9.9,5.1L149,502c5.4-0.5,9.4-3.2,9.4-6.2V495h3.2v0.8C161.6,498.8,165.5,501.4,171,502z M172.2,508.3h-10.7v2.3
	h7.6v6.5h-15.4v2.2h16.2v2.4h-19.3v-6.8H166v-2h-15.5v-2.3h7.8v-2.3h-10.7v-2.5h24.5L172.2,508.3L172.2,508.3z M198.6,506.3l0.3,2.5
	c-3.9,0.6-7.2,0.7-13,0.7h-2.2v-13.1h13v2.5h-9.9v2.8h9.1v2.4h-9.1v2.9C191.9,507,195,506.9,198.6,506.3L198.6,506.3z M189.7,514.7
	v4.4h11.7v-4.4H189.7z M186.7,521.6v-9.4h17.7v9.4H186.7z M201.3,494.8h3.1v16.1h-3.1V494.8z"/>
<path class="st4" d="M10.5,546.6h299v69h-299V546.6z"/>
<path class="st5" d="M10.5,546.6h299v69h-299V546.6z"/>
<path class="st6" d="M154,580.4v-3.3h-11.1v3.3H154z M156.1,572.4v9.7h-15.2v-9.7h2v3.1H154v-3.1H156.1z M158.7,584.8v1.7h-9.2v7.5
	h-2.1v-7.5h-9.1v-1.7H158.7z M174.3,582.4l-1,1.6c-2.6-0.8-4.5-2.6-5.4-4.8c-0.9,2.5-3,4.5-5.6,5.5l-1.1-1.6
	c3.4-1.2,5.6-4.1,5.6-7.3v-0.9h-5v-1.7h12v1.7h-4.9v0.9C168.9,578.6,171,581.3,174.3,582.4z M171.6,592.3c3.3,0,5.3-0.9,5.3-2.5
	s-2-2.5-5.3-2.5c-3.4,0-5.4,0.9-5.4,2.5C166.2,591.4,168.2,592.3,171.6,592.3z M171.6,585.6c4.6,0,7.4,1.5,7.4,4.1s-2.8,4.2-7.4,4.2
	c-4.6,0-7.4-1.5-7.4-4.2C164.2,587.2,167,585.6,171.6,585.6z M178.7,577.2h3.3v1.7h-3.3v6.2h-2.1v-13.5h2.1V577.2L178.7,577.2z"/>
<path class="st4" d="M10.5,696.6h299v69h-299V696.6z"/>
<path class="st5" d="M10.5,696.6h299v69h-299V696.6z"/>
<path class="st6" d="M154,730.4v-3.3h-11.1v3.3H154z M156.1,722.4v9.7h-15.2v-9.7h2v3.1H154v-3.1H156.1z M158.7,734.8v1.7h-9.2v7.5
	h-2.1v-7.5h-9.1v-1.7H158.7z M174.3,732.4l-1,1.6c-2.6-0.8-4.5-2.6-5.4-4.8c-0.9,2.5-3,4.5-5.6,5.5l-1.1-1.6
	c3.4-1.2,5.6-4.1,5.6-7.3v-0.9h-5v-1.7h12v1.7h-4.9v0.9C168.9,728.6,171,731.3,174.3,732.4z M171.6,742.3c3.3,0,5.3-0.9,5.3-2.5
	s-2-2.5-5.3-2.5c-3.4,0-5.4,0.9-5.4,2.5C166.2,741.4,168.2,742.3,171.6,742.3z M171.6,735.6c4.6,0,7.4,1.5,7.4,4.1s-2.8,4.2-7.4,4.2
	c-4.6,0-7.4-1.5-7.4-4.2C164.2,737.2,167,735.6,171.6,735.6z M178.7,727.2h3.3v1.7h-3.3v6.2h-2.1v-13.5h2.1V727.2L178.7,727.2z"/>
<path class="st4" d="M10.5,771.6h299v69h-299V771.6z"/>
<path class="st5" d="M10.5,771.6h299v69h-299V771.6z"/>
<path class="st6" d="M154,805.4v-3.3h-11.1v3.3H154z M156.1,797.4v9.7h-15.2v-9.7h2v3.1H154v-3.1H156.1z M158.7,809.8v1.7h-9.2v7.5
	h-2.1v-7.5h-9.1v-1.7H158.7z M174.3,807.4l-1,1.6c-2.6-0.8-4.5-2.6-5.4-4.8c-0.9,2.5-3,4.5-5.6,5.5l-1.1-1.6
	c3.4-1.2,5.6-4.1,5.6-7.3v-0.9h-5v-1.7h12v1.7h-4.9v0.9C168.9,803.6,171,806.3,174.3,807.4z M171.6,817.3c3.3,0,5.3-0.9,5.3-2.5
	s-2-2.5-5.3-2.5c-3.4,0-5.4,0.9-5.4,2.5C166.2,816.4,168.2,817.3,171.6,817.3z M171.6,810.6c4.6,0,7.4,1.5,7.4,4.1s-2.8,4.2-7.4,4.2
	c-4.6,0-7.4-1.5-7.4-4.2C164.2,812.2,167,810.6,171.6,810.6z M178.7,802.2h3.3v1.7h-3.3v6.2h-2.1v-13.5h2.1V802.2L178.7,802.2z"/>
<path class="st4" d="M10.5,621.6h299v69h-299V621.6z"/>
<path class="st5" d="M10.5,621.6h299v69h-299V621.6z"/>
<path class="st6" d="M154,655.4v-3.3h-11.1v3.3H154z M156.1,647.4v9.7h-15.2v-9.7h2v3.1H154v-3.1H156.1z M158.7,659.8v1.7h-9.2v7.5
	h-2.1v-7.5h-9.1v-1.7H158.7z M174.3,657.4l-1,1.6c-2.6-0.8-4.5-2.6-5.4-4.8c-0.9,2.5-3,4.5-5.6,5.5l-1.1-1.6
	c3.4-1.2,5.6-4.1,5.6-7.3v-0.9h-5v-1.7h12v1.7h-4.9v0.9C168.9,653.6,171,656.3,174.3,657.4z M171.6,667.3c3.3,0,5.3-0.9,5.3-2.5
	s-2-2.5-5.3-2.5c-3.4,0-5.4,0.9-5.4,2.5C166.2,666.4,168.2,667.3,171.6,667.3z M171.6,660.6c4.6,0,7.4,1.5,7.4,4.1s-2.8,4.2-7.4,4.2
	c-4.6,0-7.4-1.5-7.4-4.2C164.2,662.2,167,660.6,171.6,660.6z M178.7,652.2h3.3v1.7h-3.3v6.2h-2.1v-13.5h2.1V652.2L178.7,652.2z"/>
<path class="st3" d="M10.5,911.6h299v69h-299V911.6z"/>
<path class="st0" d="M130.5,944.3v6.3h-2.9v-15.3h2.9v6.4h2.8v-6.9h2.9v16.6h-2.9v-7.2L130.5,944.3L130.5,944.3z M127,947.2
	l-1.7,2.3c-2.4-0.9-4.1-2.7-5.1-4.9c-1,2.5-2.8,4.6-5.4,5.7l-1.6-2.4c3.6-1.7,5.5-5,5.5-8.1v-3.4h3v3.4
	C121.7,942.9,123.5,945.9,127,947.2z M127.3,959.5c3.8,0,6.1-0.9,6.1-2.6s-2.3-2.6-6.1-2.6s-6.1,0.9-6.1,2.6
	C121.2,958.6,123.5,959.5,127.3,959.5z M127.3,952c5.6,0,9.2,1.9,9.2,5s-3.5,4.9-9.2,4.9s-9.2-1.9-9.2-4.9
	C118.1,953.8,121.6,952,127.3,952z M163.7,948.1l-1.6,2.5c-3-1.1-5.2-3.2-6.4-5.8c-1.2,3-3.4,5.3-6.6,6.4l-1.7-2.4
	c4.4-1.5,6.7-5.1,6.7-9.1v-3.2h3.1v3.2C157.2,943.2,159.6,946.7,163.7,948.1z M154.9,952.8v6H170v2.5h-18.2v-8.6L154.9,952.8
	L154.9,952.8z M168.9,942.9h3.8v2.6h-3.8v9.3h-3.1v-20h3.1V942.9L168.9,942.9z M198.6,946.3l0.3,2.5c-3.9,0.6-7.2,0.7-13,0.7h-2.2
	v-13.1h13v2.5h-9.9v2.8h9.1v2.4h-9.1v2.9C191.9,947,195,946.9,198.6,946.3L198.6,946.3z M189.7,954.7v4.4h11.7v-4.4H189.7z
	 M186.7,961.6v-9.4h17.7v9.4H186.7z M201.3,934.8h3.1v16.1h-3.1V934.8z"/>
<path class="st4" d="M10.5,986.6h299v69h-299V986.6z"/>
<path class="st5" d="M10.5,986.6h299v69h-299V986.6z"/>
<path class="st6" d="M142.5,1014.6v-0.2h-13.2v-1.7h15.3v1.9c0,1.8,0,3.6-0.6,5.9l-2-0.2C142.5,1018,142.5,1016.3,142.5,1014.6
	L142.5,1014.6z M136.9,1032.3c3.5,0,5.8-1,5.8-2.5c0-1.6-2.2-2.6-5.8-2.6c-3.5,0-5.8,0.9-5.8,2.6
	C131.1,1031.4,133.4,1032.3,136.9,1032.3z M136.9,1025.7c4.8,0,7.8,1.5,7.8,4.1s-3.1,4.1-7.8,4.1s-7.8-1.6-7.8-4.1
	C129.1,1027.2,132.1,1025.7,136.9,1025.7z M137.2,1022h9.9v1.7h-20.2v-1.7h8.3v-4.3h2.1v4.3H137.2z M162.8,1022.4l-1,1.6
	c-2.6-0.8-4.5-2.6-5.4-4.8c-0.9,2.6-3,4.6-5.6,5.5l-1.1-1.6c3.4-1.2,5.6-4.1,5.6-7.3v-0.9h-5v-1.7h12v1.7h-4.9v0.9
	C157.4,1018.7,159.5,1021.3,162.8,1022.4z M160.1,1032.3c3.3,0,5.3-0.9,5.3-2.5s-2-2.5-5.3-2.5c-3.4,0-5.4,0.9-5.4,2.5
	C154.8,1031.4,156.8,1032.3,160.1,1032.3z M160.1,1025.7c4.6,0,7.4,1.5,7.4,4.1s-2.8,4.2-7.4,4.2c-4.6,0-7.4-1.5-7.4-4.2
	C152.7,1027.2,155.5,1025.7,160.1,1025.7z M167.2,1017.2h3.3v1.7h-3.3v6.2h-2.1v-13.5h2.1V1017.2z M185.8,1022.4l-1,1.6
	c-2.6-0.8-4.5-2.6-5.4-4.8c-0.9,2.6-3,4.6-5.6,5.5l-1.1-1.6c3.4-1.2,5.6-4.1,5.6-7.3v-0.9h-5v-1.7h12v1.7h-4.9v0.9
	C180.4,1018.7,182.5,1021.3,185.8,1022.4z M183.1,1032.3c3.3,0,5.3-0.9,5.3-2.5s-2-2.5-5.3-2.5c-3.4,0-5.4,0.9-5.4,2.5
	C177.7,1031.4,179.7,1032.3,183.1,1032.3z M183.1,1025.7c4.6,0,7.4,1.5,7.4,4.1s-2.8,4.2-7.4,4.2c-4.6,0-7.4-1.5-7.4-4.2
	C175.7,1027.2,178.5,1025.7,183.1,1025.7z M190.2,1017.2h3.3v1.7h-3.3v6.2h-2.1v-13.5h2.1V1017.2z"/>
<path class="st4" d="M10.5,1211.6h299v69h-299V1211.6z"/>
<path class="st5" d="M10.5,1211.6h299v69h-299V1211.6z"/>
<path class="st6" d="M142.5,1239.6v-0.2h-13.2v-1.7h15.3v1.9c0,1.8,0,3.6-0.6,5.9l-2-0.2C142.5,1243,142.5,1241.3,142.5,1239.6
	L142.5,1239.6z M136.9,1257.3c3.5,0,5.8-1,5.8-2.5c0-1.6-2.2-2.6-5.8-2.6c-3.5,0-5.8,0.9-5.8,2.6
	C131.1,1256.4,133.4,1257.3,136.9,1257.3z M136.9,1250.7c4.8,0,7.8,1.5,7.8,4.1s-3.1,4.1-7.8,4.1s-7.8-1.6-7.8-4.1
	C129.1,1252.2,132.1,1250.7,136.9,1250.7z M137.2,1247h9.9v1.7h-20.2v-1.7h8.3v-4.3h2.1v4.3H137.2z M162.8,1247.4l-1,1.6
	c-2.6-0.8-4.5-2.6-5.4-4.8c-0.9,2.6-3,4.6-5.6,5.5l-1.1-1.6c3.4-1.2,5.6-4.1,5.6-7.3v-0.9h-5v-1.7h12v1.7h-4.9v0.9
	C157.4,1243.7,159.5,1246.3,162.8,1247.4z M160.1,1257.3c3.3,0,5.3-0.9,5.3-2.5s-2-2.5-5.3-2.5c-3.4,0-5.4,0.9-5.4,2.5
	C154.8,1256.4,156.8,1257.3,160.1,1257.3z M160.1,1250.7c4.6,0,7.4,1.5,7.4,4.1s-2.8,4.2-7.4,4.2c-4.6,0-7.4-1.5-7.4-4.2
	C152.7,1252.2,155.5,1250.7,160.1,1250.7z M167.2,1242.2h3.3v1.7h-3.3v6.2h-2.1v-13.5h2.1V1242.2z M185.8,1247.4l-1,1.6
	c-2.6-0.8-4.5-2.6-5.4-4.8c-0.9,2.6-3,4.6-5.6,5.5l-1.1-1.6c3.4-1.2,5.6-4.1,5.6-7.3v-0.9h-5v-1.7h12v1.7h-4.9v0.9
	C180.4,1243.7,182.5,1246.3,185.8,1247.4z M183.1,1257.3c3.3,0,5.3-0.9,5.3-2.5s-2-2.5-5.3-2.5c-3.4,0-5.4,0.9-5.4,2.5
	C177.7,1256.4,179.7,1257.3,183.1,1257.3z M183.1,1250.7c4.6,0,7.4,1.5,7.4,4.1s-2.8,4.2-7.4,4.2c-4.6,0-7.4-1.5-7.4-4.2
	C175.7,1252.2,178.5,1250.7,183.1,1250.7z M190.2,1242.2h3.3v1.7h-3.3v6.2h-2.1v-13.5h2.1V1242.2z"/>
<path class="st4" d="M10.5,1436.6h299v69h-299V1436.6z"/>
<path class="st5" d="M10.5,1436.6h299v69h-299V1436.6z"/>
<path class="st6" d="M142.5,1464.6v-0.2h-13.2v-1.7h15.3v1.9c0,1.8,0,3.6-0.6,5.9l-2-0.2C142.5,1468,142.5,1466.3,142.5,1464.6
	L142.5,1464.6z M136.9,1482.3c3.5,0,5.8-1,5.8-2.5c0-1.6-2.2-2.6-5.8-2.6c-3.5,0-5.8,0.9-5.8,2.6
	C131.1,1481.4,133.4,1482.3,136.9,1482.3z M136.9,1475.7c4.8,0,7.8,1.5,7.8,4.1s-3.1,4.1-7.8,4.1s-7.8-1.6-7.8-4.1
	C129.1,1477.2,132.1,1475.7,136.9,1475.7z M137.2,1472h9.9v1.7h-20.2v-1.7h8.3v-4.3h2.1v4.3H137.2z M162.8,1472.4l-1,1.6
	c-2.6-0.8-4.5-2.6-5.4-4.8c-0.9,2.6-3,4.6-5.6,5.5l-1.1-1.6c3.4-1.2,5.6-4.1,5.6-7.3v-0.9h-5v-1.7h12v1.7h-4.9v0.9
	C157.4,1468.7,159.5,1471.3,162.8,1472.4z M160.1,1482.3c3.3,0,5.3-0.9,5.3-2.5s-2-2.5-5.3-2.5c-3.4,0-5.4,0.9-5.4,2.5
	C154.8,1481.4,156.8,1482.3,160.1,1482.3z M160.1,1475.7c4.6,0,7.4,1.5,7.4,4.1s-2.8,4.2-7.4,4.2c-4.6,0-7.4-1.5-7.4-4.2
	C152.7,1477.2,155.5,1475.7,160.1,1475.7z M167.2,1467.2h3.3v1.7h-3.3v6.2h-2.1v-13.5h2.1V1467.2z M185.8,1472.4l-1,1.6
	c-2.6-0.8-4.5-2.6-5.4-4.8c-0.9,2.6-3,4.6-5.6,5.5l-1.1-1.6c3.4-1.2,5.6-4.1,5.6-7.3v-0.9h-5v-1.7h12v1.7h-4.9v0.9
	C180.4,1468.7,182.5,1471.3,185.8,1472.4z M183.1,1482.3c3.3,0,5.3-0.9,5.3-2.5s-2-2.5-5.3-2.5c-3.4,0-5.4,0.9-5.4,2.5
	C177.7,1481.4,179.7,1482.3,183.1,1482.3z M183.1,1475.7c4.6,0,7.4,1.5,7.4,4.1s-2.8,4.2-7.4,4.2c-4.6,0-7.4-1.5-7.4-4.2
	C175.7,1477.2,178.5,1475.7,183.1,1475.7z M190.2,1467.2h3.3v1.7h-3.3v6.2h-2.1v-13.5h2.1V1467.2z"/>
<path class="st4" d="M10.5,1136.6h299v69h-299V1136.6z"/>
<path class="st5" d="M10.5,1136.6h299v69h-299V1136.6z"/>
<path class="st6" d="M142.5,1164.6v-0.2h-13.2v-1.7h15.3v1.9c0,1.8,0,3.6-0.6,5.9l-2-0.2C142.5,1168,142.5,1166.3,142.5,1164.6
	L142.5,1164.6z M136.9,1182.3c3.5,0,5.8-1,5.8-2.5c0-1.6-2.2-2.6-5.8-2.6c-3.5,0-5.8,0.9-5.8,2.6
	C131.1,1181.4,133.4,1182.3,136.9,1182.3z M136.9,1175.7c4.8,0,7.8,1.5,7.8,4.1s-3.1,4.1-7.8,4.1s-7.8-1.6-7.8-4.1
	C129.1,1177.2,132.1,1175.7,136.9,1175.7z M137.2,1172h9.9v1.7h-20.2v-1.7h8.3v-4.3h2.1v4.3H137.2z M162.8,1172.4l-1,1.6
	c-2.6-0.8-4.5-2.6-5.4-4.8c-0.9,2.6-3,4.6-5.6,5.5l-1.1-1.6c3.4-1.2,5.6-4.1,5.6-7.3v-0.9h-5v-1.7h12v1.7h-4.9v0.9
	C157.4,1168.7,159.5,1171.3,162.8,1172.4z M160.1,1182.3c3.3,0,5.3-0.9,5.3-2.5s-2-2.5-5.3-2.5c-3.4,0-5.4,0.9-5.4,2.5
	C154.8,1181.4,156.8,1182.3,160.1,1182.3z M160.1,1175.7c4.6,0,7.4,1.5,7.4,4.1s-2.8,4.2-7.4,4.2c-4.6,0-7.4-1.5-7.4-4.2
	C152.7,1177.2,155.5,1175.7,160.1,1175.7z M167.2,1167.2h3.3v1.7h-3.3v6.2h-2.1v-13.5h2.1V1167.2z M185.8,1172.4l-1,1.6
	c-2.6-0.8-4.5-2.6-5.4-4.8c-0.9,2.6-3,4.6-5.6,5.5l-1.1-1.6c3.4-1.2,5.6-4.1,5.6-7.3v-0.9h-5v-1.7h12v1.7h-4.9v0.9
	C180.4,1168.7,182.5,1171.3,185.8,1172.4z M183.1,1182.3c3.3,0,5.3-0.9,5.3-2.5s-2-2.5-5.3-2.5c-3.4,0-5.4,0.9-5.4,2.5
	C177.7,1181.4,179.7,1182.3,183.1,1182.3z M183.1,1175.7c4.6,0,7.4,1.5,7.4,4.1s-2.8,4.2-7.4,4.2c-4.6,0-7.4-1.5-7.4-4.2
	C175.7,1177.2,178.5,1175.7,183.1,1175.7z M190.2,1167.2h3.3v1.7h-3.3v6.2h-2.1v-13.5h2.1V1167.2z"/>
<path class="st4" d="M10.5,1361.6h299v69h-299V1361.6z"/>
<path class="st5" d="M10.5,1361.6h299v69h-299V1361.6z"/>
<path class="st6" d="M142.5,1389.6v-0.2h-13.2v-1.7h15.3v1.9c0,1.8,0,3.6-0.6,5.9l-2-0.2C142.5,1393,142.5,1391.3,142.5,1389.6
	L142.5,1389.6z M136.9,1407.3c3.5,0,5.8-1,5.8-2.5c0-1.6-2.2-2.6-5.8-2.6c-3.5,0-5.8,0.9-5.8,2.6
	C131.1,1406.4,133.4,1407.3,136.9,1407.3z M136.9,1400.7c4.8,0,7.8,1.5,7.8,4.1s-3.1,4.1-7.8,4.1s-7.8-1.6-7.8-4.1
	C129.1,1402.2,132.1,1400.7,136.9,1400.7z M137.2,1397h9.9v1.7h-20.2v-1.7h8.3v-4.3h2.1v4.3H137.2z M162.8,1397.4l-1,1.6
	c-2.6-0.8-4.5-2.6-5.4-4.8c-0.9,2.6-3,4.6-5.6,5.5l-1.1-1.6c3.4-1.2,5.6-4.1,5.6-7.3v-0.9h-5v-1.7h12v1.7h-4.9v0.9
	C157.4,1393.7,159.5,1396.3,162.8,1397.4z M160.1,1407.3c3.3,0,5.3-0.9,5.3-2.5s-2-2.5-5.3-2.5c-3.4,0-5.4,0.9-5.4,2.5
	C154.8,1406.4,156.8,1407.3,160.1,1407.3z M160.1,1400.7c4.6,0,7.4,1.5,7.4,4.1s-2.8,4.2-7.4,4.2c-4.6,0-7.4-1.5-7.4-4.2
	C152.7,1402.2,155.5,1400.7,160.1,1400.7z M167.2,1392.2h3.3v1.7h-3.3v6.2h-2.1v-13.5h2.1V1392.2z M185.8,1397.4l-1,1.6
	c-2.6-0.8-4.5-2.6-5.4-4.8c-0.9,2.6-3,4.6-5.6,5.5l-1.1-1.6c3.4-1.2,5.6-4.1,5.6-7.3v-0.9h-5v-1.7h12v1.7h-4.9v0.9
	C180.4,1393.7,182.5,1396.3,185.8,1397.4z M183.1,1407.3c3.3,0,5.3-0.9,5.3-2.5s-2-2.5-5.3-2.5c-3.4,0-5.4,0.9-5.4,2.5
	C177.7,1406.4,179.7,1407.3,183.1,1407.3z M183.1,1400.7c4.6,0,7.4,1.5,7.4,4.1s-2.8,4.2-7.4,4.2c-4.6,0-7.4-1.5-7.4-4.2
	C175.7,1402.2,178.5,1400.7,183.1,1400.7z M190.2,1392.2h3.3v1.7h-3.3v6.2h-2.1v-13.5h2.1V1392.2z"/>
<path class="st4" d="M10.5,1586.6h299v69h-299V1586.6z"/>
<path class="st5" d="M10.5,1586.6h299v69h-299V1586.6z"/>
<path class="st6" d="M142.5,1614.6v-0.2h-13.2v-1.7h15.3v1.9c0,1.8,0,3.6-0.6,5.9l-2-0.2C142.5,1618,142.5,1616.3,142.5,1614.6
	L142.5,1614.6z M136.9,1632.3c3.5,0,5.8-1,5.8-2.5c0-1.6-2.2-2.6-5.8-2.6c-3.5,0-5.8,0.9-5.8,2.6
	C131.1,1631.4,133.4,1632.3,136.9,1632.3z M136.9,1625.7c4.8,0,7.8,1.5,7.8,4.1s-3.1,4.1-7.8,4.1s-7.8-1.6-7.8-4.1
	C129.1,1627.2,132.1,1625.7,136.9,1625.7z M137.2,1622h9.9v1.7h-20.2v-1.7h8.3v-4.3h2.1v4.3H137.2z M162.8,1622.4l-1,1.6
	c-2.6-0.8-4.5-2.6-5.4-4.8c-0.9,2.6-3,4.6-5.6,5.5l-1.1-1.6c3.4-1.2,5.6-4.1,5.6-7.3v-0.9h-5v-1.7h12v1.7h-4.9v0.9
	C157.4,1618.7,159.5,1621.3,162.8,1622.4z M160.1,1632.3c3.3,0,5.3-0.9,5.3-2.5s-2-2.5-5.3-2.5c-3.4,0-5.4,0.9-5.4,2.5
	C154.8,1631.4,156.8,1632.3,160.1,1632.3z M160.1,1625.7c4.6,0,7.4,1.5,7.4,4.1s-2.8,4.2-7.4,4.2c-4.6,0-7.4-1.5-7.4-4.2
	C152.7,1627.2,155.5,1625.7,160.1,1625.7z M167.2,1617.2h3.3v1.7h-3.3v6.2h-2.1v-13.5h2.1V1617.2z M185.8,1622.4l-1,1.6
	c-2.6-0.8-4.5-2.6-5.4-4.8c-0.9,2.6-3,4.6-5.6,5.5l-1.1-1.6c3.4-1.2,5.6-4.1,5.6-7.3v-0.9h-5v-1.7h12v1.7h-4.9v0.9
	C180.4,1618.7,182.5,1621.3,185.8,1622.4z M183.1,1632.3c3.3,0,5.3-0.9,5.3-2.5s-2-2.5-5.3-2.5c-3.4,0-5.4,0.9-5.4,2.5
	C177.7,1631.4,179.7,1632.3,183.1,1632.3z M183.1,1625.7c4.6,0,7.4,1.5,7.4,4.1s-2.8,4.2-7.4,4.2c-4.6,0-7.4-1.5-7.4-4.2
	C175.7,1627.2,178.5,1625.7,183.1,1625.7z M190.2,1617.2h3.3v1.7h-3.3v6.2h-2.1v-13.5h2.1V1617.2z"/>
<path class="st4" d="M10.5,1061.6h299v69h-299V1061.6z"/>
<path class="st5" d="M10.5,1061.6h299v69h-299V1061.6z"/>
<path class="st6" d="M142.5,1089.6v-0.2h-13.2v-1.7h15.3v1.9c0,1.8,0,3.6-0.6,5.9l-2-0.2C142.5,1093,142.5,1091.3,142.5,1089.6
	L142.5,1089.6z M136.9,1107.3c3.5,0,5.8-1,5.8-2.5c0-1.6-2.2-2.6-5.8-2.6c-3.5,0-5.8,0.9-5.8,2.6
	C131.1,1106.4,133.4,1107.3,136.9,1107.3z M136.9,1100.7c4.8,0,7.8,1.5,7.8,4.1s-3.1,4.1-7.8,4.1s-7.8-1.6-7.8-4.1
	C129.1,1102.2,132.1,1100.7,136.9,1100.7z M137.2,1097h9.9v1.7h-20.2v-1.7h8.3v-4.3h2.1v4.3H137.2z M162.8,1097.4l-1,1.6
	c-2.6-0.8-4.5-2.6-5.4-4.8c-0.9,2.6-3,4.6-5.6,5.5l-1.1-1.6c3.4-1.2,5.6-4.1,5.6-7.3v-0.9h-5v-1.7h12v1.7h-4.9v0.9
	C157.4,1093.7,159.5,1096.3,162.8,1097.4z M160.1,1107.3c3.3,0,5.3-0.9,5.3-2.5s-2-2.5-5.3-2.5c-3.4,0-5.4,0.9-5.4,2.5
	C154.8,1106.4,156.8,1107.3,160.1,1107.3z M160.1,1100.7c4.6,0,7.4,1.5,7.4,4.1s-2.8,4.2-7.4,4.2c-4.6,0-7.4-1.5-7.4-4.2
	C152.7,1102.2,155.5,1100.7,160.1,1100.7z M167.2,1092.2h3.3v1.7h-3.3v6.2h-2.1v-13.5h2.1V1092.2z M185.8,1097.4l-1,1.6
	c-2.6-0.8-4.5-2.6-5.4-4.8c-0.9,2.6-3,4.6-5.6,5.5l-1.1-1.6c3.4-1.2,5.6-4.1,5.6-7.3v-0.9h-5v-1.7h12v1.7h-4.9v0.9
	C180.4,1093.7,182.5,1096.3,185.8,1097.4z M183.1,1107.3c3.3,0,5.3-0.9,5.3-2.5s-2-2.5-5.3-2.5c-3.4,0-5.4,0.9-5.4,2.5
	C177.7,1106.4,179.7,1107.3,183.1,1107.3z M183.1,1100.7c4.6,0,7.4,1.5,7.4,4.1s-2.8,4.2-7.4,4.2c-4.6,0-7.4-1.5-7.4-4.2
	C175.7,1102.2,178.5,1100.7,183.1,1100.7z M190.2,1092.2h3.3v1.7h-3.3v6.2h-2.1v-13.5h2.1V1092.2z"/>
<path class="st4" d="M10.5,1286.6h299v69h-299V1286.6z"/>
<path class="st5" d="M10.5,1286.6h299v69h-299V1286.6z"/>
<path class="st6" d="M142.5,1314.6v-0.2h-13.2v-1.7h15.3v1.9c0,1.8,0,3.6-0.6,5.9l-2-0.2C142.5,1318,142.5,1316.3,142.5,1314.6
	L142.5,1314.6z M136.9,1332.3c3.5,0,5.8-1,5.8-2.5c0-1.6-2.2-2.6-5.8-2.6c-3.5,0-5.8,0.9-5.8,2.6
	C131.1,1331.4,133.4,1332.3,136.9,1332.3z M136.9,1325.7c4.8,0,7.8,1.5,7.8,4.1s-3.1,4.1-7.8,4.1s-7.8-1.6-7.8-4.1
	C129.1,1327.2,132.1,1325.7,136.9,1325.7z M137.2,1322h9.9v1.7h-20.2v-1.7h8.3v-4.3h2.1v4.3H137.2z M162.8,1322.4l-1,1.6
	c-2.6-0.8-4.5-2.6-5.4-4.8c-0.9,2.6-3,4.6-5.6,5.5l-1.1-1.6c3.4-1.2,5.6-4.1,5.6-7.3v-0.9h-5v-1.7h12v1.7h-4.9v0.9
	C157.4,1318.7,159.5,1321.3,162.8,1322.4z M160.1,1332.3c3.3,0,5.3-0.9,5.3-2.5s-2-2.5-5.3-2.5c-3.4,0-5.4,0.9-5.4,2.5
	C154.8,1331.4,156.8,1332.3,160.1,1332.3z M160.1,1325.7c4.6,0,7.4,1.5,7.4,4.1s-2.8,4.2-7.4,4.2c-4.6,0-7.4-1.5-7.4-4.2
	C152.7,1327.2,155.5,1325.7,160.1,1325.7z M167.2,1317.2h3.3v1.7h-3.3v6.2h-2.1v-13.5h2.1V1317.2z M185.8,1322.4l-1,1.6
	c-2.6-0.8-4.5-2.6-5.4-4.8c-0.9,2.6-3,4.6-5.6,5.5l-1.1-1.6c3.4-1.2,5.6-4.1,5.6-7.3v-0.9h-5v-1.7h12v1.7h-4.9v0.9
	C180.4,1318.7,182.5,1321.3,185.8,1322.4z M183.1,1332.3c3.3,0,5.3-0.9,5.3-2.5s-2-2.5-5.3-2.5c-3.4,0-5.4,0.9-5.4,2.5
	C177.7,1331.4,179.7,1332.3,183.1,1332.3z M183.1,1325.7c4.6,0,7.4,1.5,7.4,4.1s-2.8,4.2-7.4,4.2c-4.6,0-7.4-1.5-7.4-4.2
	C175.7,1327.2,178.5,1325.7,183.1,1325.7z M190.2,1317.2h3.3v1.7h-3.3v6.2h-2.1v-13.5h2.1V1317.2z"/>
<path class="st4" d="M10.5,1511.6h299v69h-299V1511.6z"/>
<path class="st5" d="M10.5,1511.6h299v69h-299V1511.6z"/>
<path class="st6" d="M142.5,1539.6v-0.2h-13.2v-1.7h15.3v1.9c0,1.8,0,3.6-0.6,5.9l-2-0.2C142.5,1543,142.5,1541.3,142.5,1539.6
	L142.5,1539.6z M136.9,1557.3c3.5,0,5.8-1,5.8-2.5c0-1.6-2.2-2.6-5.8-2.6c-3.5,0-5.8,0.9-5.8,2.6
	C131.1,1556.4,133.4,1557.3,136.9,1557.3z M136.9,1550.7c4.8,0,7.8,1.5,7.8,4.1s-3.1,4.1-7.8,4.1s-7.8-1.6-7.8-4.1
	C129.1,1552.2,132.1,1550.7,136.9,1550.7z M137.2,1547h9.9v1.7h-20.2v-1.7h8.3v-4.3h2.1v4.3H137.2z M162.8,1547.4l-1,1.6
	c-2.6-0.8-4.5-2.6-5.4-4.8c-0.9,2.6-3,4.6-5.6,5.5l-1.1-1.6c3.4-1.2,5.6-4.1,5.6-7.3v-0.9h-5v-1.7h12v1.7h-4.9v0.9
	C157.4,1543.7,159.5,1546.3,162.8,1547.4z M160.1,1557.3c3.3,0,5.3-0.9,5.3-2.5s-2-2.5-5.3-2.5c-3.4,0-5.4,0.9-5.4,2.5
	C154.8,1556.4,156.8,1557.3,160.1,1557.3z M160.1,1550.7c4.6,0,7.4,1.5,7.4,4.1s-2.8,4.2-7.4,4.2c-4.6,0-7.4-1.5-7.4-4.2
	C152.7,1552.2,155.5,1550.7,160.1,1550.7z M167.2,1542.2h3.3v1.7h-3.3v6.2h-2.1v-13.5h2.1V1542.2z M185.8,1547.4l-1,1.6
	c-2.6-0.8-4.5-2.6-5.4-4.8c-0.9,2.6-3,4.6-5.6,5.5l-1.1-1.6c3.4-1.2,5.6-4.1,5.6-7.3v-0.9h-5v-1.7h12v1.7h-4.9v0.9
	C180.4,1543.7,182.5,1546.3,185.8,1547.4z M183.1,1557.3c3.3,0,5.3-0.9,5.3-2.5s-2-2.5-5.3-2.5c-3.4,0-5.4,0.9-5.4,2.5
	C177.7,1556.4,179.7,1557.3,183.1,1557.3z M183.1,1550.7c4.6,0,7.4,1.5,7.4,4.1s-2.8,4.2-7.4,4.2c-4.6,0-7.4-1.5-7.4-4.2
	C175.7,1552.2,178.5,1550.7,183.1,1550.7z M190.2,1542.2h3.3v1.7h-3.3v6.2h-2.1v-13.5h2.1V1542.2z"/>
<path class="st3" d="M10.5,1726.6h299v69h-299V1726.6z"/>
<path class="st0" d="M107.9,1758.1v-5h-6.2v5H107.9z M98.5,1758.1v-5h-3.8v-2.5h20.1v2.5H111v5h3.7v2.5H94.8v-2.5H98.5L98.5,1758.1z
	 M111,1774.1v-3.7H98.5v3.7H111z M117,1765.2h-10.7v2.8h7.7v8.6H95.4v-8.6h7.8v-2.8H92.5v-2.5H117V1765.2z M142.5,1749.8v14h-3.1
	v-14H142.5z M136.8,1761l-1.4,2.4c-3.2-0.9-5.5-2.9-6.8-5.4c-1.2,2.8-3.6,4.9-6.9,6l-1.5-2.4c4.2-1.3,6.7-4.5,6.7-7.8H121v-2.5h15
	v2.5h-5.8C130.3,1756.9,132.7,1759.8,136.8,1761z M127.8,1774.3h15.5v2.4h-18.5v-7h14.6v-2.3h-14.7v-2.3h17.8v6.8h-14.7
	L127.8,1774.3L127.8,1774.3z M162,1761.4l-3-0.3c0.5-2.9,0.6-5,0.7-6.7h-10.6v-2.5h13.6v1.6C162.7,1755.3,162.7,1757.9,162,1761.4
	L162,1761.4z M164.3,1762.8l0.2,2.2c-5.6,1-12,1.1-16.7,1.1l-0.3-2.5c1.6,0,3.5,0,5.4-0.1v-5.6h3.1v5.5
	C158.7,1763.4,161.6,1763.2,164.3,1762.8L164.3,1762.8z M154.6,1768.4v5.5h15.3v2.5h-18.4v-8H154.6z M169.1,1758.4h3.6v2.6h-3.6v9.2
	H166v-20.3h3.1V1758.4z M180,1762.3v5.7c4.3,0,8-0.2,12.3-0.9l0.3,2.5c-4.6,0.8-8.7,1-13.5,1h-2.3v-10.7h9.4v-5h-9.5v-2.5h12.6v10.1
	L180,1762.3L180,1762.3z M194.6,1749.8h3.1v27.2h-3.1V1749.8z M219.4,1761.3l0.3,2.5c-3.9,0.6-7.2,0.7-13,0.7h-2.2v-13.1h13v2.5
	h-9.9v2.8h9.1v2.4h-9.1v2.9C212.7,1762,215.8,1761.9,219.4,1761.3L219.4,1761.3z M210.5,1769.7v4.4h11.7v-4.4H210.5z M207.5,1776.6
	v-9.4h17.7v9.4H207.5z M222.2,1749.8h3.1v16.1h-3.1V1749.8z"/>
<path class="st4" d="M10.5,1801.6h299v69h-299V1801.6z"/>
<path class="st5" d="M10.5,1801.6h299v69h-299V1801.6z"/>
<path class="st6" d="M152.1,1836.3l0.2,1.6c-3.3,0.6-6,0.7-10.9,0.7h-1.8v-10.7h10.7v1.7h-8.6v2.8h8v1.6h-8v2.9
	C146.3,1836.9,149,1836.8,152.1,1836.3L152.1,1836.3z M144.2,1842.7v4.3h10.5v-4.3H144.2z M142.2,1848.7v-7.6h14.5v7.6H142.2z
	 M154.7,1826.6h2.1v13.4h-2.1V1826.6z M174.3,1837.4l-1,1.6c-2.6-0.8-4.5-2.6-5.4-4.8c-0.9,2.6-3,4.6-5.6,5.5l-1.1-1.6
	c3.4-1.2,5.6-4.1,5.6-7.3v-0.9h-5v-1.7h12v1.7h-4.9v0.9C168.9,1833.7,171,1836.3,174.3,1837.4z M171.6,1847.3c3.3,0,5.3-0.9,5.3-2.5
	s-2-2.5-5.3-2.5c-3.4,0-5.4,0.9-5.4,2.5C166.2,1846.4,168.2,1847.3,171.6,1847.3z M171.6,1840.7c4.6,0,7.4,1.5,7.4,4.1
	s-2.8,4.2-7.4,4.2c-4.6,0-7.4-1.5-7.4-4.2C164.2,1842.2,167,1840.7,171.6,1840.7z M178.7,1832.2h3.3v1.7h-3.3v6.2h-2.1v-13.5h2.1
	V1832.2z"/>
<path class="st4" d="M10.5,1876.6h299v69h-299V1876.6z"/>
<path class="st5" d="M10.5,1876.6h299v69h-299V1876.6z"/>
<path class="st6" d="M152.1,1911.3l0.2,1.6c-3.3,0.6-6,0.7-10.9,0.7h-1.8v-10.7h10.7v1.7h-8.6v2.8h8v1.6h-8v2.9
	C146.3,1911.9,149,1911.8,152.1,1911.3L152.1,1911.3z M144.2,1917.7v4.3h10.5v-4.3H144.2z M142.2,1923.7v-7.6h14.5v7.6H142.2z
	 M154.7,1901.6h2.1v13.4h-2.1V1901.6z M174.3,1912.4l-1,1.6c-2.6-0.8-4.5-2.6-5.4-4.8c-0.9,2.6-3,4.6-5.6,5.5l-1.1-1.6
	c3.4-1.2,5.6-4.1,5.6-7.3v-0.9h-5v-1.7h12v1.7h-4.9v0.9C168.9,1908.7,171,1911.3,174.3,1912.4z M171.6,1922.3c3.3,0,5.3-0.9,5.3-2.5
	s-2-2.5-5.3-2.5c-3.4,0-5.4,0.9-5.4,2.5C166.2,1921.4,168.2,1922.3,171.6,1922.3z M171.6,1915.7c4.6,0,7.4,1.5,7.4,4.1
	s-2.8,4.2-7.4,4.2c-4.6,0-7.4-1.5-7.4-4.2C164.2,1917.2,167,1915.7,171.6,1915.7z M178.7,1907.2h3.3v1.7h-3.3v6.2h-2.1v-13.5h2.1
	V1907.2z"/>
<path class="st4" d="M10.5,1951.6h299v69h-299V1951.6z"/>
<path class="st5" d="M10.5,1951.6h299v69h-299V1951.6z"/>
<path class="st6" d="M152.1,1986.3l0.2,1.6c-3.3,0.6-6,0.6-10.9,0.6h-1.8v-10.6h10.7v1.6h-8.6v2.8h8v1.6h-8v2.9
	C146.3,1986.9,149,1986.8,152.1,1986.3L152.1,1986.3z M144.2,1992.7v4.3h10.5v-4.3H144.2z M142.2,1998.6v-7.6h14.5v7.6H142.2z
	 M154.7,1976.5h2.1v13.4h-2.1V1976.5z M174.3,1987.4l-1,1.6c-2.6-0.8-4.5-2.6-5.4-4.8c-0.9,2.6-3,4.6-5.6,5.5l-1.1-1.6
	c3.4-1.2,5.6-4.1,5.6-7.3v-0.9h-5v-1.6h12v1.6h-4.9v0.9C168.9,1983.6,171,1986.3,174.3,1987.4z M171.6,1997.3c3.3,0,5.3-0.9,5.3-2.5
	s-2-2.5-5.3-2.5c-3.4,0-5.4,0.9-5.4,2.5C166.2,1996.4,168.2,1997.3,171.6,1997.3z M171.6,1990.6c4.6,0,7.4,1.5,7.4,4.1
	s-2.8,4.2-7.4,4.2c-4.6,0-7.4-1.5-7.4-4.2C164.2,1992.2,167,1990.6,171.6,1990.6z M178.7,1982.2h3.3v1.7h-3.3v6.1h-2.1v-13.5h2.1
	V1982.2L178.7,1982.2z"/>
<path class="st3" d="M10.5,2091.6h299v69h-299V2091.6z"/>
<path class="st0" d="M134.4,2126.4l-3-0.3c0.5-2.9,0.6-5,0.7-6.7h-10.6v-2.5h13.6v1.6C135.1,2120.3,135.1,2122.9,134.4,2126.4z
	 M136.7,2127.8l0.2,2.2c-5.6,1-12,1.1-16.7,1.1l-0.3-2.5c1.6,0,3.5,0,5.4-0.1v-5.6h3.1v5.5C131.1,2128.4,134,2128.2,136.7,2127.8
	L136.7,2127.8z M127,2133.4v5.5h15.3v2.5h-18.4v-8H127z M141.5,2123.4h3.6v2.6h-3.6v9.2h-3.1v-20.3h3.1V2123.4z M152.4,2127.3v5.7
	c4.3,0,8-0.2,12.3-0.9l0.3,2.5c-4.6,0.8-8.7,1-13.5,1h-2.3v-10.7h9.4v-5h-9.5v-2.5h12.6v10.1h-9.3V2127.3z M167,2114.8h3.1v27.2H167
	V2114.8z M191.8,2126.3l0.3,2.5c-3.9,0.6-7.2,0.7-13,0.7h-2.2v-13.1h13v2.5H180v2.8h9.1v2.4H180v2.9
	C185.1,2127,188.2,2126.9,191.8,2126.3L191.8,2126.3z M182.9,2134.7v4.4h11.7v-4.4H182.9z M179.9,2141.6v-9.4h17.7v9.4H179.9z
	 M194.6,2114.8h3.1v16.1h-3.1V2114.8z"/>
<path class="st4" d="M10.5,2166.6h299v69h-299V2166.6z"/>
<path class="st5" d="M10.5,2166.6h299v69h-299V2166.6z"/>
<path class="st6" d="M154.7,2197.3h-5.6c-1.4,3.6-4.9,6.2-9.7,7.6l-0.8-1.6c5.4-1.6,8.7-4.6,9.1-8.4h-7.9v-1.6h10.1
	c0,0.8-0.1,1.6-0.2,2.4h5.1v-4.1h2.1v13.4h-2.1v-2.9h-5.9v-1.7h5.9v-3.1L154.7,2197.3L154.7,2197.3z M149.5,2212.2
	c3.3,0,5.4-1,5.4-2.7s-2.1-2.7-5.4-2.7c-3.3,0-5.4,1-5.4,2.7S146.2,2212.2,149.5,2212.2z M149.5,2205.2c4.5,0,7.4,1.6,7.4,4.3
	s-2.9,4.3-7.4,4.3s-7.4-1.6-7.4-4.3S145,2205.2,149.5,2205.2z M164.7,2201.6v5.2c3.7,0,7-0.2,10.9-0.8l0.2,1.7
	c-4.1,0.7-7.4,0.8-11.3,0.8h-1.9v-8.6h8.2v-4.7h-8.3v-1.7h10.4v8h-8.2L164.7,2201.6L164.7,2201.6z M177.7,2191.5h2.1v22.5h-2.1
	V2191.5z"/>
<path class="st4" d="M10.5,2241.6h299v69h-299V2241.6z"/>
<path class="st5" d="M10.5,2241.6h299v69h-299V2241.6z"/>
<path class="st6" d="M154.7,2272.3h-5.6c-1.4,3.6-4.9,6.2-9.7,7.6l-0.8-1.6c5.4-1.6,8.7-4.6,9.1-8.4h-7.9v-1.6h10.1
	c0,0.8-0.1,1.6-0.2,2.4h5.1v-4.1h2.1v13.4h-2.1v-2.9h-5.9v-1.7h5.9v-3.1L154.7,2272.3L154.7,2272.3z M149.5,2287.2
	c3.3,0,5.4-1,5.4-2.7s-2.1-2.7-5.4-2.7c-3.3,0-5.4,1-5.4,2.7S146.2,2287.2,149.5,2287.2z M149.5,2280.2c4.5,0,7.4,1.6,7.4,4.3
	s-2.9,4.3-7.4,4.3s-7.4-1.6-7.4-4.3S145,2280.2,149.5,2280.2z M164.7,2276.6v5.2c3.7,0,7-0.2,10.9-0.8l0.2,1.7
	c-4.1,0.7-7.4,0.8-11.3,0.8h-1.9v-8.6h8.2v-4.7h-8.3v-1.7h10.4v8h-8.2L164.7,2276.6L164.7,2276.6z M177.7,2266.5h2.1v22.5h-2.1
	V2266.5z"/>
<circle class="st0" cx="203.4" cy="361.1" r="8"/>
</svg>
