<svg width="250" height="1794" viewBox="0 0 250 1794" fill="none" xmlns="http://www.w3.org/2000/svg">
    <circle cx="116" cy="116" r="116" fill="#DA251C"/>
    <path d="M53.648 100.364v14.896c3.268-.076 6.232-.266 9.576-.874l.38 4.066c-4.256.798-7.98.95-12.464.95h-2.432V96.298h12.958v4.066h-8.018zm19.342-8.132h4.75v35.036h-4.75V109.75h-3.154v15.884h-4.674V92.916h4.674v12.806h3.154v-13.49zm22.455 20.596v6.574h6.042v-6.574h-6.042zm-.57-13.794v9.842h7.144v-9.842h-7.144zm11.59 20.368h7.904v4.028h-31.73v-4.028h7.828v-6.574h-5.13v-3.952h4.56v-9.842h-4.75v-3.99h26.6v3.99h-4.75v9.842h4.674v3.952h-5.206v6.574zm35.147-27.17h5.016v35.112h-5.016V92.232zm-13.794 2.47c5.282 0 9.196 4.788 9.196 12.464 0 7.714-3.914 12.54-9.196 12.54s-9.196-4.826-9.196-12.54c0-7.676 3.914-12.464 9.196-12.464zm0 4.522c-2.584 0-4.37 2.774-4.37 7.942 0 5.206 1.786 7.98 4.37 7.98s4.37-2.774 4.37-7.98c0-5.168-1.786-7.942-4.37-7.942zm37.655-4.256v5.092c0 6.308 2.47 12.654 8.094 15.428l-3.04 3.952c-3.648-1.862-6.118-5.244-7.562-9.424-1.52 4.446-4.142 8.132-8.094 10.07l-3.002-4.066c5.89-2.774 8.55-9.462 8.55-15.96v-5.092h5.054zm19.608 10.754v4.18h-5.092v17.366h-5.016V92.27h5.016v13.452h5.092z" fill="#fff"/>
    <path stroke="#CFCFCF" d="M116.5 232v150M116 381.5h133M249.5 381v1291M198 526.5h51M198 841.5h51M198 1406.5h51M198 1671.5h51"/>
    <path stroke="#DA251C" d="M33.5 504.5h164v44h-164z"/>
    <path d="M91.46 521.304h6.848c0 4.304-1.728 7.952-6.688 10.352l-.88-1.312c3.792-1.824 5.584-4.368 5.872-7.696H91.46v-1.344zm9.456-1.52h1.648v14.448h-1.648v-14.448zm20.425 3.808-.56 1.264c-2.4-.288-4.368-1.28-5.296-2.72-.928 1.44-2.896 2.432-5.296 2.72l-.56-1.264c2.896-.288 5.008-1.712 5.008-3.328v-.416h1.696v.416c0 1.616 2.112 3.04 5.008 3.328zm.688 3.36h-5.728v1.216h4.08v3.488h-8.224v1.184h8.64v1.264h-10.272v-3.616h8.24v-1.072h-8.272v-1.248h4.144v-1.216h-5.696v-1.312h13.088v1.312zm14.04-1.04.16 1.312c-2.064.336-3.84.384-6.944.384h-1.2v-6.992h6.912v1.328h-5.28v1.488h4.864v1.296h-4.864v1.568c2.784 0 4.432-.064 6.352-.384zm-4.736 4.464v2.368h6.224v-2.368h-6.224zm-1.616 3.68v-4.992h9.456v4.992h-9.456zm7.808-14.272h1.648v8.608h-1.648v-8.608z" fill="#DA251C"/>
    <path fill="#FBFBFB" d="M33.5 554.5h164v44h-164z"/>
    <path stroke="#CFCFCF" d="M33.5 554.5h164v44h-164z"/>
    <path d="M112.155 575.976v-1.848h-6.23v1.848h6.23zm1.148-4.494v5.432h-8.512v-5.432h1.134v1.722h6.23v-1.722h1.148zm1.442 6.944v.924h-5.152v4.2h-1.148v-4.2h-5.096v-.924h11.396zm8.777-1.372-.546.896c-1.428-.462-2.506-1.456-3.038-2.702-.532 1.428-1.666 2.548-3.164 3.08l-.588-.91c1.89-.658 3.15-2.282 3.15-4.088v-.49h-2.814v-.924h6.734v.924h-2.772v.49c0 1.638 1.19 3.108 3.038 3.724zm-1.526 5.558c1.848 0 2.982-.518 2.982-1.414 0-.882-1.134-1.4-2.982-1.4-1.876 0-2.996.518-2.996 1.4 0 .896 1.12 1.414 2.996 1.414zm0-3.724c2.548 0 4.13.854 4.13 2.31 0 1.47-1.582 2.324-4.13 2.324-2.576 0-4.144-.854-4.144-2.324 0-1.456 1.568-2.31 4.144-2.31zm3.99-4.732h1.862v.966h-1.862v3.444h-1.148v-7.574h1.148v3.164z" fill="#626262"/>
    <path fill="#FBFBFB" d="M33.5 654.5h164v44h-164z"/>
    <path stroke="#CFCFCF" d="M33.5 654.5h164v44h-164z"/>
    <path d="M112.155 675.976v-1.848h-6.23v1.848h6.23zm1.148-4.494v5.432h-8.512v-5.432h1.134v1.722h6.23v-1.722h1.148zm1.442 6.944v.924h-5.152v4.2h-1.148v-4.2h-5.096v-.924h11.396zm8.777-1.372-.546.896c-1.428-.462-2.506-1.456-3.038-2.702-.532 1.428-1.666 2.548-3.164 3.08l-.588-.91c1.89-.658 3.15-2.282 3.15-4.088v-.49h-2.814v-.924h6.734v.924h-2.772v.49c0 1.638 1.19 3.108 3.038 3.724zm-1.526 5.558c1.848 0 2.982-.518 2.982-1.414 0-.882-1.134-1.4-2.982-1.4-1.876 0-2.996.518-2.996 1.4 0 .896 1.12 1.414 2.996 1.414zm0-3.724c2.548 0 4.13.854 4.13 2.31 0 1.47-1.582 2.324-4.13 2.324-2.576 0-4.144-.854-4.144-2.324 0-1.456 1.568-2.31 4.144-2.31zm3.99-4.732h1.862v.966h-1.862v3.444h-1.148v-7.574h1.148v3.164z" fill="#626262"/>
    <path fill="#FBFBFB" d="M33.5 704.5h164v44h-164z"/>
    <path stroke="#CFCFCF" d="M33.5 704.5h164v44h-164z"/>
    <path d="M112.155 725.976v-1.848h-6.23v1.848h6.23zm1.148-4.494v5.432h-8.512v-5.432h1.134v1.722h6.23v-1.722h1.148zm1.442 6.944v.924h-5.152v4.2h-1.148v-4.2h-5.096v-.924h11.396zm8.777-1.372-.546.896c-1.428-.462-2.506-1.456-3.038-2.702-.532 1.428-1.666 2.548-3.164 3.08l-.588-.91c1.89-.658 3.15-2.282 3.15-4.088v-.49h-2.814v-.924h6.734v.924h-2.772v.49c0 1.638 1.19 3.108 3.038 3.724zm-1.526 5.558c1.848 0 2.982-.518 2.982-1.414 0-.882-1.134-1.4-2.982-1.4-1.876 0-2.996.518-2.996 1.4 0 .896 1.12 1.414 2.996 1.414zm0-3.724c2.548 0 4.13.854 4.13 2.31 0 1.47-1.582 2.324-4.13 2.324-2.576 0-4.144-.854-4.144-2.324 0-1.456 1.568-2.31 4.144-2.31zm3.99-4.732h1.862v.966h-1.862v3.444h-1.148v-7.574h1.148v3.164z" fill="#626262"/>
    <path fill="#FBFBFB" d="M33.5 604.5h164v44h-164z"/>
    <path stroke="#CFCFCF" d="M33.5 604.5h164v44h-164z"/>
    <path d="M112.155 625.976v-1.848h-6.23v1.848h6.23zm1.148-4.494v5.432h-8.512v-5.432h1.134v1.722h6.23v-1.722h1.148zm1.442 6.944v.924h-5.152v4.2h-1.148v-4.2h-5.096v-.924h11.396zm8.777-1.372-.546.896c-1.428-.462-2.506-1.456-3.038-2.702-.532 1.428-1.666 2.548-3.164 3.08l-.588-.91c1.89-.658 3.15-2.282 3.15-4.088v-.49h-2.814v-.924h6.734v.924h-2.772v.49c0 1.638 1.19 3.108 3.038 3.724zm-1.526 5.558c1.848 0 2.982-.518 2.982-1.414 0-.882-1.134-1.4-2.982-1.4-1.876 0-2.996.518-2.996 1.4 0 .896 1.12 1.414 2.996 1.414zm0-3.724c2.548 0 4.13.854 4.13 2.31 0 1.47-1.582 2.324-4.13 2.324-2.576 0-4.144-.854-4.144-2.324 0-1.456 1.568-2.31 4.144-2.31zm3.99-4.732h1.862v.966h-1.862v3.444h-1.148v-7.574h1.148v3.164z" fill="#626262"/>
    <path stroke="#DA251C" d="M33.5 819.5h164v44h-164z"/>
    <path d="M99.78 839.84v3.36h-1.552v-8.144h1.552v3.44h1.52V834.8h1.568v8.864H101.3v-3.824h-1.52zm-1.888 1.568-.88 1.232c-1.28-.496-2.176-1.456-2.72-2.608-.528 1.328-1.472 2.448-2.864 3.056l-.864-1.264c1.936-.88 2.912-2.688 2.912-4.336v-1.824h1.6v1.824c0 1.6.944 3.184 2.816 3.92zm.16 6.56c2.032 0 3.248-.496 3.248-1.376 0-.896-1.216-1.392-3.248-1.392s-3.248.496-3.248 1.392c0 .88 1.216 1.376 3.248 1.376zm0-4.032c3.008 0 4.896.992 4.896 2.656 0 1.648-1.888 2.64-4.896 2.64s-4.896-.992-4.896-2.64c0-1.664 1.888-2.656 4.896-2.656zm19.417-2.08-.832 1.312a5.823 5.823 0 0 1-3.408-3.12c-.624 1.584-1.824 2.816-3.52 3.424l-.896-1.28c2.32-.784 3.552-2.736 3.552-4.848v-1.68h1.664v1.696c0 1.92 1.248 3.744 3.44 4.496zm-4.704 2.544v3.216h8.048v1.344h-9.696v-4.56h1.648zm7.472-5.296h2.048v1.36h-2.048v4.96h-1.648v-10.656h1.648v4.336zm15.832 1.808.16 1.312c-2.064.336-3.84.384-6.944.384h-1.2v-6.992h6.912v1.328h-5.28v1.488h4.864v1.296h-4.864v1.568c2.784 0 4.432-.064 6.352-.384zm-4.736 4.464v2.368h6.224v-2.368h-6.224zm-1.616 3.68v-4.992h9.456v4.992h-9.456zm7.808-14.272h1.648v8.608h-1.648v-8.608z" fill="#DA251C"/>
    <path fill="#FBFBFB" d="M33.5 869.5h164v44h-164z"/>
    <path stroke="#CFCFCF" d="M33.5 869.5h164v44h-164z"/>
    <path d="M105.702 887.686v-.14h-7.42v-.924h8.554v1.064c0 1.008 0 2.03-.35 3.318l-1.12-.126c.336-1.288.336-2.212.336-3.192zm-3.15 9.94c1.974 0 3.234-.532 3.234-1.4 0-.896-1.26-1.428-3.234-1.428-1.96 0-3.22.532-3.22 1.428 0 .868 1.26 1.4 3.22 1.4zm0-3.71c2.674 0 4.382.854 4.382 2.31 0 1.428-1.708 2.296-4.382 2.296-2.674 0-4.368-.868-4.368-2.296 0-1.456 1.694-2.31 4.368-2.31zm.182-2.086h5.516v.924H96.952v-.924h4.634v-2.408h1.148v2.408zm14.349.224-.546.896c-1.428-.462-2.506-1.456-3.038-2.702-.532 1.428-1.666 2.548-3.164 3.08l-.588-.91c1.89-.658 3.15-2.282 3.15-4.088v-.49h-2.814v-.924h6.734v.924h-2.772v.49c0 1.638 1.19 3.108 3.038 3.724zm-1.526 5.558c1.848 0 2.982-.518 2.982-1.414 0-.882-1.134-1.4-2.982-1.4-1.876 0-2.996.518-2.996 1.4 0 .896 1.12 1.414 2.996 1.414zm0-3.724c2.548 0 4.13.854 4.13 2.31 0 1.47-1.582 2.324-4.13 2.324-2.576 0-4.144-.854-4.144-2.324 0-1.456 1.568-2.31 4.144-2.31zm3.99-4.732h1.862v.966h-1.862v3.444h-1.148v-7.574h1.148v3.164zm10.414 2.898-.546.896c-1.428-.462-2.506-1.456-3.038-2.702-.532 1.428-1.666 2.548-3.164 3.08l-.588-.91c1.89-.658 3.15-2.282 3.15-4.088v-.49h-2.814v-.924h6.734v.924h-2.772v.49c0 1.638 1.19 3.108 3.038 3.724zm-1.526 5.558c1.848 0 2.982-.518 2.982-1.414 0-.882-1.134-1.4-2.982-1.4-1.876 0-2.996.518-2.996 1.4 0 .896 1.12 1.414 2.996 1.414zm0-3.724c2.548 0 4.13.854 4.13 2.31 0 1.47-1.582 2.324-4.13 2.324-2.576 0-4.144-.854-4.144-2.324 0-1.456 1.568-2.31 4.144-2.31zm3.99-4.732h1.862v.966h-1.862v3.444h-1.148v-7.574h1.148v3.164z" fill="#626262"/>
    <path fill="#FBFBFB" d="M33.5 1019.5h164v44h-164z"/>
    <path stroke="#CFCFCF" d="M33.5 1019.5h164v44h-164z"/>
    <path d="M105.702 1037.69v-.14h-7.42v-.93h8.554v1.07c0 1 0 2.03-.35 3.31l-1.12-.12c.336-1.29.336-2.21.336-3.19zm-3.15 9.94c1.974 0 3.234-.54 3.234-1.4 0-.9-1.26-1.43-3.234-1.43-1.96 0-3.22.53-3.22 1.43 0 .86 1.26 1.4 3.22 1.4zm0-3.71c2.674 0 4.382.85 4.382 2.31 0 1.42-1.708 2.29-4.382 2.29-2.674 0-4.368-.87-4.368-2.29 0-1.46 1.694-2.31 4.368-2.31zm.182-2.09h5.516v.92H96.952v-.92h4.634v-2.41h1.148v2.41zm14.349.22-.546.9c-1.428-.46-2.506-1.46-3.038-2.7-.532 1.43-1.666 2.55-3.164 3.08l-.588-.91c1.89-.66 3.15-2.28 3.15-4.09v-.49h-2.814v-.92h6.734v.92h-2.772v.49c0 1.64 1.19 3.11 3.038 3.72zm-1.526 5.56c1.848 0 2.982-.52 2.982-1.41 0-.88-1.134-1.4-2.982-1.4-1.876 0-2.996.52-2.996 1.4 0 .89 1.12 1.41 2.996 1.41zm0-3.72c2.548 0 4.13.85 4.13 2.31 0 1.47-1.582 2.32-4.13 2.32-2.576 0-4.144-.85-4.144-2.32 0-1.46 1.568-2.31 4.144-2.31zm3.99-4.73h1.862v.96h-1.862v3.45h-1.148v-7.58h1.148v3.17zm10.414 2.89-.546.9c-1.428-.46-2.506-1.46-3.038-2.7-.532 1.43-1.666 2.55-3.164 3.08l-.588-.91c1.89-.66 3.15-2.28 3.15-4.09v-.49h-2.814v-.92h6.734v.92h-2.772v.49c0 1.64 1.19 3.11 3.038 3.72zm-1.526 5.56c1.848 0 2.982-.52 2.982-1.41 0-.88-1.134-1.4-2.982-1.4-1.876 0-2.996.52-2.996 1.4 0 .89 1.12 1.41 2.996 1.41zm0-3.72c2.548 0 4.13.85 4.13 2.31 0 1.47-1.582 2.32-4.13 2.32-2.576 0-4.144-.85-4.144-2.32 0-1.46 1.568-2.31 4.144-2.31zm3.99-4.73h1.862v.96h-1.862v3.45h-1.148v-7.58h1.148v3.17z" fill="#626262"/>
    <path fill="#FBFBFB" d="M33.5 1169.5h164v44h-164z"/>
    <path stroke="#CFCFCF" d="M33.5 1169.5h164v44h-164z"/>
    <path d="M105.702 1187.69v-.14h-7.42v-.93h8.554v1.07c0 1 0 2.03-.35 3.31l-1.12-.12c.336-1.29.336-2.21.336-3.19zm-3.15 9.94c1.974 0 3.234-.54 3.234-1.4 0-.9-1.26-1.43-3.234-1.43-1.96 0-3.22.53-3.22 1.43 0 .86 1.26 1.4 3.22 1.4zm0-3.71c2.674 0 4.382.85 4.382 2.31 0 1.42-1.708 2.29-4.382 2.29-2.674 0-4.368-.87-4.368-2.29 0-1.46 1.694-2.31 4.368-2.31zm.182-2.09h5.516v.92H96.952v-.92h4.634v-2.41h1.148v2.41zm14.349.22-.546.9c-1.428-.46-2.506-1.46-3.038-2.7-.532 1.43-1.666 2.55-3.164 3.08l-.588-.91c1.89-.66 3.15-2.28 3.15-4.09v-.49h-2.814v-.92h6.734v.92h-2.772v.49c0 1.64 1.19 3.11 3.038 3.72zm-1.526 5.56c1.848 0 2.982-.52 2.982-1.41 0-.88-1.134-1.4-2.982-1.4-1.876 0-2.996.52-2.996 1.4 0 .89 1.12 1.41 2.996 1.41zm0-3.72c2.548 0 4.13.85 4.13 2.31 0 1.47-1.582 2.32-4.13 2.32-2.576 0-4.144-.85-4.144-2.32 0-1.46 1.568-2.31 4.144-2.31zm3.99-4.73h1.862v.96h-1.862v3.45h-1.148v-7.58h1.148v3.17zm10.414 2.89-.546.9c-1.428-.46-2.506-1.46-3.038-2.7-.532 1.43-1.666 2.55-3.164 3.08l-.588-.91c1.89-.66 3.15-2.28 3.15-4.09v-.49h-2.814v-.92h6.734v.92h-2.772v.49c0 1.64 1.19 3.11 3.038 3.72zm-1.526 5.56c1.848 0 2.982-.52 2.982-1.41 0-.88-1.134-1.4-2.982-1.4-1.876 0-2.996.52-2.996 1.4 0 .89 1.12 1.41 2.996 1.41zm0-3.72c2.548 0 4.13.85 4.13 2.31 0 1.47-1.582 2.32-4.13 2.32-2.576 0-4.144-.85-4.144-2.32 0-1.46 1.568-2.31 4.144-2.31zm3.99-4.73h1.862v.96h-1.862v3.45h-1.148v-7.58h1.148v3.17z" fill="#626262"/>
    <path fill="#FBFBFB" d="M33.5 969.5h164v44h-164z"/>
    <path stroke="#CFCFCF" d="M33.5 969.5h164v44h-164z"/>
    <path d="M105.702 987.686v-.14h-7.42v-.924h8.554v1.064c0 1.008 0 2.03-.35 3.318l-1.12-.126c.336-1.288.336-2.212.336-3.192zm-3.15 9.94c1.974 0 3.234-.532 3.234-1.4 0-.896-1.26-1.428-3.234-1.428-1.96 0-3.22.532-3.22 1.428 0 .868 1.26 1.4 3.22 1.4zm0-3.71c2.674 0 4.382.854 4.382 2.31 0 1.428-1.708 2.296-4.382 2.296-2.674 0-4.368-.868-4.368-2.296 0-1.456 1.694-2.31 4.368-2.31zm.182-2.086h5.516v.924H96.952v-.924h4.634v-2.408h1.148v2.408zm14.349.224-.546.896c-1.428-.462-2.506-1.456-3.038-2.702-.532 1.428-1.666 2.548-3.164 3.08l-.588-.91c1.89-.658 3.15-2.282 3.15-4.088v-.49h-2.814v-.924h6.734v.924h-2.772v.49c0 1.638 1.19 3.108 3.038 3.724zm-1.526 5.558c1.848 0 2.982-.518 2.982-1.414 0-.882-1.134-1.4-2.982-1.4-1.876 0-2.996.518-2.996 1.4 0 .896 1.12 1.414 2.996 1.414zm0-3.724c2.548 0 4.13.854 4.13 2.31 0 1.47-1.582 2.324-4.13 2.324-2.576 0-4.144-.854-4.144-2.324 0-1.456 1.568-2.31 4.144-2.31zm3.99-4.732h1.862v.966h-1.862v3.444h-1.148v-7.574h1.148v3.164zm10.414 2.898-.546.896c-1.428-.462-2.506-1.456-3.038-2.702-.532 1.428-1.666 2.548-3.164 3.08l-.588-.91c1.89-.658 3.15-2.282 3.15-4.088v-.49h-2.814v-.924h6.734v.924h-2.772v.49c0 1.638 1.19 3.108 3.038 3.724zm-1.526 5.558c1.848 0 2.982-.518 2.982-1.414 0-.882-1.134-1.4-2.982-1.4-1.876 0-2.996.518-2.996 1.4 0 .896 1.12 1.414 2.996 1.414zm0-3.724c2.548 0 4.13.854 4.13 2.31 0 1.47-1.582 2.324-4.13 2.324-2.576 0-4.144-.854-4.144-2.324 0-1.456 1.568-2.31 4.144-2.31zm3.99-4.732h1.862v.966h-1.862v3.444h-1.148v-7.574h1.148v3.164z" fill="#626262"/>
    <path fill="#FBFBFB" d="M33.5 1119.5h164v44h-164z"/>
    <path stroke="#CFCFCF" d="M33.5 1119.5h164v44h-164z"/>
    <path d="M105.702 1137.69v-.14h-7.42v-.93h8.554v1.07c0 1 0 2.03-.35 3.31l-1.12-.12c.336-1.29.336-2.21.336-3.19zm-3.15 9.94c1.974 0 3.234-.54 3.234-1.4 0-.9-1.26-1.43-3.234-1.43-1.96 0-3.22.53-3.22 1.43 0 .86 1.26 1.4 3.22 1.4zm0-3.71c2.674 0 4.382.85 4.382 2.31 0 1.42-1.708 2.29-4.382 2.29-2.674 0-4.368-.87-4.368-2.29 0-1.46 1.694-2.31 4.368-2.31zm.182-2.09h5.516v.92H96.952v-.92h4.634v-2.41h1.148v2.41zm14.349.22-.546.9c-1.428-.46-2.506-1.46-3.038-2.7-.532 1.43-1.666 2.55-3.164 3.08l-.588-.91c1.89-.66 3.15-2.28 3.15-4.09v-.49h-2.814v-.92h6.734v.92h-2.772v.49c0 1.64 1.19 3.11 3.038 3.72zm-1.526 5.56c1.848 0 2.982-.52 2.982-1.41 0-.88-1.134-1.4-2.982-1.4-1.876 0-2.996.52-2.996 1.4 0 .89 1.12 1.41 2.996 1.41zm0-3.72c2.548 0 4.13.85 4.13 2.31 0 1.47-1.582 2.32-4.13 2.32-2.576 0-4.144-.85-4.144-2.32 0-1.46 1.568-2.31 4.144-2.31zm3.99-4.73h1.862v.96h-1.862v3.45h-1.148v-7.58h1.148v3.17zm10.414 2.89-.546.9c-1.428-.46-2.506-1.46-3.038-2.7-.532 1.43-1.666 2.55-3.164 3.08l-.588-.91c1.89-.66 3.15-2.28 3.15-4.09v-.49h-2.814v-.92h6.734v.92h-2.772v.49c0 1.64 1.19 3.11 3.038 3.72zm-1.526 5.56c1.848 0 2.982-.52 2.982-1.41 0-.88-1.134-1.4-2.982-1.4-1.876 0-2.996.52-2.996 1.4 0 .89 1.12 1.41 2.996 1.41zm0-3.72c2.548 0 4.13.85 4.13 2.31 0 1.47-1.582 2.32-4.13 2.32-2.576 0-4.144-.85-4.144-2.32 0-1.46 1.568-2.31 4.144-2.31zm3.99-4.73h1.862v.96h-1.862v3.45h-1.148v-7.58h1.148v3.17z" fill="#626262"/>
    <path fill="#FBFBFB" d="M33.5 1269.5h164v44h-164z"/>
    <path stroke="#CFCFCF" d="M33.5 1269.5h164v44h-164z"/>
    <path d="M105.702 1287.69v-.14h-7.42v-.93h8.554v1.07c0 1 0 2.03-.35 3.31l-1.12-.12c.336-1.29.336-2.21.336-3.19zm-3.15 9.94c1.974 0 3.234-.54 3.234-1.4 0-.9-1.26-1.43-3.234-1.43-1.96 0-3.22.53-3.22 1.43 0 .86 1.26 1.4 3.22 1.4zm0-3.71c2.674 0 4.382.85 4.382 2.31 0 1.42-1.708 2.29-4.382 2.29-2.674 0-4.368-.87-4.368-2.29 0-1.46 1.694-2.31 4.368-2.31zm.182-2.09h5.516v.92H96.952v-.92h4.634v-2.41h1.148v2.41zm14.349.22-.546.9c-1.428-.46-2.506-1.46-3.038-2.7-.532 1.43-1.666 2.55-3.164 3.08l-.588-.91c1.89-.66 3.15-2.28 3.15-4.09v-.49h-2.814v-.92h6.734v.92h-2.772v.49c0 1.64 1.19 3.11 3.038 3.72zm-1.526 5.56c1.848 0 2.982-.52 2.982-1.41 0-.88-1.134-1.4-2.982-1.4-1.876 0-2.996.52-2.996 1.4 0 .89 1.12 1.41 2.996 1.41zm0-3.72c2.548 0 4.13.85 4.13 2.31 0 1.47-1.582 2.32-4.13 2.32-2.576 0-4.144-.85-4.144-2.32 0-1.46 1.568-2.31 4.144-2.31zm3.99-4.73h1.862v.96h-1.862v3.45h-1.148v-7.58h1.148v3.17zm10.414 2.89-.546.9c-1.428-.46-2.506-1.46-3.038-2.7-.532 1.43-1.666 2.55-3.164 3.08l-.588-.91c1.89-.66 3.15-2.28 3.15-4.09v-.49h-2.814v-.92h6.734v.92h-2.772v.49c0 1.64 1.19 3.11 3.038 3.72zm-1.526 5.56c1.848 0 2.982-.52 2.982-1.41 0-.88-1.134-1.4-2.982-1.4-1.876 0-2.996.52-2.996 1.4 0 .89 1.12 1.41 2.996 1.41zm0-3.72c2.548 0 4.13.85 4.13 2.31 0 1.47-1.582 2.32-4.13 2.32-2.576 0-4.144-.85-4.144-2.32 0-1.46 1.568-2.31 4.144-2.31zm3.99-4.73h1.862v.96h-1.862v3.45h-1.148v-7.58h1.148v3.17z" fill="#626262"/>
    <path fill="#FBFBFB" d="M33.5 919.5h164v44h-164z"/>
    <path stroke="#CFCFCF" d="M33.5 919.5h164v44h-164z"/>
    <path d="M105.702 937.686v-.14h-7.42v-.924h8.554v1.064c0 1.008 0 2.03-.35 3.318l-1.12-.126c.336-1.288.336-2.212.336-3.192zm-3.15 9.94c1.974 0 3.234-.532 3.234-1.4 0-.896-1.26-1.428-3.234-1.428-1.96 0-3.22.532-3.22 1.428 0 .868 1.26 1.4 3.22 1.4zm0-3.71c2.674 0 4.382.854 4.382 2.31 0 1.428-1.708 2.296-4.382 2.296-2.674 0-4.368-.868-4.368-2.296 0-1.456 1.694-2.31 4.368-2.31zm.182-2.086h5.516v.924H96.952v-.924h4.634v-2.408h1.148v2.408zm14.349.224-.546.896c-1.428-.462-2.506-1.456-3.038-2.702-.532 1.428-1.666 2.548-3.164 3.08l-.588-.91c1.89-.658 3.15-2.282 3.15-4.088v-.49h-2.814v-.924h6.734v.924h-2.772v.49c0 1.638 1.19 3.108 3.038 3.724zm-1.526 5.558c1.848 0 2.982-.518 2.982-1.414 0-.882-1.134-1.4-2.982-1.4-1.876 0-2.996.518-2.996 1.4 0 .896 1.12 1.414 2.996 1.414zm0-3.724c2.548 0 4.13.854 4.13 2.31 0 1.47-1.582 2.324-4.13 2.324-2.576 0-4.144-.854-4.144-2.324 0-1.456 1.568-2.31 4.144-2.31zm3.99-4.732h1.862v.966h-1.862v3.444h-1.148v-7.574h1.148v3.164zm10.414 2.898-.546.896c-1.428-.462-2.506-1.456-3.038-2.702-.532 1.428-1.666 2.548-3.164 3.08l-.588-.91c1.89-.658 3.15-2.282 3.15-4.088v-.49h-2.814v-.924h6.734v.924h-2.772v.49c0 1.638 1.19 3.108 3.038 3.724zm-1.526 5.558c1.848 0 2.982-.518 2.982-1.414 0-.882-1.134-1.4-2.982-1.4-1.876 0-2.996.518-2.996 1.4 0 .896 1.12 1.414 2.996 1.414zm0-3.724c2.548 0 4.13.854 4.13 2.31 0 1.47-1.582 2.324-4.13 2.324-2.576 0-4.144-.854-4.144-2.324 0-1.456 1.568-2.31 4.144-2.31zm3.99-4.732h1.862v.966h-1.862v3.444h-1.148v-7.574h1.148v3.164z" fill="#626262"/>
    <path fill="#FBFBFB" d="M33.5 1069.5h164v44h-164z"/>
    <path stroke="#CFCFCF" d="M33.5 1069.5h164v44h-164z"/>
    <path d="M105.702 1087.69v-.14h-7.42v-.93h8.554v1.07c0 1 0 2.03-.35 3.31l-1.12-.12c.336-1.29.336-2.21.336-3.19zm-3.15 9.94c1.974 0 3.234-.54 3.234-1.4 0-.9-1.26-1.43-3.234-1.43-1.96 0-3.22.53-3.22 1.43 0 .86 1.26 1.4 3.22 1.4zm0-3.71c2.674 0 4.382.85 4.382 2.31 0 1.42-1.708 2.29-4.382 2.29-2.674 0-4.368-.87-4.368-2.29 0-1.46 1.694-2.31 4.368-2.31zm.182-2.09h5.516v.92H96.952v-.92h4.634v-2.41h1.148v2.41zm14.349.22-.546.9c-1.428-.46-2.506-1.46-3.038-2.7-.532 1.43-1.666 2.55-3.164 3.08l-.588-.91c1.89-.66 3.15-2.28 3.15-4.09v-.49h-2.814v-.92h6.734v.92h-2.772v.49c0 1.64 1.19 3.11 3.038 3.72zm-1.526 5.56c1.848 0 2.982-.52 2.982-1.41 0-.88-1.134-1.4-2.982-1.4-1.876 0-2.996.52-2.996 1.4 0 .89 1.12 1.41 2.996 1.41zm0-3.72c2.548 0 4.13.85 4.13 2.31 0 1.47-1.582 2.32-4.13 2.32-2.576 0-4.144-.85-4.144-2.32 0-1.46 1.568-2.31 4.144-2.31zm3.99-4.73h1.862v.96h-1.862v3.45h-1.148v-7.58h1.148v3.17zm10.414 2.89-.546.9c-1.428-.46-2.506-1.46-3.038-2.7-.532 1.43-1.666 2.55-3.164 3.08l-.588-.91c1.89-.66 3.15-2.28 3.15-4.09v-.49h-2.814v-.92h6.734v.92h-2.772v.49c0 1.64 1.19 3.11 3.038 3.72zm-1.526 5.56c1.848 0 2.982-.52 2.982-1.41 0-.88-1.134-1.4-2.982-1.4-1.876 0-2.996.52-2.996 1.4 0 .89 1.12 1.41 2.996 1.41zm0-3.72c2.548 0 4.13.85 4.13 2.31 0 1.47-1.582 2.32-4.13 2.32-2.576 0-4.144-.85-4.144-2.32 0-1.46 1.568-2.31 4.144-2.31zm3.99-4.73h1.862v.96h-1.862v3.45h-1.148v-7.58h1.148v3.17z" fill="#626262"/>
    <path fill="#FBFBFB" d="M33.5 1219.5h164v44h-164z"/>
    <path stroke="#CFCFCF" d="M33.5 1219.5h164v44h-164z"/>
    <path d="M105.702 1237.69v-.14h-7.42v-.93h8.554v1.07c0 1 0 2.03-.35 3.31l-1.12-.12c.336-1.29.336-2.21.336-3.19zm-3.15 9.94c1.974 0 3.234-.54 3.234-1.4 0-.9-1.26-1.43-3.234-1.43-1.96 0-3.22.53-3.22 1.43 0 .86 1.26 1.4 3.22 1.4zm0-3.71c2.674 0 4.382.85 4.382 2.31 0 1.42-1.708 2.29-4.382 2.29-2.674 0-4.368-.87-4.368-2.29 0-1.46 1.694-2.31 4.368-2.31zm.182-2.09h5.516v.92H96.952v-.92h4.634v-2.41h1.148v2.41zm14.349.22-.546.9c-1.428-.46-2.506-1.46-3.038-2.7-.532 1.43-1.666 2.55-3.164 3.08l-.588-.91c1.89-.66 3.15-2.28 3.15-4.09v-.49h-2.814v-.92h6.734v.92h-2.772v.49c0 1.64 1.19 3.11 3.038 3.72zm-1.526 5.56c1.848 0 2.982-.52 2.982-1.41 0-.88-1.134-1.4-2.982-1.4-1.876 0-2.996.52-2.996 1.4 0 .89 1.12 1.41 2.996 1.41zm0-3.72c2.548 0 4.13.85 4.13 2.31 0 1.47-1.582 2.32-4.13 2.32-2.576 0-4.144-.85-4.144-2.32 0-1.46 1.568-2.31 4.144-2.31zm3.99-4.73h1.862v.96h-1.862v3.45h-1.148v-7.58h1.148v3.17zm10.414 2.89-.546.9c-1.428-.46-2.506-1.46-3.038-2.7-.532 1.43-1.666 2.55-3.164 3.08l-.588-.91c1.89-.66 3.15-2.28 3.15-4.09v-.49h-2.814v-.92h6.734v.92h-2.772v.49c0 1.64 1.19 3.11 3.038 3.72zm-1.526 5.56c1.848 0 2.982-.52 2.982-1.41 0-.88-1.134-1.4-2.982-1.4-1.876 0-2.996.52-2.996 1.4 0 .89 1.12 1.41 2.996 1.41zm0-3.72c2.548 0 4.13.85 4.13 2.31 0 1.47-1.582 2.32-4.13 2.32-2.576 0-4.144-.85-4.144-2.32 0-1.46 1.568-2.31 4.144-2.31zm3.99-4.73h1.862v.96h-1.862v3.45h-1.148v-7.58h1.148v3.17z" fill="#626262"/>
    <path stroke="#DA251C" d="M33.5 1384.5h164v44h-164z"/>
    <path d="M87.695 1404.18v-2.65h-3.328v2.65h3.328zm-4.976 0v-2.65h-2.048v-1.33h10.704v1.33h-2.032v2.65h1.952v1.33H80.751v-1.33h1.968zm6.656 8.56v-1.96h-6.672v1.96h6.672zm3.2-4.75h-5.712v1.47h4.128v4.6h-9.92v-4.6h4.144v-1.47h-5.712v-1.33h13.072v1.33zm13.567-8.21v7.46h-1.664v-7.46h1.664zm-3.008 5.97-.736 1.27c-1.712-.48-2.944-1.56-3.6-2.88-.64 1.47-1.904 2.64-3.664 3.2l-.784-1.3c2.24-.67 3.552-2.38 3.584-4.18h-3.136v-1.32h7.904v1.32h-3.088c.048 1.68 1.328 3.27 3.52 3.89zm-4.816 7.07h8.256v1.28h-9.872v-3.74h7.808v-1.22h-7.84v-1.24h9.472v3.64h-7.824v1.28zm18.271-6.84-1.616-.18c.288-1.55.336-2.69.352-3.58h-5.648v-1.35h7.264v.83c0 .98 0 2.4-.352 4.28zm1.2.72.112 1.2c-3.008.52-6.416.6-8.928.6l-.176-1.34c.864 0 1.856 0 2.88-.03v-2.96h1.632v2.91c1.504-.06 3.056-.16 4.48-.38zm-5.152 2.97v2.95h8.16v1.34h-9.824v-4.29h1.664zm7.696-5.31h1.92v1.36h-1.92v4.91h-1.664v-10.85h1.664v4.58zm5.822 2.06v3.04c2.288-.01 4.288-.12 6.576-.49l.176 1.34c-2.48.43-4.64.51-7.184.51h-1.232v-5.72h5.04v-2.69h-5.072v-1.35h6.736v5.36h-5.04zm7.776-6.67h1.664v14.51h-1.664v-14.51zm13.263 6.16.16 1.31c-2.064.34-3.84.39-6.944.39h-1.2v-6.99h6.912v1.32h-5.28v1.49h4.864v1.3h-4.864v1.57c2.784 0 4.432-.07 6.352-.39zm-4.736 4.47v2.36h6.224v-2.36h-6.224zm-1.616 3.68v-5h9.456v5h-9.456zm7.808-14.28h1.648v8.61h-1.648v-8.61z" fill="#DA251C"/>
    <path fill="#FBFBFB" d="M33.5 1434.5h164v44h-164z"/>
    <path stroke="#CFCFCF" d="M33.5 1434.5h164v44h-164z"/>
    <path d="m110.445 1456.07.144 1.04c-2.096.35-3.84.42-6.976.42h-1.168v-6.82h6.848v1.06h-5.536v1.77h5.136v1.04h-5.136v1.89c2.992 0 4.688-.06 6.688-.4zm-5.04 4.1v2.77h6.72v-2.77h-6.72zm-1.28 3.82v-4.88h9.28v4.88h-9.28zm7.968-14.14h1.312v8.56h-1.312v-8.56zm12.575 6.93-.624 1.02c-1.632-.53-2.864-1.66-3.472-3.09-.608 1.63-1.904 2.91-3.616 3.52l-.672-1.04c2.16-.75 3.6-2.61 3.6-4.67v-.56h-3.216v-1.06h7.696v1.06h-3.168v.56c0 1.87 1.36 3.55 3.472 4.26zm-1.744 6.35c2.112 0 3.408-.59 3.408-1.62 0-1.01-1.296-1.6-3.408-1.6-2.144 0-3.424.59-3.424 1.6 0 1.03 1.28 1.62 3.424 1.62zm0-4.26c2.912 0 4.72.98 4.72 2.64 0 1.68-1.808 2.66-4.72 2.66-2.944 0-4.736-.98-4.736-2.66 0-1.66 1.792-2.64 4.736-2.64zm4.56-5.41h2.128v1.11h-2.128v3.93h-1.312v-8.65h1.312v3.61z" fill="#626262"/>
    <path fill="#FBFBFB" d="M33.5 1484.5h164v44h-164z"/>
    <path stroke="#CFCFCF" d="M33.5 1484.5h164v44h-164z"/>
    <path d="m110.445 1506.07.144 1.04c-2.096.35-3.84.42-6.976.42h-1.168v-6.82h6.848v1.06h-5.536v1.77h5.136v1.04h-5.136v1.89c2.992 0 4.688-.06 6.688-.4zm-5.04 4.1v2.77h6.72v-2.77h-6.72zm-1.28 3.82v-4.88h9.28v4.88h-9.28zm7.968-14.14h1.312v8.56h-1.312v-8.56zm12.575 6.93-.624 1.02c-1.632-.53-2.864-1.66-3.472-3.09-.608 1.63-1.904 2.91-3.616 3.52l-.672-1.04c2.16-.75 3.6-2.61 3.6-4.67v-.56h-3.216v-1.06h7.696v1.06h-3.168v.56c0 1.87 1.36 3.55 3.472 4.26zm-1.744 6.35c2.112 0 3.408-.59 3.408-1.62 0-1.01-1.296-1.6-3.408-1.6-2.144 0-3.424.59-3.424 1.6 0 1.03 1.28 1.62 3.424 1.62zm0-4.26c2.912 0 4.72.98 4.72 2.64 0 1.68-1.808 2.66-4.72 2.66-2.944 0-4.736-.98-4.736-2.66 0-1.66 1.792-2.64 4.736-2.64zm4.56-5.41h2.128v1.11h-2.128v3.93h-1.312v-8.65h1.312v3.61z" fill="#626262"/>
    <path fill="#FBFBFB" d="M33.5 1534.5h164v44h-164z"/>
    <path stroke="#CFCFCF" d="M33.5 1534.5h164v44h-164z"/>
    <path d="m110.445 1556.07.144 1.04c-2.096.35-3.84.42-6.976.42h-1.168v-6.82h6.848v1.06h-5.536v1.77h5.136v1.04h-5.136v1.89c2.992 0 4.688-.06 6.688-.4zm-5.04 4.1v2.77h6.72v-2.77h-6.72zm-1.28 3.82v-4.88h9.28v4.88h-9.28zm7.968-14.14h1.312v8.56h-1.312v-8.56zm12.575 6.93-.624 1.02c-1.632-.53-2.864-1.66-3.472-3.09-.608 1.63-1.904 2.91-3.616 3.52l-.672-1.04c2.16-.75 3.6-2.61 3.6-4.67v-.56h-3.216v-1.06h7.696v1.06h-3.168v.56c0 1.87 1.36 3.55 3.472 4.26zm-1.744 6.35c2.112 0 3.408-.59 3.408-1.62 0-1.01-1.296-1.6-3.408-1.6-2.144 0-3.424.59-3.424 1.6 0 1.03 1.28 1.62 3.424 1.62zm0-4.26c2.912 0 4.72.98 4.72 2.64 0 1.68-1.808 2.66-4.72 2.66-2.944 0-4.736-.98-4.736-2.66 0-1.66 1.792-2.64 4.736-2.64zm4.56-5.41h2.128v1.11h-2.128v3.93h-1.312v-8.65h1.312v3.61z" fill="#626262"/>
    <path stroke="#DA251C" d="M33.5 1649.5h164v44h-164z"/>
    <path d="m101.87 1670.98-1.616-.18c.288-1.55.336-2.69.352-3.58h-5.648v-1.35h7.264v.83c0 .98 0 2.4-.352 4.28zm1.2.72.112 1.2c-3.008.52-6.416.6-8.928.6l-.176-1.34c.864 0 1.856 0 2.88-.03v-2.96h1.632v2.91c1.504-.06 3.056-.16 4.48-.38zm-5.152 2.97v2.95h8.16v1.34h-9.824v-4.29h1.664zm7.696-5.31h1.92v1.36h-1.92v4.91h-1.664v-10.85h1.664v4.58zm5.823 2.06v3.04c2.288-.01 4.288-.12 6.576-.49l.176 1.34c-2.48.43-4.64.51-7.184.51h-1.232v-5.72h5.04v-2.69h-5.072v-1.35h6.736v5.36h-5.04zm7.776-6.67h1.664v14.51h-1.664v-14.51zm13.262 6.16.16 1.31c-2.064.34-3.84.39-6.944.39h-1.2v-6.99h6.912v1.32h-5.28v1.49h4.864v1.3h-4.864v1.57c2.784 0 4.432-.07 6.352-.39zm-4.736 4.47v2.36h6.224v-2.36h-6.224zm-1.616 3.68v-5h9.456v5h-9.456zm7.808-14.28h1.648v8.61h-1.648v-8.61z" fill="#DA251C"/>
    <path fill="#FBFBFB" d="M33.5 1699.5h164v44h-164z"/>
    <path stroke="#CFCFCF" d="M33.5 1699.5h164v44h-164z"/>
    <path d="M111.703 1718.86h-4.032c-1.044 2.59-3.492 4.48-6.966 5.49l-.594-1.17c3.852-1.15 6.246-3.29 6.516-6.08h-5.688v-1.19h7.29c0 .59-.072 1.19-.18 1.75h3.654v-2.96h1.494v9.65h-1.494v-2.12h-4.23v-1.21h4.23v-2.16zm-3.78 10.75c2.376 0 3.888-.74 3.888-1.96 0-1.21-1.512-1.95-3.888-1.95s-3.888.74-3.888 1.95c0 1.22 1.512 1.96 3.888 1.96zm0-5.08c3.258 0 5.346 1.17 5.346 3.12 0 1.94-2.088 3.11-5.346 3.11s-5.346-1.17-5.346-3.11c0-1.95 2.088-3.12 5.346-3.12zm10.943-2.59v3.78c2.646 0 5.022-.13 7.848-.58l.144 1.21c-2.916.49-5.364.59-8.136.59h-1.332v-6.19h5.94v-3.36h-5.994v-1.21h7.488v5.76h-5.958zm9.36-7.27h1.476v16.18h-1.476v-16.18z" fill="#626262"/>
    <path fill="#FBFBFB" d="M33.5 1749.5h164v44h-164z"/>
    <path stroke="#CFCFCF" d="M33.5 1749.5h164v44h-164z"/>
    <path d="M111.703 1768.86h-4.032c-1.044 2.59-3.492 4.48-6.966 5.49l-.594-1.17c3.852-1.15 6.246-3.29 6.516-6.08h-5.688v-1.19h7.29c0 .59-.072 1.19-.18 1.75h3.654v-2.96h1.494v9.65h-1.494v-2.12h-4.23v-1.21h4.23v-2.16zm-3.78 10.75c2.376 0 3.888-.74 3.888-1.96 0-1.21-1.512-1.95-3.888-1.95s-3.888.74-3.888 1.95c0 1.22 1.512 1.96 3.888 1.96zm0-5.08c3.258 0 5.346 1.17 5.346 3.12 0 1.94-2.088 3.11-5.346 3.11s-5.346-1.17-5.346-3.11c0-1.95 2.088-3.12 5.346-3.12zm10.943-2.59v3.78c2.646 0 5.022-.13 7.848-.58l.144 1.21c-2.916.49-5.364.59-8.136.59h-1.332v-6.19h5.94v-3.36h-5.994v-1.21h7.488v5.76h-5.958zm9.36-7.27h1.476v16.18h-1.476v-16.18z" fill="#626262"/>
    <circle cx="118" cy="378" r="8" fill="#DA251C"/>
</svg>
