<?xml version="1.0" encoding="utf-8"?>
<!-- Generator: Adobe Illustrator 27.8.1, SVG Export Plug-In . SVG Version: 6.00 Build 0)  -->
<svg version="1.1" id="Layer_1" xmlns="http://www.w3.org/2000/svg" xmlns:xlink="http://www.w3.org/1999/xlink" x="0px" y="0px"
	 viewBox="0 0 448.7 2325.2" style="enable-background:new 0 0 448.7 2325.2;" xml:space="preserve">
<style type="text/css">
	.st0{fill:#DA251C;}
	.st1{fill:#FFFFFF;}
	.st2{fill:none;stroke:#CFCFCF;stroke-width:0.8212;}
	.st3{fill:none;stroke:#DA251C;}
	.st4{fill:#FBFBFB;}
	.st5{fill:none;stroke:#CFCFCF;}
	.st6{fill:#626262;}
</style>
<circle class="st0" cx="224.3" cy="127.9" r="112.3"/>
<path class="st1" d="M164.1,118.9v14.2c3.1-0.1,5.9-0.3,9.1-0.8l0.4,3.9c-4.1,0.8-7.6,0.9-11.9,0.9h-2.3v-22h12.3v3.9L164.1,118.9
	L164.1,118.9z M182.5,111.2h4.5v33.4h-4.5v-16.7h-3V143H175v-31.2h4.5V124h3V111.2z M203.9,130.8v6.3h5.8v-6.3
	C209.7,130.8,203.9,130.8,203.9,130.8z M203.4,117.7v9.4h6.8v-9.4H203.4z M214.4,137.1h7.5v3.8h-30.2v-3.8h7.5v-6.3h-4.9V127h4.3
	v-9.4h-4.5v-3.8h25.3v3.8h-4.5v9.4h4.5v3.8h-5V137.1L214.4,137.1z M247.9,111.2h4.8v33.5h-4.8V111.2z M234.8,113.5
	c5,0,8.8,4.6,8.8,11.9c0,7.4-3.7,12-8.8,12c-5,0-8.8-4.6-8.8-12C226,118.1,229.7,113.5,234.8,113.5z M234.8,117.8
	c-2.5,0-4.2,2.6-4.2,7.6c0,5,1.7,7.6,4.2,7.6c2.5,0,4.2-2.6,4.2-7.6C238.9,120.5,237.2,117.8,234.8,117.8z M270.6,113.8v4.9
	c0,6,2.4,12.1,7.7,14.7l-2.9,3.8c-3.5-1.8-5.8-5-7.2-9c-1.4,4.2-3.9,7.7-7.7,9.6l-2.9-3.9c5.6-2.6,8.1-9,8.1-15.2v-4.9H270.6z
	 M289.3,124v4h-4.9v16.5h-4.8v-33.4h4.8V124H289.3z"/>
<path class="st2" d="M224.3,240.2v136 M419,375.2v1765 M223.9,375.7h194.6 M329.5,519.7h89 M329.5,959.7h89 M329.5,1774.7h89
	 M329.5,2139.7h89"/>
<path class="st3" d="M30,485.7h299v69H30V485.7z"/>
<path class="st0" d="M134.4,511.7h12.8c0,8.1-3.2,14.9-12.5,19.4l-1.7-2.5c7.1-3.4,10.5-8.2,11-14.4h-9.7V511.7L134.4,511.7z
	 M152.1,508.9h3.1V536h-3.1V508.9z M190.4,516l-1.1,2.4c-4.5-0.5-8.2-2.4-9.9-5.1c-1.7,2.7-5.4,4.6-9.9,5.1l-1.1-2.4
	c5.4-0.5,9.4-3.2,9.4-6.2V509h3.2v0.8C181,512.8,185,515.5,190.4,516z M191.7,522.3H181v2.3h7.6v6.5h-15.4v2.2h16.2v2.4h-19.3V529
	h15.4v-2h-15.5v-2.3h7.8v-2.3h-10.7v-2.5h24.5V522.3L191.7,522.3z M218,520.4l0.3,2.5c-3.9,0.6-7.2,0.7-13,0.7h-2.2v-13.1h13v2.5
	h-9.9v2.8h9.1v2.4h-9.1v2.9C211.4,521.1,214.4,521,218,520.4L218,520.4z M209.2,528.8v4.4h11.7v-4.4H209.2z M206.1,535.7v-9.4h17.7
	v9.4H206.1z M220.8,508.9h3.1V525h-3.1V508.9z"/>
<path class="st4" d="M30,560.7h299v69H30V560.7z"/>
<path class="st5" d="M30,560.7h299v69H30V560.7z"/>
<path class="st6" d="M173.5,594.5v-3.3h-11.1v3.3H173.5z M175.6,586.5v9.7h-15.2v-9.7h2v3.1h11.1v-3.1H175.6z M178.1,598.9v1.7h-9.2
	v7.5h-2.1v-7.5h-9.1v-1.7H178.1z M193.8,596.4l-1,1.6c-2.6-0.8-4.5-2.6-5.4-4.8c-0.9,2.5-3,4.5-5.6,5.5l-1.1-1.6
	c3.4-1.2,5.6-4.1,5.6-7.3v-0.9h-5v-1.7h12v1.7h-4.9v0.9C188.4,592.7,190.5,595.3,193.8,596.4z M191.1,606.4c3.3,0,5.3-0.9,5.3-2.5
	c0-1.6-2-2.5-5.3-2.5c-3.4,0-5.4,0.9-5.4,2.5C185.7,605.4,187.7,606.4,191.1,606.4z M191.1,599.7c4.6,0,7.4,1.5,7.4,4.1
	c0,2.6-2.8,4.2-7.4,4.2c-4.6,0-7.4-1.5-7.4-4.2C183.7,601.2,186.5,599.7,191.1,599.7z M198.2,591.3h3.3v1.7h-3.3v6.2h-2.1v-13.5h2.1
	V591.3L198.2,591.3z"/>
<path class="st4" d="M30,710.7h299v69H30V710.7z"/>
<path class="st5" d="M30,710.7h299v69H30V710.7z"/>
<path class="st6" d="M173.5,744.5v-3.3h-11.1v3.3H173.5z M175.6,736.5v9.7h-15.2v-9.7h2v3.1h11.1v-3.1H175.6z M178.1,748.9v1.7h-9.2
	v7.5h-2.1v-7.5h-9.1v-1.7H178.1z M193.8,746.4l-1,1.6c-2.6-0.8-4.5-2.6-5.4-4.8c-0.9,2.5-3,4.5-5.6,5.5l-1.1-1.6
	c3.4-1.2,5.6-4.1,5.6-7.3v-0.9h-5v-1.7h12v1.7h-4.9v0.9C188.4,742.7,190.5,745.3,193.8,746.4z M191.1,756.4c3.3,0,5.3-0.9,5.3-2.5
	c0-1.6-2-2.5-5.3-2.5c-3.4,0-5.4,0.9-5.4,2.5C185.7,755.4,187.7,756.4,191.1,756.4z M191.1,749.7c4.6,0,7.4,1.5,7.4,4.1
	c0,2.6-2.8,4.2-7.4,4.2c-4.6,0-7.4-1.5-7.4-4.2C183.7,751.2,186.5,749.7,191.1,749.7z M198.2,741.3h3.3v1.7h-3.3v6.2h-2.1v-13.5h2.1
	V741.3L198.2,741.3z"/>
<path class="st4" d="M30,785.7h299v69H30V785.7z"/>
<path class="st5" d="M30,785.7h299v69H30V785.7z"/>
<path class="st6" d="M173.5,819.5v-3.3h-11.1v3.3H173.5z M175.6,811.5v9.7h-15.2v-9.7h2v3.1h11.1v-3.1H175.6z M178.1,823.9v1.7h-9.2
	v7.5h-2.1v-7.5h-9.1v-1.7H178.1z M193.8,821.4l-1,1.6c-2.6-0.8-4.5-2.6-5.4-4.8c-0.9,2.5-3,4.5-5.6,5.5l-1.1-1.6
	c3.4-1.2,5.6-4.1,5.6-7.3v-0.9h-5v-1.7h12v1.7h-4.9v0.9C188.4,817.7,190.5,820.3,193.8,821.4z M191.1,831.4c3.3,0,5.3-0.9,5.3-2.5
	c0-1.6-2-2.5-5.3-2.5c-3.4,0-5.4,0.9-5.4,2.5C185.7,830.4,187.7,831.4,191.1,831.4z M191.1,824.7c4.6,0,7.4,1.5,7.4,4.1
	c0,2.6-2.8,4.2-7.4,4.2c-4.6,0-7.4-1.5-7.4-4.2C183.7,826.2,186.5,824.7,191.1,824.7z M198.2,816.3h3.3v1.7h-3.3v6.2h-2.1v-13.5h2.1
	V816.3L198.2,816.3z"/>
<path class="st4" d="M30,635.7h299v69H30V635.7z"/>
<path class="st5" d="M30,635.7h299v69H30V635.7z"/>
<path class="st6" d="M173.5,669.5v-3.3h-11.1v3.3H173.5z M175.6,661.5v9.7h-15.2v-9.7h2v3.1h11.1v-3.1H175.6z M178.1,673.9v1.7h-9.2
	v7.5h-2.1v-7.5h-9.1v-1.7H178.1z M193.8,671.4l-1,1.6c-2.6-0.8-4.5-2.6-5.4-4.8c-0.9,2.5-3,4.5-5.6,5.5l-1.1-1.6
	c3.4-1.2,5.6-4.1,5.6-7.3v-0.9h-5v-1.7h12v1.7h-4.9v0.9C188.4,667.7,190.5,670.3,193.8,671.4z M191.1,681.4c3.3,0,5.3-0.9,5.3-2.5
	c0-1.6-2-2.5-5.3-2.5c-3.4,0-5.4,0.9-5.4,2.5C185.7,680.4,187.7,681.4,191.1,681.4z M191.1,674.7c4.6,0,7.4,1.5,7.4,4.1
	c0,2.6-2.8,4.2-7.4,4.2c-4.6,0-7.4-1.5-7.4-4.2C183.7,676.2,186.5,674.7,191.1,674.7z M198.2,666.3h3.3v1.7h-3.3v6.2h-2.1v-13.5h2.1
	V666.3L198.2,666.3z"/>
<path class="st3" d="M30,925.7h299v69H30V925.7z"/>
<path class="st0" d="M150,958.4v6.3h-2.9v-15.3h2.9v6.4h2.8v-6.9h2.9v16.6h-2.9v-7.2H150z M146.5,961.3l-1.6,2.3
	c-2.4-0.9-4.1-2.7-5.1-4.9c-1,2.5-2.8,4.6-5.4,5.7l-1.6-2.4c3.6-1.7,5.5-5,5.5-8.1v-3.4h3v3.4C141.2,957,143,959.9,146.5,961.3z
	 M146.8,973.6c3.8,0,6.1-0.9,6.1-2.6c0-1.7-2.3-2.6-6.1-2.6s-6.1,0.9-6.1,2.6C140.7,972.7,143,973.6,146.8,973.6z M146.8,966.1
	c5.6,0,9.2,1.9,9.2,5c0,3.1-3.5,4.9-9.2,4.9s-9.2-1.9-9.2-4.9C137.6,967.9,141.1,966.1,146.8,966.1z M183.2,962.2l-1.6,2.5
	c-3-1.1-5.2-3.2-6.4-5.8c-1.2,3-3.4,5.3-6.6,6.4l-1.7-2.4c4.4-1.5,6.7-5.1,6.7-9.1v-3.2h3.1v3.2
	C176.7,957.3,179.1,960.7,183.2,962.2z M174.3,966.9v6h15.1v2.5h-18.2v-8.6H174.3z M188.4,957h3.8v2.6h-3.8v9.3h-3.1v-20h3.1V957
	L188.4,957z M218,960.4l0.3,2.5c-3.9,0.6-7.2,0.7-13,0.7h-2.2v-13.1h13v2.5h-9.9v2.8h9.1v2.4h-9.1v2.9
	C211.4,961.1,214.4,961,218,960.4L218,960.4z M209.2,968.8v4.4h11.7v-4.4H209.2z M206.1,975.7v-9.4h17.7v9.4H206.1z M220.8,948.9
	h3.1V965h-3.1V948.9z"/>
<path class="st4" d="M30,1000.7h299v69H30V1000.7z"/>
<path class="st5" d="M30,1000.7h299v69H30V1000.7z"/>
<path class="st6" d="M162,1028.6v-0.2h-13.2v-1.7H164v1.9c0,1.8,0,3.6-0.6,5.9l-2-0.2C162,1032.1,162,1030.4,162,1028.6L162,1028.6z
	 M156.4,1046.4c3.5,0,5.8-1,5.8-2.5c0-1.6-2.2-2.6-5.8-2.6c-3.5,0-5.8,0.9-5.8,2.6C150.6,1045.4,152.9,1046.4,156.4,1046.4z
	 M156.4,1039.8c4.8,0,7.8,1.5,7.8,4.1c0,2.6-3.1,4.1-7.8,4.1s-7.8-1.6-7.8-4.1C148.6,1041.3,151.6,1039.8,156.4,1039.8z M156.7,1036
	h9.9v1.7h-20.2v-1.7h8.3v-4.3h2.1V1036z M182.3,1036.4l-1,1.6c-2.6-0.8-4.5-2.6-5.4-4.8c-0.9,2.6-3,4.6-5.6,5.5l-1.1-1.6
	c3.4-1.2,5.6-4.1,5.6-7.3v-0.9h-5v-1.7h12v1.7h-4.9v0.9C176.9,1032.7,179,1035.3,182.3,1036.4z M179.6,1046.4c3.3,0,5.3-0.9,5.3-2.5
	c0-1.6-2-2.5-5.3-2.5c-3.4,0-5.4,0.9-5.4,2.5C174.2,1045.4,176.2,1046.4,179.6,1046.4z M179.6,1039.7c4.6,0,7.4,1.5,7.4,4.1
	c0,2.6-2.8,4.2-7.4,4.2c-4.6,0-7.4-1.5-7.4-4.2C172.2,1041.2,175,1039.7,179.6,1039.7z M186.7,1031.3h3.3v1.7h-3.3v6.2h-2.1v-13.5
	h2.1V1031.3z M205.3,1036.4l-1,1.6c-2.6-0.8-4.5-2.6-5.4-4.8c-0.9,2.6-3,4.6-5.6,5.5l-1.1-1.6c3.4-1.2,5.6-4.1,5.6-7.3v-0.9h-5v-1.7
	h12v1.7h-4.9v0.9C199.9,1032.7,202,1035.3,205.3,1036.4z M202.6,1046.4c3.3,0,5.3-0.9,5.3-2.5c0-1.6-2-2.5-5.3-2.5
	c-3.4,0-5.4,0.9-5.4,2.5C197.2,1045.4,199.2,1046.4,202.6,1046.4z M202.6,1039.7c4.6,0,7.4,1.5,7.4,4.1c0,2.6-2.8,4.2-7.4,4.2
	c-4.6,0-7.4-1.5-7.4-4.2C195.2,1041.2,198,1039.7,202.6,1039.7z M209.7,1031.3h3.3v1.7h-3.3v6.2h-2.1v-13.5h2.1V1031.3z"/>
<path class="st4" d="M30,1225.7h299v69H30V1225.7z"/>
<path class="st5" d="M30,1225.7h299v69H30V1225.7z"/>
<path class="st6" d="M162,1253.6v-0.2h-13.2v-1.7H164v1.9c0,1.8,0,3.6-0.6,5.9l-2-0.2C162,1257.1,162,1255.4,162,1253.6L162,1253.6z
	 M156.4,1271.4c3.5,0,5.8-1,5.8-2.5c0-1.6-2.2-2.6-5.8-2.6c-3.5,0-5.8,0.9-5.8,2.6C150.6,1270.4,152.9,1271.4,156.4,1271.4z
	 M156.4,1264.8c4.8,0,7.8,1.5,7.8,4.1c0,2.6-3.1,4.1-7.8,4.1s-7.8-1.6-7.8-4.1C148.6,1266.3,151.6,1264.8,156.4,1264.8z M156.7,1261
	h9.9v1.7h-20.2v-1.7h8.3v-4.3h2.1V1261z M182.3,1261.4l-1,1.6c-2.6-0.8-4.5-2.6-5.4-4.8c-0.9,2.6-3,4.6-5.6,5.5l-1.1-1.6
	c3.4-1.2,5.6-4.1,5.6-7.3v-0.9h-5v-1.7h12v1.7h-4.9v0.9C176.9,1257.7,179,1260.3,182.3,1261.4z M179.6,1271.4c3.3,0,5.3-0.9,5.3-2.5
	c0-1.6-2-2.5-5.3-2.5c-3.4,0-5.4,0.9-5.4,2.5C174.2,1270.4,176.2,1271.4,179.6,1271.4z M179.6,1264.7c4.6,0,7.4,1.5,7.4,4.1
	c0,2.6-2.8,4.2-7.4,4.2c-4.6,0-7.4-1.5-7.4-4.2C172.2,1266.2,175,1264.7,179.6,1264.7z M186.7,1256.3h3.3v1.7h-3.3v6.2h-2.1v-13.5
	h2.1V1256.3z M205.3,1261.4l-1,1.6c-2.6-0.8-4.5-2.6-5.4-4.8c-0.9,2.6-3,4.6-5.6,5.5l-1.1-1.6c3.4-1.2,5.6-4.1,5.6-7.3v-0.9h-5v-1.7
	h12v1.7h-4.9v0.9C199.9,1257.7,202,1260.3,205.3,1261.4z M202.6,1271.4c3.3,0,5.3-0.9,5.3-2.5c0-1.6-2-2.5-5.3-2.5
	c-3.4,0-5.4,0.9-5.4,2.5C197.2,1270.4,199.2,1271.4,202.6,1271.4z M202.6,1264.7c4.6,0,7.4,1.5,7.4,4.1c0,2.6-2.8,4.2-7.4,4.2
	c-4.6,0-7.4-1.5-7.4-4.2C195.2,1266.2,198,1264.7,202.6,1264.7z M209.7,1256.3h3.3v1.7h-3.3v6.2h-2.1v-13.5h2.1V1256.3z"/>
<path class="st4" d="M30,1450.7h299v69H30V1450.7z"/>
<path class="st5" d="M30,1450.7h299v69H30V1450.7z"/>
<path class="st6" d="M162,1478.6v-0.2h-13.2v-1.7H164v1.9c0,1.8,0,3.6-0.6,5.9l-2-0.2C162,1482.1,162,1480.4,162,1478.6L162,1478.6z
	 M156.4,1496.4c3.5,0,5.8-1,5.8-2.5c0-1.6-2.2-2.6-5.8-2.6c-3.5,0-5.8,0.9-5.8,2.6C150.6,1495.4,152.9,1496.4,156.4,1496.4z
	 M156.4,1489.8c4.8,0,7.8,1.5,7.8,4.1c0,2.6-3.1,4.1-7.8,4.1s-7.8-1.6-7.8-4.1C148.6,1491.3,151.6,1489.8,156.4,1489.8z M156.7,1486
	h9.9v1.7h-20.2v-1.7h8.3v-4.3h2.1V1486z M182.3,1486.4l-1,1.6c-2.6-0.8-4.5-2.6-5.4-4.8c-0.9,2.6-3,4.6-5.6,5.5l-1.1-1.6
	c3.4-1.2,5.6-4.1,5.6-7.3v-0.9h-5v-1.7h12v1.7h-4.9v0.9C176.9,1482.7,179,1485.3,182.3,1486.4z M179.6,1496.4c3.3,0,5.3-0.9,5.3-2.5
	c0-1.6-2-2.5-5.3-2.5c-3.4,0-5.4,0.9-5.4,2.5C174.2,1495.4,176.2,1496.4,179.6,1496.4z M179.6,1489.7c4.6,0,7.4,1.5,7.4,4.1
	c0,2.6-2.8,4.2-7.4,4.2c-4.6,0-7.4-1.5-7.4-4.2C172.2,1491.2,175,1489.7,179.6,1489.7z M186.7,1481.3h3.3v1.7h-3.3v6.2h-2.1v-13.5
	h2.1V1481.3z M205.3,1486.4l-1,1.6c-2.6-0.8-4.5-2.6-5.4-4.8c-0.9,2.6-3,4.6-5.6,5.5l-1.1-1.6c3.4-1.2,5.6-4.1,5.6-7.3v-0.9h-5v-1.7
	h12v1.7h-4.9v0.9C199.9,1482.7,202,1485.3,205.3,1486.4z M202.6,1496.4c3.3,0,5.3-0.9,5.3-2.5c0-1.6-2-2.5-5.3-2.5
	c-3.4,0-5.4,0.9-5.4,2.5C197.2,1495.4,199.2,1496.4,202.6,1496.4z M202.6,1489.7c4.6,0,7.4,1.5,7.4,4.1c0,2.6-2.8,4.2-7.4,4.2
	c-4.6,0-7.4-1.5-7.4-4.2C195.2,1491.2,198,1489.7,202.6,1489.7z M209.7,1481.3h3.3v1.7h-3.3v6.2h-2.1v-13.5h2.1V1481.3z"/>
<path class="st4" d="M30,1150.7h299v69H30V1150.7z"/>
<path class="st5" d="M30,1150.7h299v69H30V1150.7z"/>
<path class="st6" d="M162,1178.6v-0.2h-13.2v-1.7H164v1.9c0,1.8,0,3.6-0.6,5.9l-2-0.2C162,1182.1,162,1180.4,162,1178.6L162,1178.6z
	 M156.4,1196.4c3.5,0,5.8-1,5.8-2.5c0-1.6-2.2-2.6-5.8-2.6c-3.5,0-5.8,0.9-5.8,2.6C150.6,1195.4,152.9,1196.4,156.4,1196.4z
	 M156.4,1189.8c4.8,0,7.8,1.5,7.8,4.1c0,2.6-3.1,4.1-7.8,4.1s-7.8-1.6-7.8-4.1C148.6,1191.3,151.6,1189.8,156.4,1189.8z M156.7,1186
	h9.9v1.7h-20.2v-1.7h8.3v-4.3h2.1V1186z M182.3,1186.4l-1,1.6c-2.6-0.8-4.5-2.6-5.4-4.8c-0.9,2.6-3,4.6-5.6,5.5l-1.1-1.6
	c3.4-1.2,5.6-4.1,5.6-7.3v-0.9h-5v-1.7h12v1.7h-4.9v0.9C176.9,1182.7,179,1185.3,182.3,1186.4z M179.6,1196.4c3.3,0,5.3-0.9,5.3-2.5
	c0-1.6-2-2.5-5.3-2.5c-3.4,0-5.4,0.9-5.4,2.5C174.2,1195.4,176.2,1196.4,179.6,1196.4z M179.6,1189.7c4.6,0,7.4,1.5,7.4,4.1
	c0,2.6-2.8,4.2-7.4,4.2c-4.6,0-7.4-1.5-7.4-4.2C172.2,1191.2,175,1189.7,179.6,1189.7z M186.7,1181.3h3.3v1.7h-3.3v6.2h-2.1v-13.5
	h2.1V1181.3z M205.3,1186.4l-1,1.6c-2.6-0.8-4.5-2.6-5.4-4.8c-0.9,2.6-3,4.6-5.6,5.5l-1.1-1.6c3.4-1.2,5.6-4.1,5.6-7.3v-0.9h-5v-1.7
	h12v1.7h-4.9v0.9C199.9,1182.7,202,1185.3,205.3,1186.4z M202.6,1196.4c3.3,0,5.3-0.9,5.3-2.5c0-1.6-2-2.5-5.3-2.5
	c-3.4,0-5.4,0.9-5.4,2.5C197.2,1195.4,199.2,1196.4,202.6,1196.4z M202.6,1189.7c4.6,0,7.4,1.5,7.4,4.1c0,2.6-2.8,4.2-7.4,4.2
	c-4.6,0-7.4-1.5-7.4-4.2C195.2,1191.2,198,1189.7,202.6,1189.7z M209.7,1181.3h3.3v1.7h-3.3v6.2h-2.1v-13.5h2.1V1181.3z"/>
<path class="st4" d="M30,1375.7h299v69H30V1375.7z"/>
<path class="st5" d="M30,1375.7h299v69H30V1375.7z"/>
<path class="st6" d="M162,1403.6v-0.2h-13.2v-1.7H164v1.9c0,1.8,0,3.6-0.6,5.9l-2-0.2C162,1407.1,162,1405.4,162,1403.6L162,1403.6z
	 M156.4,1421.4c3.5,0,5.8-1,5.8-2.5c0-1.6-2.2-2.6-5.8-2.6c-3.5,0-5.8,0.9-5.8,2.6C150.6,1420.4,152.9,1421.4,156.4,1421.4z
	 M156.4,1414.8c4.8,0,7.8,1.5,7.8,4.1c0,2.6-3.1,4.1-7.8,4.1s-7.8-1.6-7.8-4.1C148.6,1416.3,151.6,1414.8,156.4,1414.8z M156.7,1411
	h9.9v1.7h-20.2v-1.7h8.3v-4.3h2.1V1411z M182.3,1411.4l-1,1.6c-2.6-0.8-4.5-2.6-5.4-4.8c-0.9,2.6-3,4.6-5.6,5.5l-1.1-1.6
	c3.4-1.2,5.6-4.1,5.6-7.3v-0.9h-5v-1.7h12v1.7h-4.9v0.9C176.9,1407.7,179,1410.3,182.3,1411.4z M179.6,1421.4c3.3,0,5.3-0.9,5.3-2.5
	c0-1.6-2-2.5-5.3-2.5c-3.4,0-5.4,0.9-5.4,2.5C174.2,1420.4,176.2,1421.4,179.6,1421.4z M179.6,1414.7c4.6,0,7.4,1.5,7.4,4.1
	c0,2.6-2.8,4.2-7.4,4.2c-4.6,0-7.4-1.5-7.4-4.2C172.2,1416.2,175,1414.7,179.6,1414.7z M186.7,1406.3h3.3v1.7h-3.3v6.2h-2.1v-13.5
	h2.1V1406.3z M205.3,1411.4l-1,1.6c-2.6-0.8-4.5-2.6-5.4-4.8c-0.9,2.6-3,4.6-5.6,5.5l-1.1-1.6c3.4-1.2,5.6-4.1,5.6-7.3v-0.9h-5v-1.7
	h12v1.7h-4.9v0.9C199.9,1407.7,202,1410.3,205.3,1411.4z M202.6,1421.4c3.3,0,5.3-0.9,5.3-2.5c0-1.6-2-2.5-5.3-2.5
	c-3.4,0-5.4,0.9-5.4,2.5C197.2,1420.4,199.2,1421.4,202.6,1421.4z M202.6,1414.7c4.6,0,7.4,1.5,7.4,4.1c0,2.6-2.8,4.2-7.4,4.2
	c-4.6,0-7.4-1.5-7.4-4.2C195.2,1416.2,198,1414.7,202.6,1414.7z M209.7,1406.3h3.3v1.7h-3.3v6.2h-2.1v-13.5h2.1V1406.3z"/>
<path class="st4" d="M30,1600.7h299v69H30V1600.7z"/>
<path class="st5" d="M30,1600.7h299v69H30V1600.7z"/>
<path class="st6" d="M162,1628.6v-0.2h-13.2v-1.7H164v1.9c0,1.8,0,3.6-0.6,5.9l-2-0.2C162,1632.1,162,1630.4,162,1628.6L162,1628.6z
	 M156.4,1646.4c3.5,0,5.8-1,5.8-2.5c0-1.6-2.2-2.6-5.8-2.6c-3.5,0-5.8,0.9-5.8,2.6C150.6,1645.4,152.9,1646.4,156.4,1646.4z
	 M156.4,1639.8c4.8,0,7.8,1.5,7.8,4.1c0,2.6-3.1,4.1-7.8,4.1s-7.8-1.6-7.8-4.1C148.6,1641.3,151.6,1639.8,156.4,1639.8z M156.7,1636
	h9.9v1.7h-20.2v-1.7h8.3v-4.3h2.1V1636z M182.3,1636.4l-1,1.6c-2.6-0.8-4.5-2.6-5.4-4.8c-0.9,2.6-3,4.6-5.6,5.5l-1.1-1.6
	c3.4-1.2,5.6-4.1,5.6-7.3v-0.9h-5v-1.7h12v1.7h-4.9v0.9C176.9,1632.7,179,1635.3,182.3,1636.4z M179.6,1646.4c3.3,0,5.3-0.9,5.3-2.5
	c0-1.6-2-2.5-5.3-2.5c-3.4,0-5.4,0.9-5.4,2.5C174.2,1645.4,176.2,1646.4,179.6,1646.4z M179.6,1639.7c4.6,0,7.4,1.5,7.4,4.1
	c0,2.6-2.8,4.2-7.4,4.2c-4.6,0-7.4-1.5-7.4-4.2C172.2,1641.2,175,1639.7,179.6,1639.7z M186.7,1631.3h3.3v1.7h-3.3v6.2h-2.1v-13.5
	h2.1V1631.3z M205.3,1636.4l-1,1.6c-2.6-0.8-4.5-2.6-5.4-4.8c-0.9,2.6-3,4.6-5.6,5.5l-1.1-1.6c3.4-1.2,5.6-4.1,5.6-7.3v-0.9h-5v-1.7
	h12v1.7h-4.9v0.9C199.9,1632.7,202,1635.3,205.3,1636.4z M202.6,1646.4c3.3,0,5.3-0.9,5.3-2.5c0-1.6-2-2.5-5.3-2.5
	c-3.4,0-5.4,0.9-5.4,2.5C197.2,1645.4,199.2,1646.4,202.6,1646.4z M202.6,1639.7c4.6,0,7.4,1.5,7.4,4.1c0,2.6-2.8,4.2-7.4,4.2
	c-4.6,0-7.4-1.5-7.4-4.2C195.2,1641.2,198,1639.7,202.6,1639.7z M209.7,1631.3h3.3v1.7h-3.3v6.2h-2.1v-13.5h2.1V1631.3z"/>
<path class="st4" d="M30,1075.7h299v69H30V1075.7z"/>
<path class="st5" d="M30,1075.7h299v69H30V1075.7z"/>
<path class="st6" d="M162,1103.6v-0.2h-13.2v-1.7H164v1.9c0,1.8,0,3.6-0.6,5.9l-2-0.2C162,1107.1,162,1105.4,162,1103.6L162,1103.6z
	 M156.4,1121.4c3.5,0,5.8-1,5.8-2.5c0-1.6-2.2-2.6-5.8-2.6c-3.5,0-5.8,0.9-5.8,2.6C150.6,1120.4,152.9,1121.4,156.4,1121.4z
	 M156.4,1114.8c4.8,0,7.8,1.5,7.8,4.1c0,2.6-3.1,4.1-7.8,4.1s-7.8-1.6-7.8-4.1C148.6,1116.3,151.6,1114.8,156.4,1114.8z M156.7,1111
	h9.9v1.7h-20.2v-1.7h8.3v-4.3h2.1V1111z M182.3,1111.4l-1,1.6c-2.6-0.8-4.5-2.6-5.4-4.8c-0.9,2.6-3,4.6-5.6,5.5l-1.1-1.6
	c3.4-1.2,5.6-4.1,5.6-7.3v-0.9h-5v-1.7h12v1.7h-4.9v0.9C176.9,1107.7,179,1110.3,182.3,1111.4z M179.6,1121.4c3.3,0,5.3-0.9,5.3-2.5
	c0-1.6-2-2.5-5.3-2.5c-3.4,0-5.4,0.9-5.4,2.5C174.2,1120.4,176.2,1121.4,179.6,1121.4z M179.6,1114.7c4.6,0,7.4,1.5,7.4,4.1
	c0,2.6-2.8,4.2-7.4,4.2c-4.6,0-7.4-1.5-7.4-4.2C172.2,1116.2,175,1114.7,179.6,1114.7z M186.7,1106.3h3.3v1.7h-3.3v6.2h-2.1v-13.5
	h2.1V1106.3z M205.3,1111.4l-1,1.6c-2.6-0.8-4.5-2.6-5.4-4.8c-0.9,2.6-3,4.6-5.6,5.5l-1.1-1.6c3.4-1.2,5.6-4.1,5.6-7.3v-0.9h-5v-1.7
	h12v1.7h-4.9v0.9C199.9,1107.7,202,1110.3,205.3,1111.4z M202.6,1121.4c3.3,0,5.3-0.9,5.3-2.5c0-1.6-2-2.5-5.3-2.5
	c-3.4,0-5.4,0.9-5.4,2.5C197.2,1120.4,199.2,1121.4,202.6,1121.4z M202.6,1114.7c4.6,0,7.4,1.5,7.4,4.1c0,2.6-2.8,4.2-7.4,4.2
	c-4.6,0-7.4-1.5-7.4-4.2C195.2,1116.2,198,1114.7,202.6,1114.7z M209.7,1106.3h3.3v1.7h-3.3v6.2h-2.1v-13.5h2.1V1106.3z"/>
<path class="st4" d="M30,1300.7h299v69H30V1300.7z"/>
<path class="st5" d="M30,1300.7h299v69H30V1300.7z"/>
<path class="st6" d="M162,1328.6v-0.2h-13.2v-1.7H164v1.9c0,1.8,0,3.6-0.6,5.9l-2-0.2C162,1332.1,162,1330.4,162,1328.6L162,1328.6z
	 M156.4,1346.4c3.5,0,5.8-1,5.8-2.5c0-1.6-2.2-2.6-5.8-2.6c-3.5,0-5.8,0.9-5.8,2.6C150.6,1345.4,152.9,1346.4,156.4,1346.4z
	 M156.4,1339.8c4.8,0,7.8,1.5,7.8,4.1c0,2.6-3.1,4.1-7.8,4.1s-7.8-1.6-7.8-4.1C148.6,1341.3,151.6,1339.8,156.4,1339.8z M156.7,1336
	h9.9v1.7h-20.2v-1.7h8.3v-4.3h2.1V1336z M182.3,1336.4l-1,1.6c-2.6-0.8-4.5-2.6-5.4-4.8c-0.9,2.6-3,4.6-5.6,5.5l-1.1-1.6
	c3.4-1.2,5.6-4.1,5.6-7.3v-0.9h-5v-1.7h12v1.7h-4.9v0.9C176.9,1332.7,179,1335.3,182.3,1336.4z M179.6,1346.4c3.3,0,5.3-0.9,5.3-2.5
	c0-1.6-2-2.5-5.3-2.5c-3.4,0-5.4,0.9-5.4,2.5C174.2,1345.4,176.2,1346.4,179.6,1346.4z M179.6,1339.7c4.6,0,7.4,1.5,7.4,4.1
	c0,2.6-2.8,4.2-7.4,4.2c-4.6,0-7.4-1.5-7.4-4.2C172.2,1341.2,175,1339.7,179.6,1339.7z M186.7,1331.3h3.3v1.7h-3.3v6.2h-2.1v-13.5
	h2.1V1331.3z M205.3,1336.4l-1,1.6c-2.6-0.8-4.5-2.6-5.4-4.8c-0.9,2.6-3,4.6-5.6,5.5l-1.1-1.6c3.4-1.2,5.6-4.1,5.6-7.3v-0.9h-5v-1.7
	h12v1.7h-4.9v0.9C199.9,1332.7,202,1335.3,205.3,1336.4z M202.6,1346.4c3.3,0,5.3-0.9,5.3-2.5c0-1.6-2-2.5-5.3-2.5
	c-3.4,0-5.4,0.9-5.4,2.5C197.2,1345.4,199.2,1346.4,202.6,1346.4z M202.6,1339.7c4.6,0,7.4,1.5,7.4,4.1c0,2.6-2.8,4.2-7.4,4.2
	c-4.6,0-7.4-1.5-7.4-4.2C195.2,1341.2,198,1339.7,202.6,1339.7z M209.7,1331.3h3.3v1.7h-3.3v6.2h-2.1v-13.5h2.1V1331.3z"/>
<path class="st4" d="M30,1525.7h299v69H30V1525.7z"/>
<path class="st5" d="M30,1525.7h299v69H30V1525.7z"/>
<path class="st6" d="M162,1553.6v-0.2h-13.2v-1.7H164v1.9c0,1.8,0,3.6-0.6,5.9l-2-0.2C162,1557.1,162,1555.4,162,1553.6L162,1553.6z
	 M156.4,1571.4c3.5,0,5.8-1,5.8-2.5c0-1.6-2.2-2.6-5.8-2.6c-3.5,0-5.8,0.9-5.8,2.6C150.6,1570.4,152.9,1571.4,156.4,1571.4z
	 M156.4,1564.8c4.8,0,7.8,1.5,7.8,4.1c0,2.6-3.1,4.1-7.8,4.1s-7.8-1.6-7.8-4.1C148.6,1566.3,151.6,1564.8,156.4,1564.8z M156.7,1561
	h9.9v1.7h-20.2v-1.7h8.3v-4.3h2.1V1561z M182.3,1561.4l-1,1.6c-2.6-0.8-4.5-2.6-5.4-4.8c-0.9,2.6-3,4.6-5.6,5.5l-1.1-1.6
	c3.4-1.2,5.6-4.1,5.6-7.3v-0.9h-5v-1.7h12v1.7h-4.9v0.9C176.9,1557.7,179,1560.3,182.3,1561.4z M179.6,1571.4c3.3,0,5.3-0.9,5.3-2.5
	c0-1.6-2-2.5-5.3-2.5c-3.4,0-5.4,0.9-5.4,2.5C174.2,1570.4,176.2,1571.4,179.6,1571.4z M179.6,1564.7c4.6,0,7.4,1.5,7.4,4.1
	c0,2.6-2.8,4.2-7.4,4.2c-4.6,0-7.4-1.5-7.4-4.2C172.2,1566.2,175,1564.7,179.6,1564.7z M186.7,1556.3h3.3v1.7h-3.3v6.2h-2.1v-13.5
	h2.1V1556.3z M205.3,1561.4l-1,1.6c-2.6-0.8-4.5-2.6-5.4-4.8c-0.9,2.6-3,4.6-5.6,5.5l-1.1-1.6c3.4-1.2,5.6-4.1,5.6-7.3v-0.9h-5v-1.7
	h12v1.7h-4.9v0.9C199.9,1557.7,202,1560.3,205.3,1561.4z M202.6,1571.4c3.3,0,5.3-0.9,5.3-2.5c0-1.6-2-2.5-5.3-2.5
	c-3.4,0-5.4,0.9-5.4,2.5C197.2,1570.4,199.2,1571.4,202.6,1571.4z M202.6,1564.7c4.6,0,7.4,1.5,7.4,4.1c0,2.6-2.8,4.2-7.4,4.2
	c-4.6,0-7.4-1.5-7.4-4.2C195.2,1566.2,198,1564.7,202.6,1564.7z M209.7,1556.3h3.3v1.7h-3.3v6.2h-2.1v-13.5h2.1V1556.3z"/>
<path class="st3" d="M30,1740.7h299v69H30V1740.7z"/>
<path class="st0" d="M127.3,1772.1v-5h-6.2v5H127.3z M118,1772.1v-5h-3.8v-2.5h20.1v2.5h-3.8v5h3.7v2.5h-19.8v-2.5H118L118,1772.1z
	 M130.5,1788.2v-3.7H118v3.7H130.5z M136.5,1779.3h-10.7v2.8h7.7v8.6h-18.6v-8.6h7.8v-2.8H112v-2.5h24.5V1779.3z M161.9,1763.9v14
	h-3.1v-14H161.9z M156.3,1775.1l-1.4,2.4c-3.2-0.9-5.5-2.9-6.8-5.4c-1.2,2.8-3.6,4.9-6.9,6l-1.5-2.4c4.2-1.3,6.7-4.5,6.7-7.8h-5.9
	v-2.5h14.8v2.5h-5.8C149.8,1770.9,152.2,1773.9,156.3,1775.1z M147.3,1788.3h15.5v2.4h-18.5v-7h14.6v-2.3h-14.7v-2.3h17.8v6.8h-14.7
	V1788.3z M181.5,1775.5l-3-0.3c0.5-2.9,0.6-5,0.7-6.7h-10.6v-2.5h13.6v1.6C182.2,1769.3,182.2,1772,181.5,1775.5L181.5,1775.5z
	 M183.8,1776.9l0.2,2.2c-5.6,1-12,1.1-16.7,1.1l-0.3-2.5c1.6,0,3.5,0,5.4-0.1v-5.6h3.1v5.5C178.2,1777.5,181.1,1777.3,183.8,1776.9
	L183.8,1776.9z M174.1,1782.4v5.5h15.3v2.5H171v-8H174.1z M188.5,1772.5h3.6v2.6h-3.6v9.2h-3.1v-20.3h3.1V1772.5z M199.5,1776.3v5.7
	c4.3,0,8-0.2,12.3-0.9l0.3,2.5c-4.6,0.8-8.7,1-13.5,1h-2.3v-10.7h9.4v-5h-9.5v-2.5h12.6v10.1L199.5,1776.3L199.5,1776.3z
	 M214,1763.8h3.1v27.2H214V1763.8z M238.9,1775.4l0.3,2.5c-3.9,0.6-7.2,0.7-13,0.7h-2.2v-13.1h13v2.5H227v2.8h9.1v2.4H227v2.9
	C232.2,1776.1,235.3,1776,238.9,1775.4L238.9,1775.4z M230,1783.8v4.4h11.7v-4.4H230z M227,1790.7v-9.4h17.7v9.4H227z M241.6,1763.9
	h3.1v16.1h-3.1V1763.9z"/>
<path class="st4" d="M30,1815.7h299v69H30V1815.7z"/>
<path class="st5" d="M30,1815.7h299v69H30V1815.7z"/>
<path class="st6" d="M171.6,1850.3l0.2,1.6c-3.3,0.6-6,0.7-10.9,0.7h-1.8V1842h10.7v1.7h-8.6v2.8h8v1.6h-8v2.9
	C165.8,1851,168.5,1850.9,171.6,1850.3L171.6,1850.3z M163.7,1856.7v4.3h10.5v-4.3H163.7z M161.7,1862.7v-7.6h14.5v7.6H161.7z
	 M174.2,1840.6h2.1v13.4h-2.1V1840.6z M193.8,1851.4l-1,1.6c-2.6-0.8-4.5-2.6-5.4-4.8c-0.9,2.6-3,4.6-5.6,5.5l-1.1-1.6
	c3.4-1.2,5.6-4.1,5.6-7.3v-0.9h-5v-1.7h12v1.7h-4.9v0.9C188.4,1847.7,190.5,1850.3,193.8,1851.4z M191.1,1861.4
	c3.3,0,5.3-0.9,5.3-2.5c0-1.6-2-2.5-5.3-2.5c-3.4,0-5.4,0.9-5.4,2.5C185.7,1860.4,187.7,1861.4,191.1,1861.4z M191.1,1854.7
	c4.6,0,7.4,1.5,7.4,4.1c0,2.6-2.8,4.2-7.4,4.2c-4.6,0-7.4-1.5-7.4-4.2C183.7,1856.2,186.5,1854.7,191.1,1854.7z M198.2,1846.3h3.3
	v1.7h-3.3v6.2h-2.1v-13.5h2.1V1846.3z"/>
<path class="st4" d="M30,1890.7h299v69H30V1890.7z"/>
<path class="st5" d="M30,1890.7h299v69H30V1890.7z"/>
<path class="st6" d="M171.6,1925.3l0.2,1.6c-3.3,0.6-6,0.7-10.9,0.7h-1.8V1917h10.7v1.7h-8.6v2.8h8v1.6h-8v2.9
	C165.8,1926,168.5,1925.9,171.6,1925.3L171.6,1925.3z M163.7,1931.7v4.3h10.5v-4.3H163.7z M161.7,1937.7v-7.6h14.5v7.6H161.7z
	 M174.2,1915.6h2.1v13.4h-2.1V1915.6z M193.8,1926.4l-1,1.6c-2.6-0.8-4.5-2.6-5.4-4.8c-0.9,2.6-3,4.6-5.6,5.5l-1.1-1.6
	c3.4-1.2,5.6-4.1,5.6-7.3v-0.9h-5v-1.7h12v1.7h-4.9v0.9C188.4,1922.7,190.5,1925.3,193.8,1926.4z M191.1,1936.4
	c3.3,0,5.3-0.9,5.3-2.5c0-1.6-2-2.5-5.3-2.5c-3.4,0-5.4,0.9-5.4,2.5C185.7,1935.4,187.7,1936.4,191.1,1936.4z M191.1,1929.7
	c4.6,0,7.4,1.5,7.4,4.1c0,2.6-2.8,4.2-7.4,4.2c-4.6,0-7.4-1.5-7.4-4.2C183.7,1931.2,186.5,1929.7,191.1,1929.7z M198.2,1921.3h3.3
	v1.7h-3.3v6.2h-2.1v-13.5h2.1V1921.3z"/>
<path class="st4" d="M30,1965.7h299v69H30V1965.7z"/>
<path class="st5" d="M30,1965.7h299v69H30V1965.7z"/>
<path class="st6" d="M171.6,2000.3l0.2,1.6c-3.3,0.6-6,0.6-10.9,0.6h-1.8V1992h10.7v1.6h-8.6v2.8h8v1.6h-8v2.9
	C165.8,2001,168.5,2000.9,171.6,2000.3L171.6,2000.3z M163.7,2006.7v4.3h10.5v-4.3H163.7z M161.7,2012.7v-7.6h14.5v7.6H161.7z
	 M174.2,1990.6h2.1v13.4h-2.1V1990.6z M193.8,2001.4l-1,1.6c-2.6-0.8-4.5-2.6-5.4-4.8c-0.9,2.6-3,4.6-5.6,5.5l-1.1-1.6
	c3.4-1.2,5.6-4.1,5.6-7.3v-0.9h-5v-1.6h12v1.6h-4.9v0.9C188.4,1997.7,190.5,2000.3,193.8,2001.4z M191.1,2011.4
	c3.3,0,5.3-0.9,5.3-2.5c0-1.6-2-2.5-5.3-2.5c-3.4,0-5.4,0.9-5.4,2.5C185.7,2010.4,187.7,2011.4,191.1,2011.4z M191.1,2004.7
	c4.6,0,7.4,1.5,7.4,4.1c0,2.6-2.8,4.2-7.4,4.2c-4.6,0-7.4-1.5-7.4-4.2C183.7,2006.2,186.5,2004.7,191.1,2004.7z M198.2,1996.3h3.3
	v1.7h-3.3v6.1h-2.1v-13.5h2.1V1996.3L198.2,1996.3z"/>
<path class="st3" d="M30,2105.7h299v69H30V2105.7z"/>
<path class="st0" d="M153.9,2140.5l-3-0.3c0.5-2.9,0.6-5,0.7-6.7H141v-2.5h13.6v1.6C154.6,2134.3,154.6,2137,153.9,2140.5z
	 M156.2,2141.9l0.2,2.2c-5.6,1-12,1.1-16.7,1.1l-0.3-2.5c1.6,0,3.5,0,5.4-0.1v-5.6h3.1v5.5C150.6,2142.5,153.5,2142.3,156.2,2141.9
	L156.2,2141.9z M146.5,2147.4v5.5h15.3v2.5h-18.4v-8C143.4,2147.4,146.5,2147.4,146.5,2147.4z M160.9,2137.5h3.6v2.6h-3.6v9.2h-3.1
	v-20.3h3.1V2137.5z M171.9,2141.3v5.7c4.3,0,8-0.2,12.3-0.9l0.3,2.5c-4.6,0.8-8.7,1-13.5,1h-2.3v-10.7h9.4v-5h-9.5v-2.5h12.6v10.1
	H171.9L171.9,2141.3z M186.4,2128.8h3.1v27.2h-3.1V2128.8z M211.3,2140.4l0.3,2.5c-3.9,0.6-7.2,0.7-13,0.7h-2.2v-13.1h13v2.5h-9.9
	v2.8h9.1v2.4h-9.1v2.9C204.6,2141.1,207.7,2141,211.3,2140.4L211.3,2140.4z M202.4,2148.8v4.4h11.7v-4.4H202.4z M199.4,2155.7v-9.4
	h17.7v9.4H199.4z M214,2128.9h3.1v16.1H214V2128.9z"/>
<path class="st4" d="M30,2180.7h299v69H30V2180.7z"/>
<path class="st5" d="M30,2180.7h299v69H30V2180.7z"/>
<path class="st6" d="M174.2,2211.4h-5.6c-1.4,3.6-4.9,6.2-9.7,7.6l-0.8-1.6c5.4-1.6,8.7-4.6,9.1-8.4h-7.9v-1.6h10.1
	c0,0.8-0.1,1.6-0.2,2.4h5.1v-4.1h2.1v13.4h-2.1v-2.9h-5.9v-1.7h5.9V2211.4z M169,2226.3c3.3,0,5.4-1,5.4-2.7c0-1.7-2.1-2.7-5.4-2.7
	c-3.3,0-5.4,1-5.4,2.7C163.6,2225.3,165.7,2226.3,169,2226.3z M169,2219.3c4.5,0,7.4,1.6,7.4,4.3c0,2.7-2.9,4.3-7.4,4.3
	s-7.4-1.6-7.4-4.3C161.5,2220.9,164.4,2219.3,169,2219.3z M184.2,2215.7v5.2c3.7,0,7-0.2,10.9-0.8l0.2,1.7
	c-4.1,0.7-7.4,0.8-11.3,0.8h-1.9v-8.6h8.2v-4.7H182v-1.7h10.4v8H184.2L184.2,2215.7z M197.2,2205.6h2.1v22.5h-2.1V2205.6z"/>
<path class="st4" d="M30,2255.7h299v69H30V2255.7z"/>
<path class="st5" d="M30,2255.7h299v69H30V2255.7z"/>
<path class="st6" d="M174.2,2286.4h-5.6c-1.4,3.6-4.9,6.2-9.7,7.6l-0.8-1.6c5.4-1.6,8.7-4.6,9.1-8.4h-7.9v-1.6h10.1
	c0,0.8-0.1,1.6-0.2,2.4h5.1v-4.1h2.1v13.4h-2.1v-2.9h-5.9v-1.7h5.9V2286.4z M169,2301.3c3.3,0,5.4-1,5.4-2.7c0-1.7-2.1-2.7-5.4-2.7
	c-3.3,0-5.4,1-5.4,2.7C163.6,2300.3,165.7,2301.3,169,2301.3z M169,2294.3c4.5,0,7.4,1.6,7.4,4.3c0,2.7-2.9,4.3-7.4,4.3
	s-7.4-1.6-7.4-4.3C161.5,2295.9,164.4,2294.3,169,2294.3z M184.2,2290.7v5.2c3.7,0,7-0.2,10.9-0.8l0.2,1.7
	c-4.1,0.7-7.4,0.8-11.3,0.8h-1.9v-8.6h8.2v-4.7H182v-1.7h10.4v8H184.2L184.2,2290.7z M197.2,2280.6h2.1v22.5h-2.1V2280.6z"/>
<circle class="st0" cx="224.3" cy="375.2" r="8"/>
</svg>
