<svg width="393" height="2395" viewBox="0 0 393 2395" fill="none" xmlns="http://www.w3.org/2000/svg">
    <circle cx="155" cy="155" r="155" fill="#DA251C"/>
    <path d="M72.958 145.9v19.6c4.3-.1 8.2-.35 12.6-1.15l.5 5.35c-5.6 1.05-10.5 1.25-16.4 1.25h-3.2v-30.4h17.05v5.35h-10.55zm25.45-10.7h6.25v46.1h-6.25v-23.05h-4.15v20.9h-6.15V136.1h6.15v16.85h4.15V135.2zm29.546 27.1v8.65h7.95v-8.65h-7.95zm-.75-18.15v12.95h9.4v-12.95h-9.4zm15.25 26.8h10.4v5.3h-41.75v-5.3h10.3v-8.65h-6.75v-5.2h6v-12.95h-6.25v-5.25h35v5.25h-6.25v12.95h6.15v5.2h-6.85v8.65zM188.7 135.2h6.6v46.2h-6.6v-46.2zm-18.15 3.25c6.95 0 12.1 6.3 12.1 16.4 0 10.15-5.15 16.5-12.1 16.5-6.95 0-12.1-6.35-12.1-16.5 0-10.1 5.15-16.4 12.1-16.4zm0 5.95c-3.4 0-5.75 3.65-5.75 10.45 0 6.85 2.35 10.5 5.75 10.5s5.75-3.65 5.75-10.5c0-6.8-2.35-10.45-5.75-10.45zm49.546-5.6v6.7c0 8.3 3.25 16.65 10.65 20.3l-4 5.2c-4.8-2.45-8.05-6.9-9.95-12.4-2 5.85-5.45 10.7-10.65 13.25l-3.95-5.35c7.75-3.65 11.25-12.45 11.25-21v-6.7h6.65zm25.8 14.15v5.5h-6.7v22.85h-6.6v-46.05h6.6v17.7h6.7z" fill="#fff"/>
    <path stroke="#CFCFCF" d="M155.5 310v136M392.5 445v1765M155 445.5h237M303 589.5h89M303 1029.5h89M303 1844.5h89M303 2209.5h89"/>
    <path stroke="#DA251C" d="M3.5 555.5h299v69H3.5z"/>
    <path d="M107.925 581.57h12.84c0 8.07-3.24 14.91-12.54 19.41l-1.65-2.46c7.11-3.42 10.47-8.19 11.01-14.43h-9.66v-2.52zm17.73-2.85h3.09v27.09h-3.09v-27.09zm38.296 7.14-1.05 2.37c-4.5-.54-8.19-2.4-9.93-5.1-1.74 2.7-5.43 4.56-9.93 5.1l-1.05-2.37c5.43-.54 9.39-3.21 9.39-6.24v-.78h3.18v.78c0 3.03 3.96 5.7 9.39 6.24zm1.29 6.3h-10.74v2.28h7.65v6.54h-15.42v2.22h16.2v2.37h-19.26v-6.78h15.45v-2.01h-15.51v-2.34h7.77v-2.28h-10.68v-2.46h24.54v2.46zm26.326-1.95.3 2.46c-3.87.63-7.2.72-13.02.72h-2.25v-13.11h12.96v2.49h-9.9v2.79h9.12v2.43h-9.12v2.94c5.22 0 8.31-.12 11.91-.72zm-8.88 8.37v4.44h11.67v-4.44h-11.67zm-3.03 6.9v-9.36h17.73v9.36h-17.73zm14.64-26.76h3.09v16.14h-3.09v-16.14z" fill="#DA251C"/>
    <path fill="#FBFBFB" d="M3.5 630.5h299v69H3.5z"/>
    <path stroke="#CFCFCF" d="M3.5 630.5h299v69H3.5z"/>
    <path d="M147.027 664.35v-3.3h-11.125v3.3h11.125zm2.05-8.025v9.7h-15.2v-9.7h2.025v3.075h11.125v-3.075h2.05zm2.575 12.4v1.65h-9.2v7.5h-2.05v-7.5h-9.1v-1.65h20.35zm15.673-2.45-.975 1.6c-2.55-.825-4.475-2.6-5.425-4.825-.95 2.55-2.975 4.55-5.65 5.5l-1.05-1.625c3.375-1.175 5.625-4.075 5.625-7.3v-.875h-5.025v-1.65h12.025v1.65h-4.95v.875c0 2.925 2.125 5.55 5.425 6.65zM164.6 676.2c3.3 0 5.325-.925 5.325-2.525 0-1.575-2.025-2.5-5.325-2.5-3.35 0-5.35.925-5.35 2.5 0 1.6 2 2.525 5.35 2.525zm0-6.65c4.55 0 7.375 1.525 7.375 4.125 0 2.625-2.825 4.15-7.375 4.15-4.6 0-7.4-1.525-7.4-4.15 0-2.6 2.8-4.125 7.4-4.125zm7.125-8.45h3.325v1.725h-3.325v6.15h-2.05V655.45h2.05v5.65z" fill="#626262"/>
    <path fill="#FBFBFB" d="M3.5 780.5h299v69H3.5z"/>
    <path stroke="#CFCFCF" d="M3.5 780.5h299v69H3.5z"/>
    <path d="M147.027 814.35v-3.3h-11.125v3.3h11.125zm2.05-8.025v9.7h-15.2v-9.7h2.025v3.075h11.125v-3.075h2.05zm2.575 12.4v1.65h-9.2v7.5h-2.05v-7.5h-9.1v-1.65h20.35zm15.673-2.45-.975 1.6c-2.55-.825-4.475-2.6-5.425-4.825-.95 2.55-2.975 4.55-5.65 5.5l-1.05-1.625c3.375-1.175 5.625-4.075 5.625-7.3v-.875h-5.025v-1.65h12.025v1.65h-4.95v.875c0 2.925 2.125 5.55 5.425 6.65zM164.6 826.2c3.3 0 5.325-.925 5.325-2.525 0-1.575-2.025-2.5-5.325-2.5-3.35 0-5.35.925-5.35 2.5 0 1.6 2 2.525 5.35 2.525zm0-6.65c4.55 0 7.375 1.525 7.375 4.125 0 2.625-2.825 4.15-7.375 4.15-4.6 0-7.4-1.525-7.4-4.15 0-2.6 2.8-4.125 7.4-4.125zm7.125-8.45h3.325v1.725h-3.325v6.15h-2.05V805.45h2.05v5.65z" fill="#626262"/>
    <path fill="#FBFBFB" d="M3.5 855.5h299v69H3.5z"/>
    <path stroke="#CFCFCF" d="M3.5 855.5h299v69H3.5z"/>
    <path d="M147.027 889.35v-3.3h-11.125v3.3h11.125zm2.05-8.025v9.7h-15.2v-9.7h2.025v3.075h11.125v-3.075h2.05zm2.575 12.4v1.65h-9.2v7.5h-2.05v-7.5h-9.1v-1.65h20.35zm15.673-2.45-.975 1.6c-2.55-.825-4.475-2.6-5.425-4.825-.95 2.55-2.975 4.55-5.65 5.5l-1.05-1.625c3.375-1.175 5.625-4.075 5.625-7.3v-.875h-5.025v-1.65h12.025v1.65h-4.95v.875c0 2.925 2.125 5.55 5.425 6.65zM164.6 901.2c3.3 0 5.325-.925 5.325-2.525 0-1.575-2.025-2.5-5.325-2.5-3.35 0-5.35.925-5.35 2.5 0 1.6 2 2.525 5.35 2.525zm0-6.65c4.55 0 7.375 1.525 7.375 4.125 0 2.625-2.825 4.15-7.375 4.15-4.6 0-7.4-1.525-7.4-4.15 0-2.6 2.8-4.125 7.4-4.125zm7.125-8.45h3.325v1.725h-3.325v6.15h-2.05V880.45h2.05v5.65z" fill="#626262"/>
    <path fill="#FBFBFB" d="M3.5 705.5h299v69H3.5z"/>
    <path stroke="#CFCFCF" d="M3.5 705.5h299v69H3.5z"/>
    <path d="M147.027 739.35v-3.3h-11.125v3.3h11.125zm2.05-8.025v9.7h-15.2v-9.7h2.025v3.075h11.125v-3.075h2.05zm2.575 12.4v1.65h-9.2v7.5h-2.05v-7.5h-9.1v-1.65h20.35zm15.673-2.45-.975 1.6c-2.55-.825-4.475-2.6-5.425-4.825-.95 2.55-2.975 4.55-5.65 5.5l-1.05-1.625c3.375-1.175 5.625-4.075 5.625-7.3v-.875h-5.025v-1.65h12.025v1.65h-4.95v.875c0 2.925 2.125 5.55 5.425 6.65zM164.6 751.2c3.3 0 5.325-.925 5.325-2.525 0-1.575-2.025-2.5-5.325-2.5-3.35 0-5.35.925-5.35 2.5 0 1.6 2 2.525 5.35 2.525zm0-6.65c4.55 0 7.375 1.525 7.375 4.125 0 2.625-2.825 4.15-7.375 4.15-4.6 0-7.4-1.525-7.4-4.15 0-2.6 2.8-4.125 7.4-4.125zm7.125-8.45h3.325v1.725h-3.325v6.15h-2.05V730.45h2.05v5.65z" fill="#626262"/>
    <path stroke="#DA251C" d="M3.5 995.5h299v69H3.5z"/>
    <path d="M123.525 1028.2v6.3h-2.91v-15.27h2.91v6.45h2.85v-6.93h2.94v16.62h-2.94v-7.17h-2.85zm-3.54 2.94-1.65 2.31c-2.4-.93-4.08-2.73-5.1-4.89-.99 2.49-2.76 4.59-5.37 5.73l-1.62-2.37c3.63-1.65 5.46-5.04 5.46-8.13v-3.42h3v3.42c0 3 1.77 5.97 5.28 7.35zm.3 12.3c3.81 0 6.09-.93 6.09-2.58 0-1.68-2.28-2.61-6.09-2.61s-6.09.93-6.09 2.61c0 1.65 2.28 2.58 6.09 2.58zm0-7.56c5.64 0 9.18 1.86 9.18 4.98 0 3.09-3.54 4.95-9.18 4.95s-9.18-1.86-9.18-4.95c0-3.12 3.54-4.98 9.18-4.98zm36.406-3.9-1.56 2.46c-3-1.05-5.19-3.21-6.39-5.85-1.17 2.97-3.42 5.28-6.6 6.42l-1.68-2.4c4.35-1.47 6.66-5.13 6.66-9.09v-3.15h3.12v3.18c0 3.6 2.34 7.02 6.45 8.43zm-8.82 4.77v6.03h15.09v2.52h-18.18v-8.55h3.09zm14.01-9.93h3.84v2.55h-3.84v9.3h-3.09v-19.98h3.09v8.13zm29.686 3.39.3 2.46c-3.87.63-7.2.72-13.02.72h-2.25v-13.11h12.96v2.49h-9.9v2.79h9.12v2.43h-9.12v2.94c5.22 0 8.31-.12 11.91-.72zm-8.88 8.37v4.44h11.67v-4.44h-11.67zm-3.03 6.9v-9.36h17.73v9.36h-17.73zm14.64-26.76h3.09v16.14h-3.09v-16.14z" fill="#DA251C"/>
    <path fill="#FBFBFB" d="M3.5 1070.5h299v69H3.5z"/>
    <path stroke="#CFCFCF" d="M3.5 1070.5h299v69H3.5z"/>
    <path d="M135.503 1098.47v-.25h-13.25v-1.65h15.275v1.9c0 1.8 0 3.63-.625 5.93l-2-.23c.6-2.29.6-3.95.6-5.7zm-5.625 17.76c3.525 0 5.775-.96 5.775-2.51 0-1.6-2.25-2.55-5.775-2.55-3.5 0-5.75.95-5.75 2.55 0 1.55 2.25 2.51 5.75 2.51zm0-6.63c4.775 0 7.825 1.52 7.825 4.12 0 2.56-3.05 4.11-7.825 4.11s-7.8-1.55-7.8-4.11c0-2.6 3.025-4.12 7.8-4.12zm.325-3.73h9.85v1.65h-20.175v-1.65h8.275v-4.3h2.05v4.3zm25.623.4-.975 1.6c-2.55-.82-4.475-2.6-5.425-4.82-.95 2.55-2.975 4.55-5.65 5.5l-1.05-1.63c3.375-1.17 5.625-4.07 5.625-7.3v-.87h-5.025v-1.65h12.025v1.65h-4.95v.87c0 2.93 2.125 5.55 5.425 6.65zm-2.725 9.93c3.3 0 5.325-.93 5.325-2.53 0-1.57-2.025-2.5-5.325-2.5-3.35 0-5.35.93-5.35 2.5 0 1.6 2 2.53 5.35 2.53zm0-6.65c4.55 0 7.375 1.52 7.375 4.12 0 2.63-2.825 4.16-7.375 4.16-4.6 0-7.4-1.53-7.4-4.16 0-2.6 2.8-4.12 7.4-4.12zm7.125-8.45h3.325v1.72h-3.325v6.15h-2.05v-13.52h2.05v5.65zm18.598 5.17-.975 1.6c-2.55-.82-4.475-2.6-5.425-4.82-.95 2.55-2.975 4.55-5.65 5.5l-1.05-1.63c3.375-1.17 5.625-4.07 5.625-7.3v-.87h-5.025v-1.65h12.025v1.65h-4.95v.87c0 2.93 2.125 5.55 5.425 6.65zm-2.725 9.93c3.3 0 5.325-.93 5.325-2.53 0-1.57-2.025-2.5-5.325-2.5-3.35 0-5.35.93-5.35 2.5 0 1.6 2 2.53 5.35 2.53zm0-6.65c4.55 0 7.375 1.52 7.375 4.12 0 2.63-2.825 4.16-7.375 4.16-4.6 0-7.4-1.53-7.4-4.16 0-2.6 2.8-4.12 7.4-4.12zm7.125-8.45h3.325v1.72h-3.325v6.15h-2.05v-13.52h2.05v5.65z" fill="#626262"/>
    <path fill="#FBFBFB" d="M3.5 1295.5h299v69H3.5z"/>
    <path stroke="#CFCFCF" d="M3.5 1295.5h299v69H3.5z"/>
    <path d="M135.503 1323.47v-.25h-13.25v-1.65h15.275v1.9c0 1.8 0 3.63-.625 5.93l-2-.23c.6-2.29.6-3.95.6-5.7zm-5.625 17.76c3.525 0 5.775-.96 5.775-2.51 0-1.6-2.25-2.55-5.775-2.55-3.5 0-5.75.95-5.75 2.55 0 1.55 2.25 2.51 5.75 2.51zm0-6.63c4.775 0 7.825 1.52 7.825 4.12 0 2.56-3.05 4.11-7.825 4.11s-7.8-1.55-7.8-4.11c0-2.6 3.025-4.12 7.8-4.12zm.325-3.73h9.85v1.65h-20.175v-1.65h8.275v-4.3h2.05v4.3zm25.623.4-.975 1.6c-2.55-.82-4.475-2.6-5.425-4.82-.95 2.55-2.975 4.55-5.65 5.5l-1.05-1.63c3.375-1.17 5.625-4.07 5.625-7.3v-.87h-5.025v-1.65h12.025v1.65h-4.95v.87c0 2.93 2.125 5.55 5.425 6.65zm-2.725 9.93c3.3 0 5.325-.93 5.325-2.53 0-1.57-2.025-2.5-5.325-2.5-3.35 0-5.35.93-5.35 2.5 0 1.6 2 2.53 5.35 2.53zm0-6.65c4.55 0 7.375 1.52 7.375 4.12 0 2.63-2.825 4.16-7.375 4.16-4.6 0-7.4-1.53-7.4-4.16 0-2.6 2.8-4.12 7.4-4.12zm7.125-8.45h3.325v1.72h-3.325v6.15h-2.05v-13.52h2.05v5.65zm18.598 5.17-.975 1.6c-2.55-.82-4.475-2.6-5.425-4.82-.95 2.55-2.975 4.55-5.65 5.5l-1.05-1.63c3.375-1.17 5.625-4.07 5.625-7.3v-.87h-5.025v-1.65h12.025v1.65h-4.95v.87c0 2.93 2.125 5.55 5.425 6.65zm-2.725 9.93c3.3 0 5.325-.93 5.325-2.53 0-1.57-2.025-2.5-5.325-2.5-3.35 0-5.35.93-5.35 2.5 0 1.6 2 2.53 5.35 2.53zm0-6.65c4.55 0 7.375 1.52 7.375 4.12 0 2.63-2.825 4.16-7.375 4.16-4.6 0-7.4-1.53-7.4-4.16 0-2.6 2.8-4.12 7.4-4.12zm7.125-8.45h3.325v1.72h-3.325v6.15h-2.05v-13.52h2.05v5.65z" fill="#626262"/>
    <path fill="#FBFBFB" d="M3.5 1520.5h299v69H3.5z"/>
    <path stroke="#CFCFCF" d="M3.5 1520.5h299v69H3.5z"/>
    <path d="M135.503 1548.47v-.25h-13.25v-1.65h15.275v1.9c0 1.8 0 3.63-.625 5.93l-2-.23c.6-2.29.6-3.95.6-5.7zm-5.625 17.76c3.525 0 5.775-.96 5.775-2.51 0-1.6-2.25-2.55-5.775-2.55-3.5 0-5.75.95-5.75 2.55 0 1.55 2.25 2.51 5.75 2.51zm0-6.63c4.775 0 7.825 1.52 7.825 4.12 0 2.56-3.05 4.11-7.825 4.11s-7.8-1.55-7.8-4.11c0-2.6 3.025-4.12 7.8-4.12zm.325-3.73h9.85v1.65h-20.175v-1.65h8.275v-4.3h2.05v4.3zm25.623.4-.975 1.6c-2.55-.82-4.475-2.6-5.425-4.82-.95 2.55-2.975 4.55-5.65 5.5l-1.05-1.63c3.375-1.17 5.625-4.07 5.625-7.3v-.87h-5.025v-1.65h12.025v1.65h-4.95v.87c0 2.93 2.125 5.55 5.425 6.65zm-2.725 9.93c3.3 0 5.325-.93 5.325-2.53 0-1.57-2.025-2.5-5.325-2.5-3.35 0-5.35.93-5.35 2.5 0 1.6 2 2.53 5.35 2.53zm0-6.65c4.55 0 7.375 1.52 7.375 4.12 0 2.63-2.825 4.16-7.375 4.16-4.6 0-7.4-1.53-7.4-4.16 0-2.6 2.8-4.12 7.4-4.12zm7.125-8.45h3.325v1.72h-3.325v6.15h-2.05v-13.52h2.05v5.65zm18.598 5.17-.975 1.6c-2.55-.82-4.475-2.6-5.425-4.82-.95 2.55-2.975 4.55-5.65 5.5l-1.05-1.63c3.375-1.17 5.625-4.07 5.625-7.3v-.87h-5.025v-1.65h12.025v1.65h-4.95v.87c0 2.93 2.125 5.55 5.425 6.65zm-2.725 9.93c3.3 0 5.325-.93 5.325-2.53 0-1.57-2.025-2.5-5.325-2.5-3.35 0-5.35.93-5.35 2.5 0 1.6 2 2.53 5.35 2.53zm0-6.65c4.55 0 7.375 1.52 7.375 4.12 0 2.63-2.825 4.16-7.375 4.16-4.6 0-7.4-1.53-7.4-4.16 0-2.6 2.8-4.12 7.4-4.12zm7.125-8.45h3.325v1.72h-3.325v6.15h-2.05v-13.52h2.05v5.65z" fill="#626262"/>
    <path fill="#FBFBFB" d="M3.5 1220.5h299v69H3.5z"/>
    <path stroke="#CFCFCF" d="M3.5 1220.5h299v69H3.5z"/>
    <path d="M135.503 1248.47v-.25h-13.25v-1.65h15.275v1.9c0 1.8 0 3.63-.625 5.93l-2-.23c.6-2.29.6-3.95.6-5.7zm-5.625 17.76c3.525 0 5.775-.96 5.775-2.51 0-1.6-2.25-2.55-5.775-2.55-3.5 0-5.75.95-5.75 2.55 0 1.55 2.25 2.51 5.75 2.51zm0-6.63c4.775 0 7.825 1.52 7.825 4.12 0 2.56-3.05 4.11-7.825 4.11s-7.8-1.55-7.8-4.11c0-2.6 3.025-4.12 7.8-4.12zm.325-3.73h9.85v1.65h-20.175v-1.65h8.275v-4.3h2.05v4.3zm25.623.4-.975 1.6c-2.55-.82-4.475-2.6-5.425-4.82-.95 2.55-2.975 4.55-5.65 5.5l-1.05-1.63c3.375-1.17 5.625-4.07 5.625-7.3v-.87h-5.025v-1.65h12.025v1.65h-4.95v.87c0 2.93 2.125 5.55 5.425 6.65zm-2.725 9.93c3.3 0 5.325-.93 5.325-2.53 0-1.57-2.025-2.5-5.325-2.5-3.35 0-5.35.93-5.35 2.5 0 1.6 2 2.53 5.35 2.53zm0-6.65c4.55 0 7.375 1.52 7.375 4.12 0 2.63-2.825 4.16-7.375 4.16-4.6 0-7.4-1.53-7.4-4.16 0-2.6 2.8-4.12 7.4-4.12zm7.125-8.45h3.325v1.72h-3.325v6.15h-2.05v-13.52h2.05v5.65zm18.598 5.17-.975 1.6c-2.55-.82-4.475-2.6-5.425-4.82-.95 2.55-2.975 4.55-5.65 5.5l-1.05-1.63c3.375-1.17 5.625-4.07 5.625-7.3v-.87h-5.025v-1.65h12.025v1.65h-4.95v.87c0 2.93 2.125 5.55 5.425 6.65zm-2.725 9.93c3.3 0 5.325-.93 5.325-2.53 0-1.57-2.025-2.5-5.325-2.5-3.35 0-5.35.93-5.35 2.5 0 1.6 2 2.53 5.35 2.53zm0-6.65c4.55 0 7.375 1.52 7.375 4.12 0 2.63-2.825 4.16-7.375 4.16-4.6 0-7.4-1.53-7.4-4.16 0-2.6 2.8-4.12 7.4-4.12zm7.125-8.45h3.325v1.72h-3.325v6.15h-2.05v-13.52h2.05v5.65z" fill="#626262"/>
    <path fill="#FBFBFB" d="M3.5 1445.5h299v69H3.5z"/>
    <path stroke="#CFCFCF" d="M3.5 1445.5h299v69H3.5z"/>
    <path d="M135.503 1473.47v-.25h-13.25v-1.65h15.275v1.9c0 1.8 0 3.63-.625 5.93l-2-.23c.6-2.29.6-3.95.6-5.7zm-5.625 17.76c3.525 0 5.775-.96 5.775-2.51 0-1.6-2.25-2.55-5.775-2.55-3.5 0-5.75.95-5.75 2.55 0 1.55 2.25 2.51 5.75 2.51zm0-6.63c4.775 0 7.825 1.52 7.825 4.12 0 2.56-3.05 4.11-7.825 4.11s-7.8-1.55-7.8-4.11c0-2.6 3.025-4.12 7.8-4.12zm.325-3.73h9.85v1.65h-20.175v-1.65h8.275v-4.3h2.05v4.3zm25.623.4-.975 1.6c-2.55-.82-4.475-2.6-5.425-4.82-.95 2.55-2.975 4.55-5.65 5.5l-1.05-1.63c3.375-1.17 5.625-4.07 5.625-7.3v-.87h-5.025v-1.65h12.025v1.65h-4.95v.87c0 2.93 2.125 5.55 5.425 6.65zm-2.725 9.93c3.3 0 5.325-.93 5.325-2.53 0-1.57-2.025-2.5-5.325-2.5-3.35 0-5.35.93-5.35 2.5 0 1.6 2 2.53 5.35 2.53zm0-6.65c4.55 0 7.375 1.52 7.375 4.12 0 2.63-2.825 4.16-7.375 4.16-4.6 0-7.4-1.53-7.4-4.16 0-2.6 2.8-4.12 7.4-4.12zm7.125-8.45h3.325v1.72h-3.325v6.15h-2.05v-13.52h2.05v5.65zm18.598 5.17-.975 1.6c-2.55-.82-4.475-2.6-5.425-4.82-.95 2.55-2.975 4.55-5.65 5.5l-1.05-1.63c3.375-1.17 5.625-4.07 5.625-7.3v-.87h-5.025v-1.65h12.025v1.65h-4.95v.87c0 2.93 2.125 5.55 5.425 6.65zm-2.725 9.93c3.3 0 5.325-.93 5.325-2.53 0-1.57-2.025-2.5-5.325-2.5-3.35 0-5.35.93-5.35 2.5 0 1.6 2 2.53 5.35 2.53zm0-6.65c4.55 0 7.375 1.52 7.375 4.12 0 2.63-2.825 4.16-7.375 4.16-4.6 0-7.4-1.53-7.4-4.16 0-2.6 2.8-4.12 7.4-4.12zm7.125-8.45h3.325v1.72h-3.325v6.15h-2.05v-13.52h2.05v5.65z" fill="#626262"/>
    <path fill="#FBFBFB" d="M3.5 1670.5h299v69H3.5z"/>
    <path stroke="#CFCFCF" d="M3.5 1670.5h299v69H3.5z"/>
    <path d="M135.503 1698.47v-.25h-13.25v-1.65h15.275v1.9c0 1.8 0 3.63-.625 5.93l-2-.23c.6-2.29.6-3.95.6-5.7zm-5.625 17.76c3.525 0 5.775-.96 5.775-2.51 0-1.6-2.25-2.55-5.775-2.55-3.5 0-5.75.95-5.75 2.55 0 1.55 2.25 2.51 5.75 2.51zm0-6.63c4.775 0 7.825 1.52 7.825 4.12 0 2.56-3.05 4.11-7.825 4.11s-7.8-1.55-7.8-4.11c0-2.6 3.025-4.12 7.8-4.12zm.325-3.73h9.85v1.65h-20.175v-1.65h8.275v-4.3h2.05v4.3zm25.623.4-.975 1.6c-2.55-.82-4.475-2.6-5.425-4.82-.95 2.55-2.975 4.55-5.65 5.5l-1.05-1.63c3.375-1.17 5.625-4.07 5.625-7.3v-.87h-5.025v-1.65h12.025v1.65h-4.95v.87c0 2.93 2.125 5.55 5.425 6.65zm-2.725 9.93c3.3 0 5.325-.93 5.325-2.53 0-1.57-2.025-2.5-5.325-2.5-3.35 0-5.35.93-5.35 2.5 0 1.6 2 2.53 5.35 2.53zm0-6.65c4.55 0 7.375 1.52 7.375 4.12 0 2.63-2.825 4.16-7.375 4.16-4.6 0-7.4-1.53-7.4-4.16 0-2.6 2.8-4.12 7.4-4.12zm7.125-8.45h3.325v1.72h-3.325v6.15h-2.05v-13.52h2.05v5.65zm18.598 5.17-.975 1.6c-2.55-.82-4.475-2.6-5.425-4.82-.95 2.55-2.975 4.55-5.65 5.5l-1.05-1.63c3.375-1.17 5.625-4.07 5.625-7.3v-.87h-5.025v-1.65h12.025v1.65h-4.95v.87c0 2.93 2.125 5.55 5.425 6.65zm-2.725 9.93c3.3 0 5.325-.93 5.325-2.53 0-1.57-2.025-2.5-5.325-2.5-3.35 0-5.35.93-5.35 2.5 0 1.6 2 2.53 5.35 2.53zm0-6.65c4.55 0 7.375 1.52 7.375 4.12 0 2.63-2.825 4.16-7.375 4.16-4.6 0-7.4-1.53-7.4-4.16 0-2.6 2.8-4.12 7.4-4.12zm7.125-8.45h3.325v1.72h-3.325v6.15h-2.05v-13.52h2.05v5.65z" fill="#626262"/>
    <path fill="#FBFBFB" d="M3.5 1145.5h299v69H3.5z"/>
    <path stroke="#CFCFCF" d="M3.5 1145.5h299v69H3.5z"/>
    <path d="M135.503 1173.47v-.25h-13.25v-1.65h15.275v1.9c0 1.8 0 3.63-.625 5.93l-2-.23c.6-2.29.6-3.95.6-5.7zm-5.625 17.76c3.525 0 5.775-.96 5.775-2.51 0-1.6-2.25-2.55-5.775-2.55-3.5 0-5.75.95-5.75 2.55 0 1.55 2.25 2.51 5.75 2.51zm0-6.63c4.775 0 7.825 1.52 7.825 4.12 0 2.56-3.05 4.11-7.825 4.11s-7.8-1.55-7.8-4.11c0-2.6 3.025-4.12 7.8-4.12zm.325-3.73h9.85v1.65h-20.175v-1.65h8.275v-4.3h2.05v4.3zm25.623.4-.975 1.6c-2.55-.82-4.475-2.6-5.425-4.82-.95 2.55-2.975 4.55-5.65 5.5l-1.05-1.63c3.375-1.17 5.625-4.07 5.625-7.3v-.87h-5.025v-1.65h12.025v1.65h-4.95v.87c0 2.93 2.125 5.55 5.425 6.65zm-2.725 9.93c3.3 0 5.325-.93 5.325-2.53 0-1.57-2.025-2.5-5.325-2.5-3.35 0-5.35.93-5.35 2.5 0 1.6 2 2.53 5.35 2.53zm0-6.65c4.55 0 7.375 1.52 7.375 4.12 0 2.63-2.825 4.16-7.375 4.16-4.6 0-7.4-1.53-7.4-4.16 0-2.6 2.8-4.12 7.4-4.12zm7.125-8.45h3.325v1.72h-3.325v6.15h-2.05v-13.52h2.05v5.65zm18.598 5.17-.975 1.6c-2.55-.82-4.475-2.6-5.425-4.82-.95 2.55-2.975 4.55-5.65 5.5l-1.05-1.63c3.375-1.17 5.625-4.07 5.625-7.3v-.87h-5.025v-1.65h12.025v1.65h-4.95v.87c0 2.93 2.125 5.55 5.425 6.65zm-2.725 9.93c3.3 0 5.325-.93 5.325-2.53 0-1.57-2.025-2.5-5.325-2.5-3.35 0-5.35.93-5.35 2.5 0 1.6 2 2.53 5.35 2.53zm0-6.65c4.55 0 7.375 1.52 7.375 4.12 0 2.63-2.825 4.16-7.375 4.16-4.6 0-7.4-1.53-7.4-4.16 0-2.6 2.8-4.12 7.4-4.12zm7.125-8.45h3.325v1.72h-3.325v6.15h-2.05v-13.52h2.05v5.65z" fill="#626262"/>
    <path fill="#FBFBFB" d="M3.5 1370.5h299v69H3.5z"/>
    <path stroke="#CFCFCF" d="M3.5 1370.5h299v69H3.5z"/>
    <path d="M135.503 1398.47v-.25h-13.25v-1.65h15.275v1.9c0 1.8 0 3.63-.625 5.93l-2-.23c.6-2.29.6-3.95.6-5.7zm-5.625 17.76c3.525 0 5.775-.96 5.775-2.51 0-1.6-2.25-2.55-5.775-2.55-3.5 0-5.75.95-5.75 2.55 0 1.55 2.25 2.51 5.75 2.51zm0-6.63c4.775 0 7.825 1.52 7.825 4.12 0 2.56-3.05 4.11-7.825 4.11s-7.8-1.55-7.8-4.11c0-2.6 3.025-4.12 7.8-4.12zm.325-3.73h9.85v1.65h-20.175v-1.65h8.275v-4.3h2.05v4.3zm25.623.4-.975 1.6c-2.55-.82-4.475-2.6-5.425-4.82-.95 2.55-2.975 4.55-5.65 5.5l-1.05-1.63c3.375-1.17 5.625-4.07 5.625-7.3v-.87h-5.025v-1.65h12.025v1.65h-4.95v.87c0 2.93 2.125 5.55 5.425 6.65zm-2.725 9.93c3.3 0 5.325-.93 5.325-2.53 0-1.57-2.025-2.5-5.325-2.5-3.35 0-5.35.93-5.35 2.5 0 1.6 2 2.53 5.35 2.53zm0-6.65c4.55 0 7.375 1.52 7.375 4.12 0 2.63-2.825 4.16-7.375 4.16-4.6 0-7.4-1.53-7.4-4.16 0-2.6 2.8-4.12 7.4-4.12zm7.125-8.45h3.325v1.72h-3.325v6.15h-2.05v-13.52h2.05v5.65zm18.598 5.17-.975 1.6c-2.55-.82-4.475-2.6-5.425-4.82-.95 2.55-2.975 4.55-5.65 5.5l-1.05-1.63c3.375-1.17 5.625-4.07 5.625-7.3v-.87h-5.025v-1.65h12.025v1.65h-4.95v.87c0 2.93 2.125 5.55 5.425 6.65zm-2.725 9.93c3.3 0 5.325-.93 5.325-2.53 0-1.57-2.025-2.5-5.325-2.5-3.35 0-5.35.93-5.35 2.5 0 1.6 2 2.53 5.35 2.53zm0-6.65c4.55 0 7.375 1.52 7.375 4.12 0 2.63-2.825 4.16-7.375 4.16-4.6 0-7.4-1.53-7.4-4.16 0-2.6 2.8-4.12 7.4-4.12zm7.125-8.45h3.325v1.72h-3.325v6.15h-2.05v-13.52h2.05v5.65z" fill="#626262"/>
    <path fill="#FBFBFB" d="M3.5 1595.5h299v69H3.5z"/>
    <path stroke="#CFCFCF" d="M3.5 1595.5h299v69H3.5z"/>
    <path d="M135.503 1623.47v-.25h-13.25v-1.65h15.275v1.9c0 1.8 0 3.63-.625 5.93l-2-.23c.6-2.29.6-3.95.6-5.7zm-5.625 17.76c3.525 0 5.775-.96 5.775-2.51 0-1.6-2.25-2.55-5.775-2.55-3.5 0-5.75.95-5.75 2.55 0 1.55 2.25 2.51 5.75 2.51zm0-6.63c4.775 0 7.825 1.52 7.825 4.12 0 2.56-3.05 4.11-7.825 4.11s-7.8-1.55-7.8-4.11c0-2.6 3.025-4.12 7.8-4.12zm.325-3.73h9.85v1.65h-20.175v-1.65h8.275v-4.3h2.05v4.3zm25.623.4-.975 1.6c-2.55-.82-4.475-2.6-5.425-4.82-.95 2.55-2.975 4.55-5.65 5.5l-1.05-1.63c3.375-1.17 5.625-4.07 5.625-7.3v-.87h-5.025v-1.65h12.025v1.65h-4.95v.87c0 2.93 2.125 5.55 5.425 6.65zm-2.725 9.93c3.3 0 5.325-.93 5.325-2.53 0-1.57-2.025-2.5-5.325-2.5-3.35 0-5.35.93-5.35 2.5 0 1.6 2 2.53 5.35 2.53zm0-6.65c4.55 0 7.375 1.52 7.375 4.12 0 2.63-2.825 4.16-7.375 4.16-4.6 0-7.4-1.53-7.4-4.16 0-2.6 2.8-4.12 7.4-4.12zm7.125-8.45h3.325v1.72h-3.325v6.15h-2.05v-13.52h2.05v5.65zm18.598 5.17-.975 1.6c-2.55-.82-4.475-2.6-5.425-4.82-.95 2.55-2.975 4.55-5.65 5.5l-1.05-1.63c3.375-1.17 5.625-4.07 5.625-7.3v-.87h-5.025v-1.65h12.025v1.65h-4.95v.87c0 2.93 2.125 5.55 5.425 6.65zm-2.725 9.93c3.3 0 5.325-.93 5.325-2.53 0-1.57-2.025-2.5-5.325-2.5-3.35 0-5.35.93-5.35 2.5 0 1.6 2 2.53 5.35 2.53zm0-6.65c4.55 0 7.375 1.52 7.375 4.12 0 2.63-2.825 4.16-7.375 4.16-4.6 0-7.4-1.53-7.4-4.16 0-2.6 2.8-4.12 7.4-4.12zm7.125-8.45h3.325v1.72h-3.325v6.15h-2.05v-13.52h2.05v5.65z" fill="#626262"/>
    <path stroke="#DA251C" d="M3.5 1810.5h299v69H3.5z"/>
    <path d="M100.866 1841.97v-4.98h-6.24v4.98h6.24zm-9.33 0v-4.98h-3.84v-2.49h20.07v2.49h-3.81v4.98h3.66v2.49h-19.77v-2.49h3.69zm12.48 16.05v-3.69h-12.51v3.69h12.51zm6-8.91h-10.71v2.76h7.74v8.61h-18.6v-8.61h7.77v-2.76h-10.71v-2.49h24.51v2.49zm25.438-15.39v13.98h-3.12v-13.98h3.12zm-5.64 11.19-1.38 2.37c-3.21-.9-5.52-2.91-6.75-5.4-1.2 2.76-3.57 4.95-6.87 6l-1.47-2.43c4.2-1.26 6.66-4.47 6.72-7.83h-5.88v-2.49h14.82v2.49h-5.79c.09 3.15 2.49 6.12 6.6 7.29zm-9.03 13.26h15.48v2.4h-18.51v-7.02h14.64v-2.28h-14.7v-2.34h17.76v6.84h-14.67v2.4zm34.257-12.84-3.03-.33c.54-2.91.63-5.04.66-6.72h-10.59v-2.52h13.62v1.56c0 1.83 0 4.5-.66 8.01zm2.25 1.35.21 2.25c-5.64.99-12.03 1.14-16.74 1.14l-.33-2.52c1.62 0 3.48 0 5.4-.06v-5.55h3.06v5.46c2.82-.12 5.73-.3 8.4-.72zm-9.66 5.58v5.52h15.3v2.52h-18.42v-8.04h3.12zm14.43-9.96h3.6v2.55h-3.6v9.21h-3.12v-20.34h3.12v8.58zm10.918 3.87v5.7c4.29-.03 8.04-.24 12.33-.93l.33 2.52c-4.65.81-8.7.96-13.47.96h-2.31v-10.74h9.45v-5.04h-9.51v-2.52h12.63v10.05h-9.45zm14.58-12.51h3.12v27.21h-3.12v-27.21zm24.867 11.55.3 2.46c-3.87.63-7.2.72-13.02.72h-2.25v-13.11h12.96v2.49h-9.9v2.79h9.12v2.43h-9.12v2.94c5.22 0 8.31-.12 11.91-.72zm-8.88 8.37v4.44h11.67v-4.44h-11.67zm-3.03 6.9v-9.36h17.73v9.36h-17.73zm14.64-26.76h3.09v16.14h-3.09v-16.14z" fill="#DA251C"/>
    <path fill="#FBFBFB" d="M3.5 1885.5h299v69H3.5z"/>
    <path stroke="#CFCFCF" d="M3.5 1885.5h299v69H3.5z"/>
    <path d="m145.102 1920.17.225 1.63c-3.275.55-6 .65-10.9.65h-1.825v-10.65h10.7v1.65h-8.65v2.77h8.025v1.63h-8.025v2.95c4.675 0 7.325-.1 10.45-.63zm-7.875 6.4v4.33h10.5v-4.33h-10.5zm-2 5.98v-7.63h14.5v7.63h-14.5zm12.45-22.1h2.05v13.37h-2.05v-13.37zm19.648 10.82-.975 1.6c-2.55-.82-4.475-2.6-5.425-4.82-.95 2.55-2.975 4.55-5.65 5.5l-1.05-1.63c3.375-1.17 5.625-4.07 5.625-7.3v-.87h-5.025v-1.65h12.025v1.65h-4.95v.87c0 2.93 2.125 5.55 5.425 6.65zm-2.725 9.93c3.3 0 5.325-.93 5.325-2.53 0-1.57-2.025-2.5-5.325-2.5-3.35 0-5.35.93-5.35 2.5 0 1.6 2 2.53 5.35 2.53zm0-6.65c4.55 0 7.375 1.52 7.375 4.12 0 2.63-2.825 4.16-7.375 4.16-4.6 0-7.4-1.53-7.4-4.16 0-2.6 2.8-4.12 7.4-4.12zm7.125-8.45h3.325v1.72h-3.325v6.15h-2.05v-13.52h2.05v5.65z" fill="#626262"/>
    <path fill="#FBFBFB" d="M3.5 1960.5h299v69H3.5z"/>
    <path stroke="#CFCFCF" d="M3.5 1960.5h299v69H3.5z"/>
    <path d="m145.102 1995.17.225 1.63c-3.275.55-6 .65-10.9.65h-1.825v-10.65h10.7v1.65h-8.65v2.77h8.025v1.63h-8.025v2.95c4.675 0 7.325-.1 10.45-.63zm-7.875 6.4v4.33h10.5v-4.33h-10.5zm-2 5.98v-7.63h14.5v7.63h-14.5zm12.45-22.1h2.05v13.37h-2.05v-13.37zm19.648 10.82-.975 1.6c-2.55-.82-4.475-2.6-5.425-4.82-.95 2.55-2.975 4.55-5.65 5.5l-1.05-1.63c3.375-1.17 5.625-4.07 5.625-7.3v-.87h-5.025v-1.65h12.025v1.65h-4.95v.87c0 2.93 2.125 5.55 5.425 6.65zm-2.725 9.93c3.3 0 5.325-.93 5.325-2.53 0-1.57-2.025-2.5-5.325-2.5-3.35 0-5.35.93-5.35 2.5 0 1.6 2 2.53 5.35 2.53zm0-6.65c4.55 0 7.375 1.52 7.375 4.12 0 2.63-2.825 4.16-7.375 4.16-4.6 0-7.4-1.53-7.4-4.16 0-2.6 2.8-4.12 7.4-4.12zm7.125-8.45h3.325v1.72h-3.325v6.15h-2.05v-13.52h2.05v5.65z" fill="#626262"/>
    <path fill="#FBFBFB" d="M3.5 2035.5h299v69H3.5z"/>
    <path stroke="#CFCFCF" d="M3.5 2035.5h299v69H3.5z"/>
    <path d="m145.102 2070.17.225 1.63c-3.275.55-6 .65-10.9.65h-1.825v-10.65h10.7v1.65h-8.65v2.77h8.025v1.63h-8.025v2.95c4.675 0 7.325-.1 10.45-.63zm-7.875 6.4v4.33h10.5v-4.33h-10.5zm-2 5.98v-7.63h14.5v7.63h-14.5zm12.45-22.1h2.05v13.37h-2.05v-13.37zm19.648 10.82-.975 1.6c-2.55-.82-4.475-2.6-5.425-4.82-.95 2.55-2.975 4.55-5.65 5.5l-1.05-1.63c3.375-1.17 5.625-4.07 5.625-7.3v-.87h-5.025v-1.65h12.025v1.65h-4.95v.87c0 2.93 2.125 5.55 5.425 6.65zm-2.725 9.93c3.3 0 5.325-.93 5.325-2.53 0-1.57-2.025-2.5-5.325-2.5-3.35 0-5.35.93-5.35 2.5 0 1.6 2 2.53 5.35 2.53zm0-6.65c4.55 0 7.375 1.52 7.375 4.12 0 2.63-2.825 4.16-7.375 4.16-4.6 0-7.4-1.53-7.4-4.16 0-2.6 2.8-4.12 7.4-4.12zm7.125-8.45h3.325v1.72h-3.325v6.15h-2.05v-13.52h2.05v5.65z" fill="#626262"/>
    <path stroke="#DA251C" d="M3.5 2175.5h299v69H3.5z"/>
    <path d="m127.444 2210.33-3.03-.33c.54-2.91.63-5.04.66-6.72h-10.59v-2.52h13.62v1.56c0 1.83 0 4.5-.66 8.01zm2.25 1.35.21 2.25c-5.64.99-12.03 1.14-16.74 1.14l-.33-2.52c1.62 0 3.48 0 5.4-.06v-5.55h3.06v5.46c2.82-.12 5.73-.3 8.4-.72zm-9.66 5.58v5.52h15.3v2.52h-18.42v-8.04h3.12zm14.43-9.96h3.6v2.55h-3.6v9.21h-3.12v-20.34h3.12v8.58zm10.917 3.87v5.7c4.29-.03 8.04-.24 12.33-.93l.33 2.52c-4.65.81-8.7.96-13.47.96h-2.31v-10.74h9.45v-5.04h-9.51v-2.52h12.63v10.05h-9.45zm14.58-12.51h3.12v27.21h-3.12v-27.21zm24.868 11.55.3 2.46c-3.87.63-7.2.72-13.02.72h-2.25v-13.11h12.96v2.49h-9.9v2.79h9.12v2.43h-9.12v2.94c5.22 0 8.31-.12 11.91-.72zm-8.88 8.37v4.44h11.67v-4.44h-11.67zm-3.03 6.9v-9.36h17.73v9.36h-17.73zm14.64-26.76h3.09v16.14h-3.09v-16.14z" fill="#DA251C"/>
    <path fill="#FBFBFB" d="M3.5 2250.5h299v69H3.5z"/>
    <path stroke="#CFCFCF" d="M3.5 2250.5h299v69H3.5z"/>
    <path d="M147.727 2281.22h-5.6c-1.45 3.6-4.85 6.23-9.675 7.63l-.825-1.63c5.35-1.6 8.675-4.57 9.05-8.45h-7.9v-1.65h10.125c0 .83-.1 1.65-.25 2.43h5.075v-4.1h2.075v13.4h-2.075v-2.95h-5.875v-1.68h5.875v-3zm-5.25 14.93c3.3 0 5.4-1.03 5.4-2.73 0-1.67-2.1-2.7-5.4-2.7-3.3 0-5.4 1.03-5.4 2.7 0 1.7 2.1 2.73 5.4 2.73zm0-7.05c4.525 0 7.425 1.62 7.425 4.32 0 2.71-2.9 4.33-7.425 4.33s-7.425-1.62-7.425-4.33c0-2.7 2.9-4.32 7.425-4.32zm15.198-3.6v5.25c3.675 0 6.975-.18 10.9-.8l.2 1.67c-4.05.68-7.45.83-11.3.83h-1.85v-8.6h8.25v-4.68h-8.325v-1.67h10.4v8h-8.275zm13-10.1h2.05v22.48h-2.05v-22.48z" fill="#626262"/>
    <path fill="#FBFBFB" d="M3.5 2325.5h299v69H3.5z"/>
    <path stroke="#CFCFCF" d="M3.5 2325.5h299v69H3.5z"/>
    <path d="M147.727 2356.22h-5.6c-1.45 3.6-4.85 6.23-9.675 7.63l-.825-1.63c5.35-1.6 8.675-4.57 9.05-8.45h-7.9v-1.65h10.125c0 .83-.1 1.65-.25 2.43h5.075v-4.1h2.075v13.4h-2.075v-2.95h-5.875v-1.68h5.875v-3zm-5.25 14.93c3.3 0 5.4-1.03 5.4-2.73 0-1.67-2.1-2.7-5.4-2.7-3.3 0-5.4 1.03-5.4 2.7 0 1.7 2.1 2.73 5.4 2.73zm0-7.05c4.525 0 7.425 1.62 7.425 4.32 0 2.71-2.9 4.33-7.425 4.33s-7.425-1.62-7.425-4.33c0-2.7 2.9-4.32 7.425-4.32zm15.198-3.6v5.25c3.675 0 6.975-.18 10.9-.8l.2 1.67c-4.05.68-7.45.83-11.3.83h-1.85v-8.6h8.25v-4.68h-8.325v-1.67h10.4v8h-8.275zm13-10.1h2.05v22.48h-2.05v-22.48z" fill="#626262"/>
    <circle cx="155" cy="445" r="8" fill="#DA251C"/>
</svg>
