<svg width="1303" height="1252" viewBox="0 0 1303 1252" fill="none" xmlns="http://www.w3.org/2000/svg">
    <circle cx="650" cy="155" r="155" fill="#DA251C"/>
    <path d="M567.958 145.9v19.6c4.3-.1 8.2-.35 12.6-1.15l.5 5.35c-5.6 1.05-10.5 1.25-16.4 1.25h-3.2v-30.4h17.05v5.35h-10.55zm25.45-10.7h6.25v46.1h-6.25v-23.05h-4.15v20.9h-6.15V136.1h6.15v16.85h4.15V135.2zm29.546 27.1v8.65h7.95v-8.65h-7.95zm-.75-18.15v12.95h9.4v-12.95h-9.4zm15.25 26.8h10.4v5.3h-41.75v-5.3h10.3v-8.65h-6.75v-5.2h6v-12.95h-6.25v-5.25h35v5.25h-6.25v12.95h6.15v5.2h-6.85v8.65zM683.7 135.2h6.6v46.2h-6.6v-46.2zm-18.15 3.25c6.95 0 12.1 6.3 12.1 16.4 0 10.15-5.15 16.5-12.1 16.5-6.95 0-12.1-6.35-12.1-16.5 0-10.1 5.15-16.4 12.1-16.4zm0 5.95c-3.4 0-5.75 3.65-5.75 10.45 0 6.85 2.35 10.5 5.75 10.5s5.75-3.65 5.75-10.5c0-6.8-2.35-10.45-5.75-10.45zm49.546-5.6v6.7c0 8.3 3.25 16.65 10.65 20.3l-4 5.2c-4.8-2.45-8.05-6.9-9.95-12.4-2 5.85-5.45 10.7-10.65 13.25l-3.95-5.35c7.75-3.65 11.25-12.45 11.25-21v-6.7h6.65zm25.8 14.15v5.5h-6.7v22.85h-6.6v-46.05h6.6v17.7h6.7z" fill="#fff"/>
    <path stroke="#CFCFCF" d="M650.5 313v189M1178.5 502v105M122.5 502v105M474.5 502v105M826.5 502v105M122 501.5h1056"/>
    <circle cx="650" cy="502" r="8" fill="#DA251C"/>
    <path stroke="#DA251C" d="M.5 607.5h249v59H.5z"/>
    <path d="M91.945 630.918h9.416c0 5.918-2.376 10.934-9.196 14.234l-1.21-1.804c5.214-2.508 7.678-6.006 8.074-10.582h-7.084v-1.848zm13.002-2.09h2.266v19.866h-2.266v-19.866zm28.084 5.236-.77 1.738c-3.3-.396-6.006-1.76-7.282-3.74-1.276 1.98-3.982 3.344-7.282 3.74l-.77-1.738c3.982-.396 6.886-2.354 6.886-4.576v-.572h2.332v.572c0 2.222 2.904 4.18 6.886 4.576zm.946 4.62h-7.876v1.672h5.61v4.796h-11.308v1.628h11.88v1.738h-14.124v-4.972h11.33v-1.474h-11.374v-1.716h5.698v-1.672h-7.832v-1.804h17.996v1.804zm19.306-1.43.22 1.804c-2.838.462-5.28.528-9.548.528h-1.65v-9.614h9.504v1.826h-7.26v2.046h6.688v1.782h-6.688v2.156c3.828 0 6.094-.088 8.734-.528zm-6.512 6.138v3.256h8.558v-3.256h-8.558zm-2.222 5.06v-6.864h13.002v6.864h-13.002zm10.736-19.624h2.266v11.836h-2.266v-11.836z" fill="#DA251C"/>
    <path fill="#FBFBFB" d="M.5 672.5h249v59H.5z"/>
    <path stroke="#CFCFCF" d="M.5 672.5h249v59H.5z"/>
    <path d="M120.699 701.612v-2.376h-8.01v2.376h8.01zm1.476-5.778v6.984h-10.944v-6.984h1.458v2.214h8.01v-2.214h1.476zm1.854 8.928v1.188h-6.624v5.4h-1.476v-5.4h-6.552v-1.188h14.652zm11.285-1.764-.702 1.152c-1.836-.594-3.222-1.872-3.906-3.474-.684 1.836-2.142 3.276-4.068 3.96l-.756-1.17c2.43-.846 4.05-2.934 4.05-5.256v-.63h-3.618v-1.188h8.658v1.188h-3.564v.63c0 2.106 1.53 3.996 3.906 4.788zm-1.962 7.146c2.376 0 3.834-.666 3.834-1.818 0-1.134-1.458-1.8-3.834-1.8-2.412 0-3.852.666-3.852 1.8 0 1.152 1.44 1.818 3.852 1.818zm0-4.788c3.276 0 5.31 1.098 5.31 2.97 0 1.89-2.034 2.988-5.31 2.988-3.312 0-5.328-1.098-5.328-2.988 0-1.872 2.016-2.97 5.328-2.97zm5.13-6.084h2.394v1.242h-2.394v4.428h-1.476v-9.738h1.476v4.068z" fill="#626262"/>
    <path fill="#FBFBFB" d="M351.5 672.5h249v59h-249z"/>
    <path stroke="#CFCFCF" d="M351.5 672.5h249v59h-249z"/>
    <path d="M463.402 697.382v-.18h-9.54v-1.188h10.998v1.368c0 1.296 0 2.61-.45 4.266l-1.44-.162c.432-1.656.432-2.844.432-4.104zm-4.05 12.78c2.538 0 4.158-.684 4.158-1.8 0-1.152-1.62-1.836-4.158-1.836-2.52 0-4.14.684-4.14 1.836 0 1.116 1.62 1.8 4.14 1.8zm0-4.77c3.438 0 5.634 1.098 5.634 2.97 0 1.836-2.196 2.952-5.634 2.952s-5.616-1.116-5.616-2.952c0-1.872 2.178-2.97 5.616-2.97zm.234-2.682h7.092v1.188h-14.526v-1.188h5.958v-3.096h1.476v3.096zm18.449.288-.702 1.152c-1.836-.594-3.222-1.872-3.906-3.474-.684 1.836-2.142 3.276-4.068 3.96l-.756-1.17c2.43-.846 4.05-2.934 4.05-5.256v-.63h-3.618v-1.188h8.658v1.188h-3.564v.63c0 2.106 1.53 3.996 3.906 4.788zm-1.962 7.146c2.376 0 3.834-.666 3.834-1.818 0-1.134-1.458-1.8-3.834-1.8-2.412 0-3.852.666-3.852 1.8 0 1.152 1.44 1.818 3.852 1.818zm0-4.788c3.276 0 5.31 1.098 5.31 2.97 0 1.89-2.034 2.988-5.31 2.988-3.312 0-5.328-1.098-5.328-2.988 0-1.872 2.016-2.97 5.328-2.97zm5.13-6.084h2.394v1.242h-2.394v4.428h-1.476v-9.738h1.476v4.068zm13.39 3.726-.702 1.152c-1.836-.594-3.222-1.872-3.906-3.474-.684 1.836-2.142 3.276-4.068 3.96l-.756-1.17c2.43-.846 4.05-2.934 4.05-5.256v-.63h-3.618v-1.188h8.658v1.188h-3.564v.63c0 2.106 1.53 3.996 3.906 4.788zm-1.962 7.146c2.376 0 3.834-.666 3.834-1.818 0-1.134-1.458-1.8-3.834-1.8-2.412 0-3.852.666-3.852 1.8 0 1.152 1.44 1.818 3.852 1.818zm0-4.788c3.276 0 5.31 1.098 5.31 2.97 0 1.89-2.034 2.988-5.31 2.988-3.312 0-5.328-1.098-5.328-2.988 0-1.872 2.016-2.97 5.328-2.97zm5.13-6.084h2.394v1.242h-2.394v4.428h-1.476v-9.738h1.476v4.068z" fill="#626262"/>
    <path fill="#FBFBFB" d="M702.5 672.5h249v59h-249z"/>
    <path stroke="#CFCFCF" d="M702.5 672.5h249v59h-249z"/>
    <path d="m821.313 702.206.162 1.17c-2.358.396-4.32.468-7.848.468h-1.314v-7.668h7.704v1.188h-6.228v1.998h5.778v1.17h-5.778v2.124c3.366 0 5.274-.072 7.524-.45zm-5.67 4.608v3.114h7.56v-3.114h-7.56zm-1.44 4.302v-5.49h10.44v5.49h-10.44zm8.964-15.912h1.476v9.63h-1.476v-9.63zm14.147 7.794-.702 1.152c-1.836-.594-3.222-1.872-3.906-3.474-.684 1.836-2.142 3.276-4.068 3.96l-.756-1.17c2.43-.846 4.05-2.934 4.05-5.256v-.63h-3.618v-1.188h8.658v1.188h-3.564v.63c0 2.106 1.53 3.996 3.906 4.788zm-1.962 7.146c2.376 0 3.834-.666 3.834-1.818 0-1.134-1.458-1.8-3.834-1.8-2.412 0-3.852.666-3.852 1.8 0 1.152 1.44 1.818 3.852 1.818zm0-4.788c3.276 0 5.31 1.098 5.31 2.97 0 1.89-2.034 2.988-5.31 2.988-3.312 0-5.328-1.098-5.328-2.988 0-1.872 2.016-2.97 5.328-2.97zm5.13-6.084h2.394v1.242h-2.394v4.428h-1.476v-9.738h1.476v4.068z" fill="#626262"/>
    <path fill="#FBFBFB" d="M1053.5 672.5h249v59h-249z"/>
    <path stroke="#CFCFCF" d="M1053.5 672.5h249v59h-249z"/>
    <path d="M1174.2 699.362h-4.03c-1.04 2.592-3.49 4.482-6.96 5.49l-.6-1.17c3.85-1.152 6.25-3.294 6.52-6.084h-5.69v-1.188h7.29a9.1 9.1 0 0 1-.18 1.746h3.65v-2.952h1.5v9.648h-1.5v-2.124h-4.23v-1.206h4.23v-2.16zm-3.78 10.746c2.38 0 3.89-.738 3.89-1.962 0-1.206-1.51-1.944-3.89-1.944-2.37 0-3.88.738-3.88 1.944 0 1.224 1.51 1.962 3.88 1.962zm0-5.076c3.26 0 5.35 1.17 5.35 3.114s-2.09 3.114-5.35 3.114c-3.25 0-5.34-1.17-5.34-3.114s2.09-3.114 5.34-3.114zm10.95-2.592v3.78c2.64 0 5.02-.126 7.84-.576l.15 1.206c-2.92.486-5.37.594-8.14.594h-1.33v-6.192h5.94v-3.366h-5.99v-1.206h7.48v5.76h-5.95zm9.36-7.272h1.47v16.182h-1.47v-16.182z" fill="#626262"/>
    <path fill="#FBFBFB" d="M351.5 867.5h249v59h-249z"/>
    <path stroke="#CFCFCF" d="M351.5 867.5h249v59h-249z"/>
    <path d="M463.402 892.382v-.18h-9.54v-1.188h10.998v1.368c0 1.296 0 2.61-.45 4.266l-1.44-.162c.432-1.656.432-2.844.432-4.104zm-4.05 12.78c2.538 0 4.158-.684 4.158-1.8 0-1.152-1.62-1.836-4.158-1.836-2.52 0-4.14.684-4.14 1.836 0 1.116 1.62 1.8 4.14 1.8zm0-4.77c3.438 0 5.634 1.098 5.634 2.97 0 1.836-2.196 2.952-5.634 2.952s-5.616-1.116-5.616-2.952c0-1.872 2.178-2.97 5.616-2.97zm.234-2.682h7.092v1.188h-14.526v-1.188h5.958v-3.096h1.476v3.096zm18.449.288-.702 1.152c-1.836-.594-3.222-1.872-3.906-3.474-.684 1.836-2.142 3.276-4.068 3.96l-.756-1.17c2.43-.846 4.05-2.934 4.05-5.256v-.63h-3.618v-1.188h8.658v1.188h-3.564v.63c0 2.106 1.53 3.996 3.906 4.788zm-1.962 7.146c2.376 0 3.834-.666 3.834-1.818 0-1.134-1.458-1.8-3.834-1.8-2.412 0-3.852.666-3.852 1.8 0 1.152 1.44 1.818 3.852 1.818zm0-4.788c3.276 0 5.31 1.098 5.31 2.97 0 1.89-2.034 2.988-5.31 2.988-3.312 0-5.328-1.098-5.328-2.988 0-1.872 2.016-2.97 5.328-2.97zm5.13-6.084h2.394v1.242h-2.394v4.428h-1.476v-9.738h1.476v4.068zm13.39 3.726-.702 1.152c-1.836-.594-3.222-1.872-3.906-3.474-.684 1.836-2.142 3.276-4.068 3.96l-.756-1.17c2.43-.846 4.05-2.934 4.05-5.256v-.63h-3.618v-1.188h8.658v1.188h-3.564v.63c0 2.106 1.53 3.996 3.906 4.788zm-1.962 7.146c2.376 0 3.834-.666 3.834-1.818 0-1.134-1.458-1.8-3.834-1.8-2.412 0-3.852.666-3.852 1.8 0 1.152 1.44 1.818 3.852 1.818zm0-4.788c3.276 0 5.31 1.098 5.31 2.97 0 1.89-2.034 2.988-5.31 2.988-3.312 0-5.328-1.098-5.328-2.988 0-1.872 2.016-2.97 5.328-2.97zm5.13-6.084h2.394v1.242h-2.394v4.428h-1.476v-9.738h1.476v4.068z" fill="#626262"/>
    <path fill="#FBFBFB" d="M351.5 1062.5h249v59h-249z"/>
    <path stroke="#CFCFCF" d="M351.5 1062.5h249v59h-249z"/>
    <path d="M463.402 1087.38v-.18h-9.54v-1.19h10.998v1.37c0 1.3 0 2.61-.45 4.27l-1.44-.16c.432-1.66.432-2.85.432-4.11zm-4.05 12.78c2.538 0 4.158-.68 4.158-1.8 0-1.15-1.62-1.83-4.158-1.83-2.52 0-4.14.68-4.14 1.83 0 1.12 1.62 1.8 4.14 1.8zm0-4.77c3.438 0 5.634 1.1 5.634 2.97 0 1.84-2.196 2.95-5.634 2.95s-5.616-1.11-5.616-2.95c0-1.87 2.178-2.97 5.616-2.97zm.234-2.68h7.092v1.19h-14.526v-1.19h5.958v-3.1h1.476v3.1zm18.449.29-.702 1.15c-1.836-.59-3.222-1.87-3.906-3.47-.684 1.83-2.142 3.27-4.068 3.96l-.756-1.17c2.43-.85 4.05-2.94 4.05-5.26v-.63h-3.618v-1.19h8.658v1.19h-3.564v.63c0 2.11 1.53 4 3.906 4.79zm-1.962 7.14c2.376 0 3.834-.66 3.834-1.81 0-1.14-1.458-1.8-3.834-1.8-2.412 0-3.852.66-3.852 1.8 0 1.15 1.44 1.81 3.852 1.81zm0-4.78c3.276 0 5.31 1.09 5.31 2.97 0 1.89-2.034 2.98-5.31 2.98-3.312 0-5.328-1.09-5.328-2.98 0-1.88 2.016-2.97 5.328-2.97zm5.13-6.09h2.394v1.24h-2.394v4.43h-1.476v-9.74h1.476v4.07zm13.39 3.73-.702 1.15c-1.836-.59-3.222-1.87-3.906-3.47-.684 1.83-2.142 3.27-4.068 3.96l-.756-1.17c2.43-.85 4.05-2.94 4.05-5.26v-.63h-3.618v-1.19h8.658v1.19h-3.564v.63c0 2.11 1.53 4 3.906 4.79zm-1.962 7.14c2.376 0 3.834-.66 3.834-1.81 0-1.14-1.458-1.8-3.834-1.8-2.412 0-3.852.66-3.852 1.8 0 1.15 1.44 1.81 3.852 1.81zm0-4.78c3.276 0 5.31 1.09 5.31 2.97 0 1.89-2.034 2.98-5.31 2.98-3.312 0-5.328-1.09-5.328-2.98 0-1.88 2.016-2.97 5.328-2.97zm5.13-6.09h2.394v1.24h-2.394v4.43h-1.476v-9.74h1.476v4.07z" fill="#626262"/>
    <path fill="#FBFBFB" d="M.5 802.5h249v59H.5z"/>
    <path stroke="#CFCFCF" d="M.5 802.5h249v59H.5z"/>
    <path d="M120.699 831.612v-2.376h-8.01v2.376h8.01zm1.476-5.778v6.984h-10.944v-6.984h1.458v2.214h8.01v-2.214h1.476zm1.854 8.928v1.188h-6.624v5.4h-1.476v-5.4h-6.552v-1.188h14.652zm11.285-1.764-.702 1.152c-1.836-.594-3.222-1.872-3.906-3.474-.684 1.836-2.142 3.276-4.068 3.96l-.756-1.17c2.43-.846 4.05-2.934 4.05-5.256v-.63h-3.618v-1.188h8.658v1.188h-3.564v.63c0 2.106 1.53 3.996 3.906 4.788zm-1.962 7.146c2.376 0 3.834-.666 3.834-1.818 0-1.134-1.458-1.8-3.834-1.8-2.412 0-3.852.666-3.852 1.8 0 1.152 1.44 1.818 3.852 1.818zm0-4.788c3.276 0 5.31 1.098 5.31 2.97 0 1.89-2.034 2.988-5.31 2.988-3.312 0-5.328-1.098-5.328-2.988 0-1.872 2.016-2.97 5.328-2.97zm5.13-6.084h2.394v1.242h-2.394v4.428h-1.476v-9.738h1.476v4.068z" fill="#626262"/>
    <path fill="#FBFBFB" d="M.5 867.5h249v59H.5z"/>
    <path stroke="#CFCFCF" d="M.5 867.5h249v59H.5z"/>
    <path d="M120.699 896.612v-2.376h-8.01v2.376h8.01zm1.476-5.778v6.984h-10.944v-6.984h1.458v2.214h8.01v-2.214h1.476zm1.854 8.928v1.188h-6.624v5.4h-1.476v-5.4h-6.552v-1.188h14.652zm11.285-1.764-.702 1.152c-1.836-.594-3.222-1.872-3.906-3.474-.684 1.836-2.142 3.276-4.068 3.96l-.756-1.17c2.43-.846 4.05-2.934 4.05-5.256v-.63h-3.618v-1.188h8.658v1.188h-3.564v.63c0 2.106 1.53 3.996 3.906 4.788zm-1.962 7.146c2.376 0 3.834-.666 3.834-1.818 0-1.134-1.458-1.8-3.834-1.8-2.412 0-3.852.666-3.852 1.8 0 1.152 1.44 1.818 3.852 1.818zm0-4.788c3.276 0 5.31 1.098 5.31 2.97 0 1.89-2.034 2.988-5.31 2.988-3.312 0-5.328-1.098-5.328-2.988 0-1.872 2.016-2.97 5.328-2.97zm5.13-6.084h2.394v1.242h-2.394v4.428h-1.476v-9.738h1.476v4.068z" fill="#626262"/>
    <path fill="#FBFBFB" d="M351.5 802.5h249v59h-249z"/>
    <path stroke="#CFCFCF" d="M351.5 802.5h249v59h-249z"/>
    <path d="M463.402 827.382v-.18h-9.54v-1.188h10.998v1.368c0 1.296 0 2.61-.45 4.266l-1.44-.162c.432-1.656.432-2.844.432-4.104zm-4.05 12.78c2.538 0 4.158-.684 4.158-1.8 0-1.152-1.62-1.836-4.158-1.836-2.52 0-4.14.684-4.14 1.836 0 1.116 1.62 1.8 4.14 1.8zm0-4.77c3.438 0 5.634 1.098 5.634 2.97 0 1.836-2.196 2.952-5.634 2.952s-5.616-1.116-5.616-2.952c0-1.872 2.178-2.97 5.616-2.97zm.234-2.682h7.092v1.188h-14.526v-1.188h5.958v-3.096h1.476v3.096zm18.449.288-.702 1.152c-1.836-.594-3.222-1.872-3.906-3.474-.684 1.836-2.142 3.276-4.068 3.96l-.756-1.17c2.43-.846 4.05-2.934 4.05-5.256v-.63h-3.618v-1.188h8.658v1.188h-3.564v.63c0 2.106 1.53 3.996 3.906 4.788zm-1.962 7.146c2.376 0 3.834-.666 3.834-1.818 0-1.134-1.458-1.8-3.834-1.8-2.412 0-3.852.666-3.852 1.8 0 1.152 1.44 1.818 3.852 1.818zm0-4.788c3.276 0 5.31 1.098 5.31 2.97 0 1.89-2.034 2.988-5.31 2.988-3.312 0-5.328-1.098-5.328-2.988 0-1.872 2.016-2.97 5.328-2.97zm5.13-6.084h2.394v1.242h-2.394v4.428h-1.476v-9.738h1.476v4.068zm13.39 3.726-.702 1.152c-1.836-.594-3.222-1.872-3.906-3.474-.684 1.836-2.142 3.276-4.068 3.96l-.756-1.17c2.43-.846 4.05-2.934 4.05-5.256v-.63h-3.618v-1.188h8.658v1.188h-3.564v.63c0 2.106 1.53 3.996 3.906 4.788zm-1.962 7.146c2.376 0 3.834-.666 3.834-1.818 0-1.134-1.458-1.8-3.834-1.8-2.412 0-3.852.666-3.852 1.8 0 1.152 1.44 1.818 3.852 1.818zm0-4.788c3.276 0 5.31 1.098 5.31 2.97 0 1.89-2.034 2.988-5.31 2.988-3.312 0-5.328-1.098-5.328-2.988 0-1.872 2.016-2.97 5.328-2.97zm5.13-6.084h2.394v1.242h-2.394v4.428h-1.476v-9.738h1.476v4.068z" fill="#626262"/>
    <path fill="#FBFBFB" d="M351.5 997.5h249v59h-249z"/>
    <path stroke="#CFCFCF" d="M351.5 997.5h249v59h-249z"/>
    <path d="M463.402 1022.38v-.18h-9.54v-1.19h10.998v1.37c0 1.3 0 2.61-.45 4.27l-1.44-.16c.432-1.66.432-2.85.432-4.11zm-4.05 12.78c2.538 0 4.158-.68 4.158-1.8 0-1.15-1.62-1.83-4.158-1.83-2.52 0-4.14.68-4.14 1.83 0 1.12 1.62 1.8 4.14 1.8zm0-4.77c3.438 0 5.634 1.1 5.634 2.97 0 1.84-2.196 2.95-5.634 2.95s-5.616-1.11-5.616-2.95c0-1.87 2.178-2.97 5.616-2.97zm.234-2.68h7.092v1.19h-14.526v-1.19h5.958v-3.1h1.476v3.1zm18.449.29-.702 1.15c-1.836-.59-3.222-1.87-3.906-3.47-.684 1.83-2.142 3.27-4.068 3.96l-.756-1.17c2.43-.85 4.05-2.94 4.05-5.26v-.63h-3.618v-1.19h8.658v1.19h-3.564v.63c0 2.11 1.53 4 3.906 4.79zm-1.962 7.14c2.376 0 3.834-.66 3.834-1.81 0-1.14-1.458-1.8-3.834-1.8-2.412 0-3.852.66-3.852 1.8 0 1.15 1.44 1.81 3.852 1.81zm0-4.78c3.276 0 5.31 1.09 5.31 2.97 0 1.89-2.034 2.98-5.31 2.98-3.312 0-5.328-1.09-5.328-2.98 0-1.88 2.016-2.97 5.328-2.97zm5.13-6.09h2.394v1.24h-2.394v4.43h-1.476v-9.74h1.476v4.07zm13.39 3.73-.702 1.15c-1.836-.59-3.222-1.87-3.906-3.47-.684 1.83-2.142 3.27-4.068 3.96l-.756-1.17c2.43-.85 4.05-2.94 4.05-5.26v-.63h-3.618v-1.19h8.658v1.19h-3.564v.63c0 2.11 1.53 4 3.906 4.79zm-1.962 7.14c2.376 0 3.834-.66 3.834-1.81 0-1.14-1.458-1.8-3.834-1.8-2.412 0-3.852.66-3.852 1.8 0 1.15 1.44 1.81 3.852 1.81zm0-4.78c3.276 0 5.31 1.09 5.31 2.97 0 1.89-2.034 2.98-5.31 2.98-3.312 0-5.328-1.09-5.328-2.98 0-1.88 2.016-2.97 5.328-2.97zm5.13-6.09h2.394v1.24h-2.394v4.43h-1.476v-9.74h1.476v4.07z" fill="#626262"/>
    <path fill="#FBFBFB" d="M351.5 1192.5h249v59h-249z"/>
    <path stroke="#CFCFCF" d="M351.5 1192.5h249v59h-249z"/>
    <path d="M463.402 1217.38v-.18h-9.54v-1.19h10.998v1.37c0 1.3 0 2.61-.45 4.27l-1.44-.16c.432-1.66.432-2.85.432-4.11zm-4.05 12.78c2.538 0 4.158-.68 4.158-1.8 0-1.15-1.62-1.83-4.158-1.83-2.52 0-4.14.68-4.14 1.83 0 1.12 1.62 1.8 4.14 1.8zm0-4.77c3.438 0 5.634 1.1 5.634 2.97 0 1.84-2.196 2.95-5.634 2.95s-5.616-1.11-5.616-2.95c0-1.87 2.178-2.97 5.616-2.97zm.234-2.68h7.092v1.19h-14.526v-1.19h5.958v-3.1h1.476v3.1zm18.449.29-.702 1.15c-1.836-.59-3.222-1.87-3.906-3.47-.684 1.83-2.142 3.27-4.068 3.96l-.756-1.17c2.43-.85 4.05-2.94 4.05-5.26v-.63h-3.618v-1.19h8.658v1.19h-3.564v.63c0 2.11 1.53 4 3.906 4.79zm-1.962 7.14c2.376 0 3.834-.66 3.834-1.81 0-1.14-1.458-1.8-3.834-1.8-2.412 0-3.852.66-3.852 1.8 0 1.15 1.44 1.81 3.852 1.81zm0-4.78c3.276 0 5.31 1.09 5.31 2.97 0 1.89-2.034 2.98-5.31 2.98-3.312 0-5.328-1.09-5.328-2.98 0-1.88 2.016-2.97 5.328-2.97zm5.13-6.09h2.394v1.24h-2.394v4.43h-1.476v-9.74h1.476v4.07zm13.39 3.73-.702 1.15c-1.836-.59-3.222-1.87-3.906-3.47-.684 1.83-2.142 3.27-4.068 3.96l-.756-1.17c2.43-.85 4.05-2.94 4.05-5.26v-.63h-3.618v-1.19h8.658v1.19h-3.564v.63c0 2.11 1.53 4 3.906 4.79zm-1.962 7.14c2.376 0 3.834-.66 3.834-1.81 0-1.14-1.458-1.8-3.834-1.8-2.412 0-3.852.66-3.852 1.8 0 1.15 1.44 1.81 3.852 1.81zm0-4.78c3.276 0 5.31 1.09 5.31 2.97 0 1.89-2.034 2.98-5.31 2.98-3.312 0-5.328-1.09-5.328-2.98 0-1.88 2.016-2.97 5.328-2.97zm5.13-6.09h2.394v1.24h-2.394v4.43h-1.476v-9.74h1.476v4.07z" fill="#626262"/>
    <path fill="#FBFBFB" d="M.5 737.5h249v59H.5z"/>
    <path stroke="#CFCFCF" d="M.5 737.5h249v59H.5z"/>
    <path d="M120.699 766.612v-2.376h-8.01v2.376h8.01zm1.476-5.778v6.984h-10.944v-6.984h1.458v2.214h8.01v-2.214h1.476zm1.854 8.928v1.188h-6.624v5.4h-1.476v-5.4h-6.552v-1.188h14.652zm11.285-1.764-.702 1.152c-1.836-.594-3.222-1.872-3.906-3.474-.684 1.836-2.142 3.276-4.068 3.96l-.756-1.17c2.43-.846 4.05-2.934 4.05-5.256v-.63h-3.618v-1.188h8.658v1.188h-3.564v.63c0 2.106 1.53 3.996 3.906 4.788zm-1.962 7.146c2.376 0 3.834-.666 3.834-1.818 0-1.134-1.458-1.8-3.834-1.8-2.412 0-3.852.666-3.852 1.8 0 1.152 1.44 1.818 3.852 1.818zm0-4.788c3.276 0 5.31 1.098 5.31 2.97 0 1.89-2.034 2.988-5.31 2.988-3.312 0-5.328-1.098-5.328-2.988 0-1.872 2.016-2.97 5.328-2.97zm5.13-6.084h2.394v1.242h-2.394v4.428h-1.476v-9.738h1.476v4.068z" fill="#626262"/>
    <path fill="#FBFBFB" d="M351.5 737.5h249v59h-249z"/>
    <path stroke="#CFCFCF" d="M351.5 737.5h249v59h-249z"/>
    <path d="M463.402 762.382v-.18h-9.54v-1.188h10.998v1.368c0 1.296 0 2.61-.45 4.266l-1.44-.162c.432-1.656.432-2.844.432-4.104zm-4.05 12.78c2.538 0 4.158-.684 4.158-1.8 0-1.152-1.62-1.836-4.158-1.836-2.52 0-4.14.684-4.14 1.836 0 1.116 1.62 1.8 4.14 1.8zm0-4.77c3.438 0 5.634 1.098 5.634 2.97 0 1.836-2.196 2.952-5.634 2.952s-5.616-1.116-5.616-2.952c0-1.872 2.178-2.97 5.616-2.97zm.234-2.682h7.092v1.188h-14.526v-1.188h5.958v-3.096h1.476v3.096zm18.449.288-.702 1.152c-1.836-.594-3.222-1.872-3.906-3.474-.684 1.836-2.142 3.276-4.068 3.96l-.756-1.17c2.43-.846 4.05-2.934 4.05-5.256v-.63h-3.618v-1.188h8.658v1.188h-3.564v.63c0 2.106 1.53 3.996 3.906 4.788zm-1.962 7.146c2.376 0 3.834-.666 3.834-1.818 0-1.134-1.458-1.8-3.834-1.8-2.412 0-3.852.666-3.852 1.8 0 1.152 1.44 1.818 3.852 1.818zm0-4.788c3.276 0 5.31 1.098 5.31 2.97 0 1.89-2.034 2.988-5.31 2.988-3.312 0-5.328-1.098-5.328-2.988 0-1.872 2.016-2.97 5.328-2.97zm5.13-6.084h2.394v1.242h-2.394v4.428h-1.476v-9.738h1.476v4.068zm13.39 3.726-.702 1.152c-1.836-.594-3.222-1.872-3.906-3.474-.684 1.836-2.142 3.276-4.068 3.96l-.756-1.17c2.43-.846 4.05-2.934 4.05-5.256v-.63h-3.618v-1.188h8.658v1.188h-3.564v.63c0 2.106 1.53 3.996 3.906 4.788zm-1.962 7.146c2.376 0 3.834-.666 3.834-1.818 0-1.134-1.458-1.8-3.834-1.8-2.412 0-3.852.666-3.852 1.8 0 1.152 1.44 1.818 3.852 1.818zm0-4.788c3.276 0 5.31 1.098 5.31 2.97 0 1.89-2.034 2.988-5.31 2.988-3.312 0-5.328-1.098-5.328-2.988 0-1.872 2.016-2.97 5.328-2.97zm5.13-6.084h2.394v1.242h-2.394v4.428h-1.476v-9.738h1.476v4.068z" fill="#626262"/>
    <path fill="#FBFBFB" d="M702.5 737.5h249v59h-249z"/>
    <path stroke="#CFCFCF" d="M702.5 737.5h249v59h-249z"/>
    <path d="m821.313 767.206.162 1.17c-2.358.396-4.32.468-7.848.468h-1.314v-7.668h7.704v1.188h-6.228v1.998h5.778v1.17h-5.778v2.124c3.366 0 5.274-.072 7.524-.45zm-5.67 4.608v3.114h7.56v-3.114h-7.56zm-1.44 4.302v-5.49h10.44v5.49h-10.44zm8.964-15.912h1.476v9.63h-1.476v-9.63zm14.147 7.794-.702 1.152c-1.836-.594-3.222-1.872-3.906-3.474-.684 1.836-2.142 3.276-4.068 3.96l-.756-1.17c2.43-.846 4.05-2.934 4.05-5.256v-.63h-3.618v-1.188h8.658v1.188h-3.564v.63c0 2.106 1.53 3.996 3.906 4.788zm-1.962 7.146c2.376 0 3.834-.666 3.834-1.818 0-1.134-1.458-1.8-3.834-1.8-2.412 0-3.852.666-3.852 1.8 0 1.152 1.44 1.818 3.852 1.818zm0-4.788c3.276 0 5.31 1.098 5.31 2.97 0 1.89-2.034 2.988-5.31 2.988-3.312 0-5.328-1.098-5.328-2.988 0-1.872 2.016-2.97 5.328-2.97zm5.13-6.084h2.394v1.242h-2.394v4.428h-1.476v-9.738h1.476v4.068z" fill="#626262"/>
    <path fill="#FBFBFB" d="M1053.5 737.5h249v59h-249z"/>
    <path stroke="#CFCFCF" d="M1053.5 737.5h249v59h-249z"/>
    <path d="M1174.2 764.362h-4.03c-1.04 2.592-3.49 4.482-6.96 5.49l-.6-1.17c3.85-1.152 6.25-3.294 6.52-6.084h-5.69v-1.188h7.29a9.1 9.1 0 0 1-.18 1.746h3.65v-2.952h1.5v9.648h-1.5v-2.124h-4.23v-1.206h4.23v-2.16zm-3.78 10.746c2.38 0 3.89-.738 3.89-1.962 0-1.206-1.51-1.944-3.89-1.944-2.37 0-3.88.738-3.88 1.944 0 1.224 1.51 1.962 3.88 1.962zm0-5.076c3.26 0 5.35 1.17 5.35 3.114s-2.09 3.114-5.35 3.114c-3.25 0-5.34-1.17-5.34-3.114s2.09-3.114 5.34-3.114zm10.95-2.592v3.78c2.64 0 5.02-.126 7.84-.576l.15 1.206c-2.92.486-5.37.594-8.14.594h-1.33v-6.192h5.94v-3.366h-5.99v-1.206h7.48v5.76h-5.95zm9.36-7.272h1.47v16.182h-1.47v-16.182z" fill="#626262"/>
    <path fill="#FBFBFB" d="M702.5 802.5h249v59h-249z"/>
    <path stroke="#CFCFCF" d="M702.5 802.5h249v59h-249z"/>
    <path d="m821.313 832.206.162 1.17c-2.358.396-4.32.468-7.848.468h-1.314v-7.668h7.704v1.188h-6.228v1.998h5.778v1.17h-5.778v2.124c3.366 0 5.274-.072 7.524-.45zm-5.67 4.608v3.114h7.56v-3.114h-7.56zm-1.44 4.302v-5.49h10.44v5.49h-10.44zm8.964-15.912h1.476v9.63h-1.476v-9.63zm14.147 7.794-.702 1.152c-1.836-.594-3.222-1.872-3.906-3.474-.684 1.836-2.142 3.276-4.068 3.96l-.756-1.17c2.43-.846 4.05-2.934 4.05-5.256v-.63h-3.618v-1.188h8.658v1.188h-3.564v.63c0 2.106 1.53 3.996 3.906 4.788zm-1.962 7.146c2.376 0 3.834-.666 3.834-1.818 0-1.134-1.458-1.8-3.834-1.8-2.412 0-3.852.666-3.852 1.8 0 1.152 1.44 1.818 3.852 1.818zm0-4.788c3.276 0 5.31 1.098 5.31 2.97 0 1.89-2.034 2.988-5.31 2.988-3.312 0-5.328-1.098-5.328-2.988 0-1.872 2.016-2.97 5.328-2.97zm5.13-6.084h2.394v1.242h-2.394v4.428h-1.476v-9.738h1.476v4.068z" fill="#626262"/>
    <path fill="#FBFBFB" d="M351.5 932.5h249v59h-249z"/>
    <path stroke="#CFCFCF" d="M351.5 932.5h249v59h-249z"/>
    <path d="M463.402 957.382v-.18h-9.54v-1.188h10.998v1.368c0 1.296 0 2.61-.45 4.266l-1.44-.162c.432-1.656.432-2.844.432-4.104zm-4.05 12.78c2.538 0 4.158-.684 4.158-1.8 0-1.152-1.62-1.836-4.158-1.836-2.52 0-4.14.684-4.14 1.836 0 1.116 1.62 1.8 4.14 1.8zm0-4.77c3.438 0 5.634 1.098 5.634 2.97 0 1.836-2.196 2.952-5.634 2.952s-5.616-1.116-5.616-2.952c0-1.872 2.178-2.97 5.616-2.97zm.234-2.682h7.092v1.188h-14.526v-1.188h5.958v-3.096h1.476v3.096zm18.449.288-.702 1.152c-1.836-.594-3.222-1.872-3.906-3.474-.684 1.836-2.142 3.276-4.068 3.96l-.756-1.17c2.43-.846 4.05-2.934 4.05-5.256v-.63h-3.618v-1.188h8.658v1.188h-3.564v.63c0 2.106 1.53 3.996 3.906 4.788zm-1.962 7.146c2.376 0 3.834-.666 3.834-1.818 0-1.134-1.458-1.8-3.834-1.8-2.412 0-3.852.666-3.852 1.8 0 1.152 1.44 1.818 3.852 1.818zm0-4.788c3.276 0 5.31 1.098 5.31 2.97 0 1.89-2.034 2.988-5.31 2.988-3.312 0-5.328-1.098-5.328-2.988 0-1.872 2.016-2.97 5.328-2.97zm5.13-6.084h2.394v1.242h-2.394v4.428h-1.476v-9.738h1.476v4.068zm13.39 3.726-.702 1.152c-1.836-.594-3.222-1.872-3.906-3.474-.684 1.836-2.142 3.276-4.068 3.96l-.756-1.17c2.43-.846 4.05-2.934 4.05-5.256v-.63h-3.618v-1.188h8.658v1.188h-3.564v.63c0 2.106 1.53 3.996 3.906 4.788zm-1.962 7.146c2.376 0 3.834-.666 3.834-1.818 0-1.134-1.458-1.8-3.834-1.8-2.412 0-3.852.666-3.852 1.8 0 1.152 1.44 1.818 3.852 1.818zm0-4.788c3.276 0 5.31 1.098 5.31 2.97 0 1.89-2.034 2.988-5.31 2.988-3.312 0-5.328-1.098-5.328-2.988 0-1.872 2.016-2.97 5.328-2.97zm5.13-6.084h2.394v1.242h-2.394v4.428h-1.476v-9.738h1.476v4.068z" fill="#626262"/>
    <path fill="#FBFBFB" d="M351.5 1127.5h249v59h-249z"/>
    <path stroke="#CFCFCF" d="M351.5 1127.5h249v59h-249z"/>
    <path d="M463.402 1152.38v-.18h-9.54v-1.19h10.998v1.37c0 1.3 0 2.61-.45 4.27l-1.44-.16c.432-1.66.432-2.85.432-4.11zm-4.05 12.78c2.538 0 4.158-.68 4.158-1.8 0-1.15-1.62-1.83-4.158-1.83-2.52 0-4.14.68-4.14 1.83 0 1.12 1.62 1.8 4.14 1.8zm0-4.77c3.438 0 5.634 1.1 5.634 2.97 0 1.84-2.196 2.95-5.634 2.95s-5.616-1.11-5.616-2.95c0-1.87 2.178-2.97 5.616-2.97zm.234-2.68h7.092v1.19h-14.526v-1.19h5.958v-3.1h1.476v3.1zm18.449.29-.702 1.15c-1.836-.59-3.222-1.87-3.906-3.47-.684 1.83-2.142 3.27-4.068 3.96l-.756-1.17c2.43-.85 4.05-2.94 4.05-5.26v-.63h-3.618v-1.19h8.658v1.19h-3.564v.63c0 2.11 1.53 4 3.906 4.79zm-1.962 7.14c2.376 0 3.834-.66 3.834-1.81 0-1.14-1.458-1.8-3.834-1.8-2.412 0-3.852.66-3.852 1.8 0 1.15 1.44 1.81 3.852 1.81zm0-4.78c3.276 0 5.31 1.09 5.31 2.97 0 1.89-2.034 2.98-5.31 2.98-3.312 0-5.328-1.09-5.328-2.98 0-1.88 2.016-2.97 5.328-2.97zm5.13-6.09h2.394v1.24h-2.394v4.43h-1.476v-9.74h1.476v4.07zm13.39 3.73-.702 1.15c-1.836-.59-3.222-1.87-3.906-3.47-.684 1.83-2.142 3.27-4.068 3.96l-.756-1.17c2.43-.85 4.05-2.94 4.05-5.26v-.63h-3.618v-1.19h8.658v1.19h-3.564v.63c0 2.11 1.53 4 3.906 4.79zm-1.962 7.14c2.376 0 3.834-.66 3.834-1.81 0-1.14-1.458-1.8-3.834-1.8-2.412 0-3.852.66-3.852 1.8 0 1.15 1.44 1.81 3.852 1.81zm0-4.78c3.276 0 5.31 1.09 5.31 2.97 0 1.89-2.034 2.98-5.31 2.98-3.312 0-5.328-1.09-5.328-2.98 0-1.88 2.016-2.97 5.328-2.97zm5.13-6.09h2.394v1.24h-2.394v4.43h-1.476v-9.74h1.476v4.07z" fill="#626262"/>
    <path stroke="#DA251C" d="M351.5 607.5h249v59h-249z"/>
    <path d="M454.385 635.78v4.62h-2.134v-11.198h2.134v4.73h2.09v-5.082h2.156v12.188h-2.156v-5.258h-2.09zm-2.596 2.156-1.21 1.694c-1.76-.682-2.992-2.002-3.74-3.586-.726 1.826-2.024 3.366-3.938 4.202l-1.188-1.738c2.662-1.21 4.004-3.696 4.004-5.962v-2.508h2.2v2.508c0 2.2 1.298 4.378 3.872 5.39zm.22 9.02c2.794 0 4.466-.682 4.466-1.892 0-1.232-1.672-1.914-4.466-1.914-2.794 0-4.466.682-4.466 1.914 0 1.21 1.672 1.892 4.466 1.892zm0-5.544c4.136 0 6.732 1.364 6.732 3.652 0 2.266-2.596 3.63-6.732 3.63s-6.732-1.364-6.732-3.63c0-2.288 2.596-3.652 6.732-3.652zm26.698-2.86-1.144 1.804a8.007 8.007 0 0 1-4.686-4.29c-.858 2.178-2.508 3.872-4.84 4.708l-1.232-1.76c3.19-1.078 4.884-3.762 4.884-6.666v-2.31h2.288v2.332c0 2.64 1.716 5.148 4.73 6.182zm-6.468 3.498v4.422h11.066v1.848h-13.332v-6.27h2.266zm10.274-7.282h2.816v1.87h-2.816v6.82h-2.266v-14.652h2.266v5.962zm21.77 2.486.22 1.804c-2.838.462-5.28.528-9.548.528h-1.65v-9.614h9.504v1.826h-7.26v2.046h6.688v1.782h-6.688v2.156c3.828 0 6.094-.088 8.734-.528zm-6.512 6.138v3.256h8.558v-3.256h-8.558zm-2.222 5.06v-6.864h13.002v6.864h-13.002zm10.736-19.624h2.266v11.836h-2.266v-11.836z" fill="#DA251C"/>
    <path stroke="#DA251C" d="M702.5 607.5h249v59h-249z"/>
    <path d="M788.768 634.878v-3.652h-4.576v3.652h4.576zm-6.842 0v-3.652h-2.816V629.4h14.718v1.826h-2.794v3.652h2.684v1.826H779.22v-1.826h2.706zm9.152 11.77v-2.706h-9.174v2.706h9.174zm4.4-6.534h-7.854v2.024h5.676v6.314h-13.64v-6.314h5.698v-2.024h-7.854v-1.826h17.974v1.826zm18.655-11.286v10.252h-2.288v-10.252h2.288zm-4.136 8.206-1.012 1.738c-2.354-.66-4.048-2.134-4.95-3.96-.88 2.024-2.618 3.63-5.038 4.4l-1.078-1.782c3.08-.924 4.884-3.278 4.928-5.742h-4.312v-1.826h10.868v1.826h-4.246c.066 2.31 1.826 4.488 4.84 5.346zm-6.622 9.724h11.352v1.76h-13.574v-5.148h10.736v-1.672h-10.78v-1.716h13.024v5.016h-10.758v1.76zm25.122-9.416-2.222-.242c.396-2.134.462-3.696.484-4.928h-7.766v-1.848h9.988v1.144c0 1.342 0 3.3-.484 5.874zm1.65.99.154 1.65c-4.136.726-8.822.836-12.276.836l-.242-1.848c1.188 0 2.552 0 3.96-.044v-4.07h2.244v4.004c2.068-.088 4.202-.22 6.16-.528zm-7.084 4.092v4.048h11.22v1.848h-13.508v-5.896h2.288zm10.582-7.304h2.64v1.87h-2.64v6.754h-2.288v-14.916h2.288v6.292zm8.006 2.838v4.18c3.146-.022 5.896-.176 9.042-.682l.242 1.848c-3.41.594-6.38.704-9.878.704h-1.694v-7.876h6.93v-3.696h-6.974v-1.848h9.262v7.37h-6.93zm10.692-9.174h2.288v19.954h-2.288v-19.954zm18.236 8.47.22 1.804c-2.838.462-5.28.528-9.548.528h-1.65v-9.614h9.504v1.826h-7.26v2.046h6.688v1.782h-6.688v2.156c3.828 0 6.094-.088 8.734-.528zm-6.512 6.138v3.256h8.558v-3.256h-8.558zm-2.222 5.06v-6.864h13.002v6.864h-13.002zm10.736-19.624h2.266v11.836h-2.266v-11.836z" fill="#DA251C"/>
    <path stroke="#DA251C" d="M1053.5 607.5h249v59h-249z"/>
    <path d="m1159.26 637.342-2.22-.242c.39-2.134.46-3.696.48-4.928h-7.77v-1.848h9.99v1.144c0 1.342 0 3.3-.48 5.874zm1.65.99.15 1.65c-4.13.726-8.82.836-12.27.836l-.25-1.848c1.19 0 2.56 0 3.96-.044v-4.07h2.25v4.004c2.07-.088 4.2-.22 6.16-.528zm-7.09 4.092v4.048h11.22v1.848h-13.5v-5.896h2.28zm10.59-7.304h2.64v1.87h-2.64v6.754h-2.29v-14.916h2.29v6.292zm8 2.838v4.18c3.15-.022 5.9-.176 9.04-.682l.25 1.848c-3.41.594-6.38.704-9.88.704h-1.7v-7.876h6.93v-3.696h-6.97v-1.848h9.26v7.37h-6.93zm10.69-9.174h2.29v19.954h-2.29v-19.954zm18.24 8.47.22 1.804c-2.84.462-5.28.528-9.55.528h-1.65v-9.614h9.51v1.826h-7.26v2.046h6.69v1.782h-6.69v2.156c3.83 0 6.09-.088 8.73-.528zm-6.51 6.138v3.256h8.56v-3.256h-8.56zm-2.22 5.06v-6.864h13v6.864h-13zm10.73-19.624h2.27v11.836h-2.27v-11.836z" fill="#DA251C"/>
</svg>
